/* XPM */
static char *_1674931127[] = {
/* columns rows colors chars-per-pixel */
"100 50 253 2 ",
"   c #070105",
".  c #0E0015",
"X  c #160119",
"o  c #140004",
"O  c #230017",
"+  c #1A0025",
"@  c #2D0132",
"#  c #470253",
"$  c #4F0853",
"%  c #5A0962",
"&  c #6F1370",
"*  c #60085F",
"=  c #360040",
"-  c #811E7B",
";  c #7F1584",
":  c #8D1A8C",
">  c #912C95",
",  c #AE3A8D",
"<  c #AE3185",
"1  c #B43386",
"2  c #B4348A",
"3  c #BC358C",
"4  c #B33B8B",
"5  c #BB3B8D",
"6  c #B53887",
"7  c #B33D91",
"8  c #BB3C92",
"9  c #B73690",
"0  c #A83595",
"q  c #9C39A6",
"w  c #AE34AB",
"e  c #C1378E",
"r  c #C53A93",
"t  c #CC3A95",
"y  c #C93C9A",
"u  c #D4369B",
"i  c #D9379B",
"p  c #D43B9C",
"a  c #DA3B9C",
"s  c #D23996",
"d  c #D53DA2",
"f  c #DA3DA2",
"g  c #C73CBB",
"h  c #B8468D",
"j  c #AB4693",
"k  c #AC4A95",
"l  c #B34394",
"z  c #BA4C92",
"x  c #B94A9D",
"c  c #B74698",
"v  c #AC549B",
"b  c #AC5A9E",
"n  c #A75499",
"m  c #B95598",
"M  c #AF408F",
"N  c #816685",
"B  c #816886",
"V  c #886E8C",
"C  c #9A7E9E",
"Z  c #947998",
"A  c #8E7391",
"S  c #BF639E",
"D  c #BA4DA1",
"F  c #AE5CA1",
"G  c #BA54A5",
"H  c #B85AA7",
"J  c #B249B4",
"K  c #9D7EA2",
"L  c #9F7FA8",
"P  c #AA64A3",
"I  c #A66FA6",
"U  c #AB6EA9",
"Y  c #A968A4",
"T  c #B765AC",
"R  c #A475A6",
"E  c #A27CA5",
"W  c #A775AA",
"Q  c #AA73AB",
"!  c #A57DAB",
"~  c #A97BAC",
"^  c #BB6CB4",
"/  c #BB66B1",
"(  c #B574B3",
")  c #B47BB4",
"_  c #BA78B9",
"`  c #AE79B0",
"'  c #9C51A6",
"]  c #C74599",
"[  c #D4439D",
"{  c #DA429E",
"}  c #D24B9D",
"|  c #C3559C",
" . c #D2529F",
".. c #C64AA4",
"X. c #D543A3",
"o. c #DA44A3",
"O. c #DB4BA4",
"+. c #D644AA",
"@. c #D946AC",
"#. c #DA4AAD",
"$. c #D44BA8",
"%. c #C657A8",
"&. c #DB51A6",
"*. c #DC55AA",
"=. c #DB5BAC",
"-. c #D457A5",
";. c #DA4CB2",
":. c #D74CB1",
">. c #DA52B5",
",. c #DE5ABD",
"<. c #DB57B8",
"1. c #C34FB9",
"2. c #E15BBD",
"3. c #E15CAE",
"4. c #C36CA5",
"5. c #C665A4",
"6. c #D664AC",
"7. c #C976AB",
"8. c #DD64B2",
"9. c #DC6AB5",
"0. c #DA76B8",
"q. c #C367B6",
"w. c #E268B5",
"e. c #E274BC",
"r. c #E379BC",
"t. c #C1629E",
"y. c #BA4CC3",
"u. c #DC5DC3",
"i. c #D65AD4",
"p. c #CA4FCA",
"a. c #E25CC1",
"s. c #E35EDE",
"d. c #DC66C5",
"f. c #DB69DB",
"g. c #D97AC8",
"h. c #E263C5",
"j. c #E46BCB",
"k. c #E266C8",
"l. c #E570CE",
"z. c #E47CC4",
"x. c #E573D1",
"c. c #E67BD6",
"v. c #E979D6",
"b. c #E66ED4",
"n. c #DA70E7",
"m. c #E875E8",
"M. c #DE58E8",
"N. c #BE3DC4",
"B. c #9B809F",
"V. c #9C82A2",
"C. c #A283A5",
"Z. c #A583AB",
"A. c #A983AD",
"S. c #A989AD",
"D. c #A48AA9",
"F. c #AC84B1",
"G. c #AD8AB3",
"H. c #AF87B9",
"J. c #B28EB3",
"K. c #B483BA",
"L. c #B385B8",
"P. c #B291B4",
"I. c #BB96BC",
"U. c #BA99BC",
"Y. c #B695BC",
"T. c #B28FB0",
"R. c #CE82B4",
"E. c #D687BC",
"W. c #D490BF",
"Q. c #E182B7",
"!. c #BC97C0",
"~. c #BC9AC2",
"^. c #BEA0C6",
"/. c #DB87C3",
"(. c #C49FCA",
"). c #C09DC5",
"_. c #D995C3",
"`. c #D49CDB",
"'. c #D586D3",
"]. c #E383C3",
"[. c #E78AC8",
"{. c #E796CB",
"}. c #EA83DD",
"|. c #E98ADE",
" X c #E687DB",
".X c #EA9AD3",
"XX c #F095CD",
"oX c #C5A1CB",
"OX c #C4A0C6",
"+X c #CBA3D3",
"@X c #CDA9D5",
"#X c #D3A3DC",
"$X c #D4ABDE",
"%X c #D6B0DF",
"&X c #D8B1DE",
"*X c #DEA4CC",
"=X c #E5A4CD",
"-X c #EAA8D6",
";X c #F1ABD9",
":X c #ECB4DB",
">X c #E8B7DA",
",X c #F3B4DC",
"<X c #F0ADCE",
"1X c #DC9EE1",
"2X c #DD94E4",
"3X c #EA8CE2",
"4X c #E888E5",
"5X c #E395E1",
"6X c #EB93E5",
"7X c #E49BE5",
"8X c #EC9BEC",
"9X c #EA96E9",
"0X c #EC9BF4",
"qX c #F494F0",
"wX c #DDA3E3",
"eX c #D5ADE0",
"rX c #DDACE7",
"tX c #DEB3E9",
"yX c #ECA3ED",
"uX c #E6A7EC",
"iX c #F2A7E9",
"pX c #E4B7E9",
"aX c #F5B8E6",
"sX c #EDA4F2",
"dX c #EDACF3",
"fX c #E6ADF1",
"gX c #F3AAF4",
"hX c #EDB4F5",
"jX c #EBBCF4",
"kX c #E8B4F3",
"lX c #F5B8F6",
"zX c #EDC1DF",
"xX c #EEC8E6",
"cX c #F2C3E4",
"vX c #F4CCEB",
"bX c #F7C8E9",
"nX c #F4D3EC",
"mX c #F7D6EA",
"MX c #F5CBF2",
"NX c #FBCBF3",
"BX c #FCCBFD",
"VX c #F7C4F8",
"CX c #FBD4F3",
"ZX c #F5DCF4",
"AX c #FBDBF3",
"SX c #FDD4FD",
"DX c #FEDCFD",
"FX c #F3D7F6",
"GX c #EECFEB",
"HX c #F5E3F3",
"JX c #FCE2FD",
"KX c #F9E3F6",
"LX c #F5E2ED",
/* pixels */
"Y.Y.Y.K.!.H.G.P.P.G.J.J.P.T.T.T.J.T.T.G.T.T.T.T.T.T.T.T.T.T.T.P.P.P.P.P.P.G.Y.G.H.Y.P.P.P.G.H.G.Y.G.P.P.H.Y.J.J.Y.J.Y.L.Y.J.J.Y.P.P.P.P.P.P.P.P.P.G.P.G.G.G.J.P.T.T.T.T.T.T.T.T.P.P.P.Y.Y.U.U.U.Y.~.Y.Y.",
").).).).~.^.~.~.Y.!.I.Y.Y.U.U.U.I.Y.R.U.I.I.Y.W.U.U.U.W.U.U.W.U.U.U.~.~.~.~.~.^.~.~.~.~.~.~.~.~.~.~.~.~.!.!.!.!.!.!.!.!.!.Y.!.!.Y.I.U.I.U.U.~.U.U.U.U.U.~.~.!.Y.U.U.U.U.U.U.U.U.~.~.~.~.~.~.^.^.~.^.^.~.",
"oXoX+X(.oXoX+XoX^.oX(.OXOXOXOXOXoXoXoX^.OX(.(.OXOXOX^.OXOX).(.(.oXoXoX^.+X^.^.oX+X^.oX~.^.^.oX^.^.+X~.oX~.(.(.~.(.(.+X~.(.).(.(.).(.(.(.OXoX(.oXoXoXoXOXoXoXoXoXOXOXOXOXOXOXOXOX^.oXoXoXoXoXoXoXoXoXoX^.",
"@X@X@X@X@X@X@X@X@X@X@X@X+X@X@X+X@X@X@X+X@X@X+X+X+X@X@XoX+X+X+X@X@X+X+X+X+X+X+X+X+X+X+X+X+X+X+X+X+X^.+X+X+X+X+X+X+X+X+X+X+X+X#X+X+X+X+X@X+X+X+X+X+X+X+X@X+X@X@X@X@X+X@X@X@X@X@X@X@X@X@X@X@X@X@X%X@X@X@X@X",
"eXeXeXeX%X%XeXeXeXeX%X$X&X$X$X$X$X$X$XeXeX$X$X#X$X$X#X$X#X#X#X#X`.eX`.eX#X#X#X#X#X`.#X1X#XwX`.`.`.`.#X+X`.`.#X#X#X#X#X@XeX#X#X#X#X#X#X#X#X#X$X$X$XeX$X#X$X$X$X$XwXeXeXeX&X%X%X%XeXeXeXeXeXeXeXeX%XeX%X%X",
"pXpXtXtXtXtXtXtXpXtXtXtXpXrXrXpXrXrXrXrXrXrXrXrXwXwXuX#XwX-XwXwXwXwXwXwX1X1XwX2XwX7X1X.X1X.X7X#X1X1X1X1X1XwX#XwX1X1X1XwX2X1X1XwX#XwXuX`.uXwXwXwXwXwXwXrXrXrXrXrXrXrXrXrX>XpXpXtXkXtXtXtXpXtXpXtXtXpXtXtX",
"VXjXjXjXjXjXjXkXkXkXkXfXfXfXfXfXfXfXuXrXuXuXuXuXuXuX7XyXuX7X7X8X7X7X7X1X7X2X2X7X5X5X5X5X5X5X6X|.2X2X2X2X2X2X`.|.2X`.|.2X7X5X7X7X7X5X5X7X7X7X7XuXuX7XuXuXfXrXuXuXfXuXfXfXfXfXfXkXkXkXkXjXGXjXjXjXGXjXVXkX",
"VXjXVXjXVXjXjXjXhXhXlXgXhXhXdXdXsXsXsXsXuX0XsX8X7X8X8X9X9X6X9X9X5X6X5X|.|.3X4X4X}.|.3X}.}.}.}.}.4X X X X X X4X}.4X}.|.|.3X3X3X4X3X3X6X6X6X6X6X6X9X8X0X8X0X8X0XsXsXfXdXsXdXdXdXfXhXhXhXhXhXjXlXlXjXVXjXjX",
"lXlXlXlXgXhXgXgXgXsXyXyXyXyXyX8X8X6X9X6X3X6X3X3X3X|.}.}.v.4Xv.v.c.c.c.c.c.x.c.x.x.l.l.l.b.j.x.l.x.j.l.b.x.j.x.j.j.l.x.x.b.b.v.l.v.c.v.c.4Xv.}.}.}.}.}.}.3X6XqX6X0X9X9X0X0XsXgXsXsXyXdXdXgXgXhXhXhXjXjXkX",
"gXgXyXgXdXsXiXyX8X8X6X6X6X6X3X3X}.4Xv.4X}.v.v.v.v.x.b.b.b.j.j.k.d.k.d.d.d.d.d.u.u.,.h.,.2.u.a.2.a.2.a.a.a.2.a.u.a.a.a.a.a.h.a.h.k.k.k.k.j.j.b.j.b.v.v.v.v.v.v.v.}.4X X4X3X6X3X9X9X8XyX8XyXgXgXgXdXkXfXuX",
"yXyXiX6X8X6X6X3X|.}.}. X Xc.c.x.x.b.j.j.j.k.k.h.a.a.2.,.2.,.u.>.>.>.<.>.:.:.:.:.#.#.:.#.#.@.#.+.@.@.@.@.@.@.@.@.@.@.@.;.;.;.;.;.;.;.>.>.,.<.2.,.2.2.2.k.k.k.h.k.l.x.x.c.v.v.}.v. X|.|.3X6X6X6X8X8XuXuXuX",
"qX3X3X3X|.}.}.v.v.v.l.l.j.d.d.d.h.w.,.,.,.>.>.>.;.;.;.;.@.@.f d +.+.d +.X.d X.d X.d +.d d d d d d d d d d d d d d d d d f f f o.+.+.+.+.@.#.@.;.;.;.;.;.;.2.2.2.,.u.u.d.j.j.b.b.l.l.v.v.v.}.|.3X3X7X7X1X",
"}.}.v.v.b.v.b.j.j.k.k.a.u.,.<.>.;.;.#.#.:.+.+.+.@.X.f d f d d d p d p p p p p u p u p u d u p u u u u u u u s u u u u u f i f p p p d d p d X.d o.d o.X.o.O.@.@.#.:.;.;.<.u.u.a.d.h.k.j.l.l.x.v.c. X X X",
"b.b.l.l.d.u.u.u.,.<.>.;.;.#.+.+.+.X.X.X.d d p p u u d u u u d u u y u s u s u s y s u i u u u p p y u y p p y u p y p p a p s p p p y u p u u u i u u p a i f f d d d f f @.;.:.>.<.,.u.2.d.k.j.j.g.b.g.",
"k.a.a.2.u.u.u.;.@.@.@.+.d d f d p p y p d u u u u u u u a i u p p p a { p a a { f o.o.{ f { o.{ o.X.+.[ { } X.} X.[ [ [ [ [ d [ p p p p u p p u u u u u s s i i f i f f f d f f +.+.:.:.>.>.,.u.u.d.d.d.",
"u.a.<.>.;.:.d +.+.f d d f a u u u u u u p p u u d d p u p X.X.X.X.[ { } o.O.O.O.O.O.&.&.*.*.*.*.=.=.-.=.=.-.-.-.$.-.-.-...$...$.O.{ { { X.p p a i i a i a i i i u i i u f f d d p d d +.@.#.:.:.:.<.u.u.",
":.:.:.:.+.d d d i i i s i i s s s s p p p d f d o.+.$...$.%.-.6.6.6.6.8.w.w.w.w.w.e.r.z.r.g./.z.g.]./.r.Q.Q.Q.r.0.0.e.e.0.9.d.9.8.=.=.=.=.*.;.@.@.f f f f f a i s p p u i i i i u u d d f X.o.@.:.:.:.:.",
"+.+.d d d d f d a i i i i s { a s [ [ [ o.O.#.;.>.>.=.8.9.0.0.0.E./.Q.].XXXXXXXX.X-X-X-X;X;X;X;X;XiXaX;X;X<X<X<X<X<X=X=X.X.X.X'.[./.0.0.e.9.8.w.3.3.#.#.O.O.{ { d X.p p s s s i u i i i p p d f X.+.@.@.",
"X.X.y d d u d i i i i a s a { { [ } O.*.*.3.w.w.e.e.r.Q.[.{.{..X-XiXiXaXaXaXaXMXvXvXGXMXFXnXNXNXNXBXNXNXNXCXnXGXzXxXxXcXcXzXpX:X:X;X-X=X.X{.[./.z.r.e.w.8.6.-.-...$.X.} p p { a i i i i i p i a d X.d X.",
"d d d d i f i i a a a { { { } O.&.=.=.w.e.j.z.].[.XXXX<X-X;XaXaXbXvXNXNXSXSXDXDXJXJXJXJXDXDXDXSXSXSXDXDXDXJXDXDXKXJXJXKXAXAXAXCXvXMXbXxXpX>X>X-X=X.X{.].r.r.e.w.8.=.=.*.O.O.{ { f a f i i a a i p y d y ",
"a i a a i i f i a a { { O.O.*.3.w.h.e.z.].{.XX=X<X,X,XbXbXNXnXCXKXHXHXKXDXJXDXDXSXDXSXBXBXBXBXBXBXVXVXVXVXBXFXBXBXSXDXDXKXKXKXKXDXJXJXKXZXZXGXxXxX>X<X<X=X{.[.].e.e.8.8.3.&.&.{ { f f a f f a i p y p y ",
"i i i i i i a a { { O.&.*.3.w.w.l.z.[.XX.X;X,X,XcXbXmXmXAXAXDXDXJXHXHXFXCXNXNXlXlXiXiXyXyXyX5X`.`.`.`.`.2X9X0X0XsXsXdXlXlXBXCXSXDXDXJXJXKXKXLXZXmXmXcXcX,X,X;XXX[.].r.e.w.3.3.O.O.o.{ f f f a i p p u s ",
"i i a a a a f { O.O.*.=.8.w.z.z.[..X.X;X,XzXxXmXmXLXAXKXKXDXSXSXBXVXlXgX8X3X}.x.x.g.d./ q.J J H ' ' ' F J J y.q.i.i.n.m.4XqX0XgXlXlXBXBXDXKXKXKXLXLXmXmXbXaX,X;X-XXX[.Q.r.w.w.3.O.O.{ o.o.f f i a p s t ",
"i i a a { { { { O.*.=.w.9.z.].[.|..X,XzXcXxXmXLXLXKXKXKXAXNXMXVXgXqXqXc.b.d.:.J w 0 : ; & & & % $ $ $ % % & & - > > q w p.i.s.m.4X9XgXlXNXCXAXZXKXKXLXAXCXNXbX,X,X;X.X{.XXr.w.w.3.3.3.O.@.o.f p { p p p ",
"i i a { { o.{ } *.=.8.w.0.z.[.|.;X-XaXxXvXmXLXLXKXHXHXFXMXVXfX0XqXm.s.p.g w > : % $ = @ @ + O O O O O O X X + @ @ = % & 0 w 1.p.i.s.4XqXgXlXMXAXZXZXKXKXAXCXNXbXaX:X-X{.{.].r.e.w.3.&.O.O.o.o.[ a a s s ",
"i i s { { o.&.O.*.=.8.0.z.].[..X-XiXaXcXvXmXLXLXLXHXFXFXVXhXuX9Xm.M.M.g w w & % # @ + X . o     o o o           X @ @ $ & : w g p.i.m.m.yXiXjXMXnXZXHXFXAXCXMXxXaXaX-X=X{.].r.e.w.w.3.O.@.O.X.{ [ p s s ",
"p [ [ { [ O.O.-.=.=.8.0.r.].[..X-X;XaXbXmXmXAXKXKXZXFXMXVXhXuX6Xm.M.p.J w > & # # @ + . .                       . + @ $ % : w g p.i.n.4X8XgXjXGXFXHXHXHXKXFXGXvXcXaX-X.X{.].Q.e.w.8.3.&.O.@.o.X.[ a s s ",
"p p p [ X.O.o.O.-.=.8.9.e.z. XXX.X;XaXcXbXmXAXAXZXDXDXBXVXlXuX8Xm.m.M.p.J w : & % # = @ + X . . . . . . .   X O + @ % & ; w N.g p.f.m.9XgXhXVXFXFXZXHXHXZXZXnXxXaX;X-X.X[.].r.w.w.3.&.&.O.o.+.[ p a p s ",
"p p d [ X.o.o.O.O.-.8.8.w.r.z.[.XX.X;XaXaXcXnXCXAXDXDXSXBXNXVXdX0XqX4Xb.i.u.g w > : : & % % # # # = # # $ $ * & & : > w N.p.M.M.m.2X7XgXjXVXFXFXZXZXZXZXAXvXcXaX,X;XXXXX].r.9.w.3.3.&.&.O.X.[ X.{ p p s ",
"p [ p d p [ o.o.O.O.-.=.8.9.e.z.[.[.XX-X;XaXcXbXNXCXDXDXDXSXSXNXVXlXgXqXqXm.m.s.f.i.p.y.J J q q > ' > q q w w 1.p.p.i.f.n.n.0X0XgXhXlXBXSXSXDXJXZXZXFXMXbX,X,X<X.XXXQ.Q.Q.e.w.3.*.&.{ { o.o.a p [ p p t ",
"p p p p a [ a [ X.[ O.$.-.-.8.8.e.z.].{.{.-X-X>XzXxXnXnXnXAXAXAXSXFXNXBXlXlXgXgXsX7X2X2X'.'.'.'.'.g.'.'.c.'.|.|.|.7X8XiXfXaXjXVXNXNXCXAXDXFXmXmXxXxXcX:X,X<X{.{.].Q.0.9.6.6.-.&.} { { { a [ u p p p p p ",
"p y y d p p p [ s [ [ } X.$.-.=.6.8.9.0.0./._.=X*X*X>X>X>XbXbXxXGXnXmXmXNXNXNXVXVXVXlXlXlXlXiXaXpXaXlXjXlXlXlXlXlXNXBXNXnXvXnXFXnXvXNXvXvXxXzX>X>X>X-X{.W.Q.Q.0.0.9.6.=.-. .} ] [ [ [ s p s u u p y y y ",
"y y y r y u y r t ] s t [ ] [ }  . .-.-.6.9.0.0.E././._.{.-X-X:X>X>XzXzXzXcXbXbXvXbXvXMXMXMXMXvXNXMXNXNXxXmXbXbXNXNXbXcXxXxXzXzXzX:X:X:X<X=X{.{.W.E.0.0.0.9.6.-. . .} } } [ ] t t t s u s t y y y y y y ",
"y y y y r r r r r e t r e t t t ] ] | ] | | -.5.6.6.7.0.0.0.E./._._._.*X=X=X=X<X-X>X>X>X>X>X>X>X>X>X>X>XzXzX:X>X>X-X>X>X-X*X=X=X{.{.W.W.E.E.E.0.0.7.5.6.5.%.| | } } [ ] ] e t e t t e r t r r y w y ..y ",
"....y y y y y 8 r e e e e e r e e e e ] ] ] ] ] | | m | T 5.5.5.7.7.7.7.7.R.R.R.W.R.W.W.W._._._._.W._._._.W.W.OXR.E.E.R.R.R.R.7.7.7.7.5.5.5.%.| | | | ] ] ] 8 r ] e r e e e e e e e r r e r y y ....D ..",
"$.........D 8 y 8 r r 5 3 e 3 3 e e e e e 6 5 5 5 h ] h h z z z m z m m t.S S 5.S S S 4.5.4.T 4.( 4.4.T 4.4.4.S 4.S S S S S S S m | z | z z z z h 8 h 5 8 8 r 3 6 3 e 6 6 e e 6 9 8 9 8 y ..8 ......G H ",
"%.1.%...%...D D c ] 8 8 8 8 8 5 3 3 3 3 e e 3 3 3 3 3 6 3 5 5 h 5 h h h h h z h h h z z z z z z z z z z z z h h z z z h h h h h h 6 h 6 h 6 3 3 5 3 3 3 3 3 3 3 3 2 2 2 6 8 8 9 9 7 8 D D ..%.G G %.%.G ",
"q.q./ %.G 1.D D D D D x l l 7 7 3 3 3 3 2 3 3 3 2 3 3 1 1 1 1 1 6 6 6 1 6 6 6 6 6 6 4 4 6 6 4 6 6 h , h M M 6 6 6 4 4 6 6 6 6 < 6 1 1 1 6 6 3 1 1 2 3 9 2 3 3 2 9 7 8 7 h h 8 c D D D G D %.G %./ / q./ ",
"q./ q./ / / H H H G D D x x x c 8 ] e e 9 5 9 5 2 2 2 1 2 < 2 1 1 1 1 < < 1 1 1 1 1 1 1 1 1 2 < < < < 6 < < < < < < 1 1 1 1 1 1 1 1 1 1 1 1 1 1 1 2 2 9 9 9 9 9 7 c l x x D D D G G G H / / q./ q.^ ^ q.",
"_ _ g.^ ^ ^ / / / / H H G H H G x x c h c l 7 l 7 7 7 7 7 2 , 2 1 1 1 < 6 6 < 1 < < 2 1 2 6 2 < < < < < < < < < < 1 < 1 1 1 1 1 6 1 1 1 3 3 4 4 9 8 7 7 7 8 D D D D x D D G H H H H / / / / ^ ^ _ _ _ _ ",
"_ !._ _ _ _ ( ( ^ T T T T H T F F H m v G m v x x k c c k l j l , l M j h , , 4 , 4 , , , , 2 2 , > , j , , , , 6 , M , 4 4 7 M , j , l l j l l k c k v v H G H G H F H T T T T / / ^ ( ( _ _ _ ) K.!.( ",
"!._ _ ) !._ _ _ ( 7.( ( T ( T T T P P T P F F F b b b v v v x v k k k k k k k k j j j j j j j j j j j j j j j j j j j j j k k j k k n k v v v v F F F J H F F ' H T T T T ^ / ( ( ( ( ( _ ) ) _ K.K.K.K.",
"_ ` !.` !.H.` ) ( ) ) ( ) ( ( ) Q ` U U U U U U P P Y P P F P P F b F b b b b v n n v v n n n n n n n n n n n n n n n n v v b b F b F F b P F P P P U Y U U Q ( ` T T ( _ ) ) ) ) ) ) ) ) K.K.K.H.H.!.H.",
"!.!.! !.! H.) H.L.F.L.L.) ` ` ` ~ ~ ~ ~ ~ Q Q Q Q U Q Q U U U Y Y Y Y Y P P P P P P Y Y P P P P b A n P P P P Y Y Y P P Y Y Y Y Y Y Y Y Y U U U U U Q Q W Q W ` ( ` ) ~ ` ) ` ` ) F.) H.F.L.L.J.L.G.H.G.",
"G.G.G.G.H.H.Z.H.S.A.F.A.F.F.~ ` A.~ ~ ~ ! ~ ~ ~ ~ W W W W W W W Q Q I I I I I I R I R I I I Y Y I I I I R I I Q I I I I Q Q I Q W I W W W W W W W ! ! ! ! ` ! ! ~ ~ H.! ` H.Z.H.F.F.F.F.G.G.S.S.S.G.G.G.",
"D.D.D.D.Z.Z.D.D.S.S.A.A.A.A.A.T.A.A.C.A.Z.Z.~ ! ~ ~ A.W ~ ~ ~ ~ ~ R ~ R ~ R R R R R R R R R K I E R R R R R R R R R R R R R R R W W L W ! ! ! ! ! ! ! ! L A.H.Z.Z.Z.Z.Z.Z.Z.H.Z.G.Z.S.G.S.S.S.S.D.S.S.G.",
"D.D.D.D.D.D.D.D.C.C.A.C.C.C.C.C.C.A.A.C.E A.Z.E Z.! Z.~ ! ! ! ! ! ! ! ~ E E E E E E E E K L L K R E C R R R E R K R E E E E E E L L ! ! L ! ! L L ! ! L L A.Z.V.Z.Z.Z.Z.Z.Z.Z.D.V.Z.S.D.Z.D.C.D.V.D.Z.V.",
"V.V.V.V.V.V.V.V.C.C.C.C.C.C.C.C.E C.E C.C.C.E C.E C.E E ! C.! E E E K K K E E E C.E K K K K K K C R K C C E K K C K C E K E C.E L L Z.L L V.Z.L L L L L L Z.V.V.V.V.V.V.V.V.D.V.V.D.V.V.C.C.C.C.V.V.V.K ",
"B.B.B.B.V.V.V.B.V.B.B.B.B.B.B.B.B.B.B.B.B.B.B.C.B.B.C.C K V.C K K C.B.K K K C R C C C C C C C C C C C C C C C C C C K C K C C E B.B.B.B.V.V.V.V.B.V.V.V.V.K B.B.B.B.B.B.B.B.V.V.Z V.B.V.V.V.K V.V.V.V.V.",
"B.A A A A A V V B B B B B B B B N N N N B B B B B B B B B B B B N N N N N N N N N N N N N N N N N N N N N N N N N N N N N N N N B B B B B B B B B B B B B B B B B B B B B V A A Z Z Z Z K K V.V.V.V.V.Z "
};
