/* XPM */
static char *_1674931330[] = {
/* columns rows colors chars-per-pixel */
"100 50 244 2 ",
"   c #030004",
".  c #040309",
"X  c #000816",
"o  c #00121D",
"O  c #000623",
"+  c #001628",
"@  c #001738",
"#  c #002235",
"$  c #001D46",
"%  c #001E5B",
"&  c #00264A",
"*  c #00275A",
"=  c #00335B",
"-  c #002A65",
";  c #013977",
":  c #003865",
">  c #00447B",
",  c #6D3D55",
"<  c #023C83",
"1  c #044987",
"2  c #13569A",
"3  c #074E94",
"4  c #0854AA",
"5  c #1165B0",
"6  c #2273BD",
"7  c #2E5CDC",
"8  c #2E5CD5",
"9  c #315DDB",
"0  c #0F71CF",
"q  c #3B6BCE",
"w  c #3462D4",
"e  c #3362DD",
"r  c #3C6CDC",
"t  c #3967D8",
"y  c #2D74D1",
"u  c #2E5FE2",
"i  c #325FE2",
"p  c #2D5EFE",
"a  c #2C5FF4",
"s  c #315EFE",
"d  c #2E62E2",
"f  c #2F64E9",
"g  c #3364E3",
"h  c #3C6AE3",
"j  c #3465EC",
"k  c #3A69E8",
"l  c #2E62F6",
"z  c #2E62FC",
"x  c #2F68FF",
"c  c #3265F6",
"v  c #3B6BF4",
"b  c #3264FC",
"n  c #3B65FC",
"m  c #356AFC",
"M  c #3B6CFC",
"N  c #366AF5",
"B  c #3C72FC",
"V  c #3E75F6",
"C  c #3E72E4",
"Z  c #0F74D7",
"A  c #4A76CC",
"S  c #4A76CC",
"D  c #537BCE",
"F  c #426CD3",
"G  c #416BDE",
"H  c #4067DE",
"J  c #4976D8",
"K  c #537DD6",
"L  c #426CE3",
"P  c #416EEA",
"I  c #4B75E4",
"U  c #4775E7",
"Y  c #537BE5",
"T  c #587CE9",
"R  c #416EF8",
"E  c #4472F5",
"W  c #4B73F5",
"Q  c #4373FC",
"!  c #4B75FA",
"~  c #437AFB",
"^  c #4C7BFD",
"/  c #447BF4",
"(  c #537DFC",
")  c #557DF7",
"_  c #947991",
"`  c #799EB6",
"'  c #729CBE",
"]  c #799EB9",
"[  c #769BB6",
"{  c #7D9BA5",
"}  c #7DA2B6",
"|  c #76A1BC",
" . c #7DA2BA",
".. c #3387D9",
"X. c #2E91ED",
"o. c #258DE5",
"O. c #5681C6",
"+. c #5C85CB",
"@. c #5C86C9",
"#. c #5985D6",
"$. c #5599D7",
"%. c #4A90D5",
"&. c #638CC5",
"*. c #638CCB",
"=. c #6690C5",
"-. c #6C94C4",
";. c #6E99C3",
":. c #6B94CB",
">. c #6793CA",
",. c #729CC3",
"<. c #759CC9",
"1. c #638BD5",
"2. c #6995D8",
"3. c #729CD4",
"4. c #75A1C2",
"5. c #7BA5C5",
"6. c #7EA8C2",
"7. c #7BA5CB",
"8. c #78A5D5",
"9. c #5985E6",
"0. c #4D83FC",
"q. c #4B83F7",
"w. c #5483FD",
"e. c #5B83FC",
"r. c #548CFB",
"t. c #5B8BFD",
"y. c #5788F6",
"u. c #5C92FD",
"i. c #5B94F7",
"p. c #4A95EB",
"a. c #6789EA",
"s. c #6B95E7",
"d. c #7796ED",
"f. c #648BFD",
"g. c #6B8EFC",
"h. c #6287FA",
"j. c #6D92FD",
"k. c #659CFC",
"l. c #699DFC",
"z. c #6299FB",
"x. c #7394FD",
"c. c #759AFD",
"v. c #7B9CFE",
"b. c #7A98F3",
"n. c #718FF1",
"m. c #56A9F7",
"M. c #5AB1FE",
"N. c #51A5F1",
"B. c #6CA3FC",
"V. c #69A5F9",
"C. c #74ABFD",
"Z. c #7BAEFD",
"A. c #77A5FC",
"S. c #68B7FB",
"D. c #7CB2FE",
"F. c #76BCFD",
"G. c #6AB2EC",
"H. c #7AC3FC",
"J. c #82A5B5",
"K. c #81A6B9",
"L. c #85ABBC",
"P. c #89ABB9",
"I. c #8BA4B0",
"U. c #909DB0",
"Y. c #83ABC3",
"T. c #85ADC6",
"R. c #91BFD2",
"E. c #8AB5CC",
"W. c #829EFC",
"Q. c #87A3EE",
"!. c #83A3FF",
"~. c #8CABFE",
"^. c #89A6F9",
"/. c #93ADFE",
"(. c #94ADF6",
"). c #8EBCF3",
"_. c #84B7FC",
"`. c #85BAFD",
"'. c #8ABCFC",
"]. c #86B8F5",
"[. c #94B2FF",
"{. c #9BB4FD",
"}. c #99B8F8",
"|. c #8ABDEC",
" X c #A4BCFE",
".X c #A5BAFD",
"XX c #95C1CF",
"oX c #94C1D3",
"OX c #99C3D4",
"+X c #95C2DC",
"@X c #9AC5DB",
"#X c #9DCADD",
"$X c #A0CDDA",
"%X c #9DCCE3",
"&X c #94C2EA",
"*X c #9BCBEB",
"=X c #99C5E8",
"-X c #9ED1EA",
";X c #8DC4FD",
":X c #88C6FB",
">X c #94C3F3",
",X c #92C5FC",
"<X c #95CAFC",
"1X c #9ACCF7",
"2X c #9CD3FC",
"3X c #9AD3FA",
"4X c #8FD1FF",
"5X c #A6D5E9",
"6X c #ACC3FE",
"7X c #A6C4FC",
"8X c #B4CBFE",
"9X c #BACDFE",
"0X c #B3C5FE",
"qX c #A3D5FC",
"wX c #A4DAFD",
"eX c #ABDDFC",
"rX c #A6D6F4",
"tX c #BDD3FE",
"yX c #B6D9FD",
"uX c #A0CFE3",
"iX c #ACE1FB",
"pX c #B7E5FC",
"aX c #BFE3EF",
"sX c #C3D4FE",
"dX c #C4DAFD",
"fX c #CBDCFD",
"gX c #CADBF9",
"hX c #D3DEFE",
"jX c #D0DFF6",
"kX c #C0CFFA",
"lX c #CCE4FE",
"zX c #CCEBFF",
"xX c #C5E6FA",
"cX c #D4E4FE",
"vX c #DBE5FE",
"bX c #D4EBFE",
"nX c #DBEBFE",
"mX c #D6E8F5",
"MX c #DDF2FF",
"NX c #D4F1FF",
"BX c #CEF1FF",
"VX c #E3ECFE",
"CX c #E1E7FF",
"ZX c #E2F2FF",
/* pixels */
"OXOXXXXX$XOXOXOX$XXX+XoX#XOX+X#X@XOXOXOX@X@X+X@X+X+X+X+XR.=XR.@X@XOXOXR.OXR.@XOXR.R.R.R.R.R.XXXXR.R.R.R.R.R.R.R.R.oXR.R.R.R.OXR.oXoXR.R.R.R.XXR.XXR.R.R.XXXXXXR.R.OXOXOXOXOXOXOX@X@X@XOX@XOX@XOX#XXX#XE.",
"$X$X$X$X$X$X$X$X$X$X$XuXuXuXuX#X#X$X#X#X#X#X#X#X#X@X@X@X@X%X#XR..XR.@X@X$XR.@X@XR.+X+XOXOX+X+X+X+X+X+X+X+XOXR.&X&X+X@XR.|.@XR.+X+X+X+X+X+X+X+X@X@X@XR.$X@XOX$X$X@X@XOX@X@X@X#X@X#X#X#X@X#XuX#X#X$X#X$XXX",
"5X$X$X5X5X5X5X5X5X-X5X5X-X5X-X-X%XuXuX%X%X%X%X%X*X%X%X=X=X%X=X=X%X=X=X=X=X=X}.=X&X&X&X&X&X&X&X&X&X&X&X|.=X).&X|.|.&X|.=X).=X>X).&X&X&X&X&X&X&X&X=X=X}.$X=X=X=X=X#X#X%X=X%X#X%X%X%X%X%X%XuXuXuX%X-X$X5XXX",
"aX5XaX5X5X5X5X5X5XrX5X-XrX5X5X-X-X-X%X-X-X*X*X%X*X*X*X=X>X*X*X&X=X>X7X}.}.=X).).&X>X).;X).>X:X|.).).).).).).).).).).).).).).).).|.).).:X:X).).).}.&X).).}.>X*X>X}.=X=X*X*X*X*X*X*X-X%X-X-X%X-X5X5X-X5X#X",
"aX5XiX5XiX5X5XrXrXrXrXrXwXrX-X3X5X-X3X5X-X-X*X*X1X1X1X>X<X>X,X,X,X,X,X;X>X'.'.'.'.'.'.'.'.`.`.`._.'.].'._._.].'.].].].].).].].].]._._.`.'.'.'.].'.'.:X'.).;X;X).>X,X>X>X,X1X1X1X*X1X1X*X1X-X-XrXrX-XrX=X",
"iXiXiXiXiXpXeXeXeXwX2XqX3X3XrX3X3X3X3X1X<X<X<X<X<X,X,X'.,X}.'.'.'.`.'.`.`._._.`._.D.D.D.D.D.D.D.Z.Z.D.Z.Z.Z.Z.D.Z.Z.D.C.Z.Z.!.Z.Z.D.D.D.D.D._.D._._.].].'.`.:X].'.'.,X'.;X;X<X,X<X<X1X1X1X3X2X2X2X3XqX=X",
"iXiXiXrXrXrXqX2X3X3X2X<X1X<X3X<X,X>X>X:X;X:X`.`._._.D.D.D.Z.Z.Z.C.C.C.G.G.C.C.V.V.B.B.V.B.B.B.k.k.V.k.V.l.V.k.V.l.l.V.k.l.V.l.k.V.k.k.V.V.V.V.V.V.C.V.C.V.C.C.C.Z.Z.D._.!._._._.`.`.`.;X;X;X;X<X<X>X2X|.",
"wX3X3X3X2X2X<X<X<X<X,X;X;X:X].:X|.F.D.D.Z.Z.D.C.A.C.C.B.B.B.l.l.z.V.s.z.z.i.z.i.i.i.i.r.r.r.i.r.y.y.y.r.y.r.y.y.r.y.y.i.y.r.r.r.y.p.y.i.r.y.i.i.i.i.z.i.z.k.V.i.l.l.l.B.B.B.C.C.C.C.Z.D.D.D.D.`.'.].,XZ.",
"2X<X<X;X,X;X;X;X'.`.`.D.D.D.Z.C.C.B.B.B.B.k.k.k.z.z.z.z.u.t.t.t.y.r.r.p.0.q.q.0.0./ 0./ / ~ / ~ Q X.V V V V V Q ~ ~ B V 0.V 0.V E / / / / / / / / q.q.0.0.r.r.w.w.r.t.t.u.z.z.z.l.l.l.B.B.C.C.A.Z.^.Q.Z.",
";X;X;X:X`.:XD.D.D.D.C.C.C.C.B.B.B.k.z.u.u.u.t.r.w.w.( ^ 0.^ ^ ^ V V ~ B Q B V V B B B B M M M m m m m m m m m m x m m m x x m x M M v B N B B v B B B B B V B Q ^ ^ ^ 0.0.w.w.w.t.r.t.u.u.z.z.z.V.V.V.l.",
"`.D.D.Z.D.C.C.B.B.B.z.z.u.u.u.u.r.w.0.0.0.^ ^ ~ Q ~ Q Q M M M m m m m m m b s b b p z p a s s a s p p p x p s s z p z z p z x z p a s s l s b s l l z m m m m m m M M B B Q Q Q ^ ~ ^ ~ 0.w.w.r.y.i.i.y.",
"Z.C.C.B.B.B.k.z.u.u.r.r.r.0.0.0.^ ~ Q Q B B M M M m N m m m b c s z s z p s s s s s p p s s s s p b p p z z s s z p p p p p p z a s s p p p p p p p p p p x s p c c c c c m M N M M M B Q Q ~ ~ ^ q.q.q.",
"B.B.u.u.u.u.r.r.0.0.0.0.0.X.Q Q M M m m m m b c l l c l l c p p p s s s s s s n b n m n n n n n n n n n R R s R s R R n m n s n n N n n n b n m s s s s p p s p p a l l l l N l b c N m m m M M V E E V ",
"u.u.u.r.w.w.0.~ V B B B m m m m m b b z p b l l a a l p l s c l s b b n n n M m n R R v R E E E W W W W W W ! ! ! W W W W W W W Q ! W R R R R M n M n n n m n s c l c l l l l l l l p z p c z c m N N N ",
"r.0.q.q.X.Q V V B m m m z z z z s z p p l b b p b b m m M M M M Q Q Q ! ^ ^ ( w.( q.e.y.y.e.h.i.g.g.g.g.g.j.g.g.x.g.g.g.g.g.g.g.f.f.t.e.e.e.w.w.^ 0.( ! W Q Q Q M B M M N m b b l b z p z z p p l z l l ",
"0.0.V V V B B N m x x z z z p p z l l p b m m n M M M Q Q Q ^ ^ ( e.( f.f.f.j.j.x.c.c.b.A.!.!.^.^.^.^./.~.~.~./././.~./.^././.^.!.A.!.A.v.c.c.x.j.j.f.f.h.e.e.) ^ ! ~ E Q E B M m n m m m s c s a a l f ",
"B B B B x x x x z p z p p z b b b N N M M R Q Q Q ( ) ) h.h.g.g.x.W.W.!.!.^.~./.{.{.}. X7X7X7X6X0XkX0X9X9X8XyX9X8X8X9X9X9X9X0X0X6X6X7X.X X{.{.[.[.~.~.!.!.W.v.x.j.j.n.h.h.) ( ^ ! Q R n v n n n c b s u ",
"B m N x x x x z z z z z z z n n v v E Q W ^ ( e.e.f.g.x.b.W.W.~././.{. X.X6X0X9X9XtXsXsXsXdXlXhXhXhXhXhXcXbXlXlXzXzXlXbXcXhXhXhXhXfXfXfXfXsXsXsX0X0X6X6X.X}.{./.Q.^.b.A.x.g.g.f.) ( ( ^ ! E R R N v v a ",
"x x N x l z z z z z m n m M R R Q ! ( w.t.f.j.x.v.A.^.~./.{.{.7X.X0XtXtXgXlXmXmXvXvXCXVXVXVXVXVXZXZXVXZXZXMXMXMXMXMXZXZXZXZXVXVXVXVXnXZXvXvXvXcXhXjXgXfXsXtX9X8X6X7X}.[.(.~.!.A.v.j.f.e.( ( ! W R R R j ",
"c c l l l x x x m m m m M Q Q ( ( e.e.j.j.v.!.!.~.[.{.}.0X8XtXtXfXfXcXmXmXmXmXMXVXVXVXVXZXVXMXnXnXNXcXnXbXBXBXzXzXzXBXzXzXbXMXnXNXMXMXMXZXZXVXVXVXmXnXnXmXlXmXgXdXyX8X8X6X}.[.[.~.^.v.v.j.g.h.( ) ^ W k ",
"z c l z x x x m m M R E ! ( ( e.f.j.x.v.!.~.[.}.7X7X9XtXdXlXcXcXnXnXnXMXMXMXMXNXNXzXzXxXxXpXpXiXeX2X2X2X3X2X3X3X1X<X2X<X2X2X2XiXiXiXpXpXpXBXBXBXnXMXMXVXVXnXVXvXcXlXlXdXsXtX6X7X.X[./.~.W.v.j.f.e.e.) U ",
"l l z z x x m m B E Q ( ( e.f.g.c.v.!.~.[.{.7X8X9XtXgXmXcXnXnXnXZXnXMXMXNXBXzXpXpXiXwX4X4X:XH.G.G.G.G.$.$.$.$.@.$.$.$.$.$.G.G.m.G.G.H.H.4X3X2XiXpXxXzXbXMXVXVXVXnXMXnXnXcXfXdXtX0X6X X[./.~.W.v.j.f.h.W ",
"z z z m m m B B Q ! ( ) e.j.x.x.!.~./.{. X6X9XtXgXmXmXmXnXnXCXVXnXnXbXxXpXiX2X4XH.S.M.m.p.....y y 5 5 2 2 2 2 3 2 3 2 2 2 5 5 5 y ....p.N.M.S.H.4X2XwXyXlXnXnXvXVXZXvXVXvXmXmXgXgX9X8X6X.X{./.!.v.x.g.a.",
"x x m m m M B B ! ^ ) y.g.j.v.v.~./.{. X8X9XgXxXmXmXmXVXVXVXVXVXmXmXyXyX2XH.H.M.m.p.X.y 8 5 2 3 > : - - - - % % % % % % - : : > 1 3 2 5 0 o.X.N.M.S.:X<XqXtXgXmXVXVXCXZXVXmXmXmXjXgXtX8X.X.X/./.!.A.x.a.",
"N m x m M B B Q ^ ( e.y.j.c.!.!./.{. X6X9XsXgXjXmXmXVXVXVXVXCXCXgXtX8X<X:XS.m.X.Z Z 0 4 < < * $ @ + + O O O O X X X X O O O @ @ $ * - < 3 5 Z Z X.X.M.H.;XqXyXdXcXvXVXVXVXVXVXCXjXjXgX9X0X.X{./.~.W.v.a.",
"z x m m M M Q Q ^ ( e.g.j.c.!.~./.{.7X8X9XsXfXmXvXvXVXVXVXCXCXhXdXyX<X:XS.m.X.o.0 0 4 < ; % & + o X . . . . .   . . . . . . . X + # & - < 4 4 0 o.X.N.S.F.<XwXyXfXhXCXCXVXVXCXCXcXhXsXkX9X0X.X{.~.!.v.a.",
"z m m m m Q Q Q ^ w.e.f.x.v.W.~.[.}. X6X9XsXfXhXCXCXVXVXCXvXvXhXsXyX1X`.M.m.X.o.0 0 4 1 - & # o X . .       .               . X o + # = < 3 5 0 Z o.X.M.F.;XqXyXsXhXhXVXVXVXCXCXhXhXsX9X8X6X{.[.~.!.v.a.",
"m m m m m Q Q Q ^ ^ e.f.g.c.v.!.~.[.}.6X8XkXsXhXvXCXVXVXCXvXvXcXfXyX8X4XH.M.N.X.o.Z 5 2 1 : & # + + O o X . X . . X X X o o o + # & = > 1 4 0 o.X.X.M.S.:X2XeXaXhXvXCXCXCXCXCXmXhXfXsX9X6X X{.[.~.v.v.a.",
"m m m m m M Q Q ! ^ ( e.f.g.x.v.~._.{.7X6X8XsXfXhXhXhXCXvXCXnXcXmXxXaX5X4XH.H.m.N.X.o.0 5 2 3 > > = = & & & & & $ $ & & & = = = > 1 3 5 5 ..X.X.M.M.H.4X-XiXaXxXcXcXnXnXvXvXhXhXhXkX9X0X7X{.~.~.A.x.x.a.",
"b m m m M M M Q Q Q ( ( h.f.g.x.A.!._.[.{.7X0XkXsXsXgXmXnXnXMXNXmXmXzXxXpXiX4X4XD.S.m.p.X...y 6 5 2 2 2 3 3 > > > > 1 3 3 2 2 5 6 y ....p.m.S.F.H.4XwXiXxXxXmXmXMXnXbXnXmXhXhXsXkX9X.X.X{.~.~.!.c.j.j.T ",
"b N b m n m M R R Q ! ( ( ) h.g.j.c.A.^./.{..X.X9XkXkXjXlXcXbXbXNXMXNXbXbXzXxXpXyXqXqX,X:X:XZ.G.V.N.3.$.%.%.%.%.%.%.%.%.p.$.G.N.S.S.H.H.4X4XwXeXyXdXBXzXcXnXnXcXNXmXmXxXjXgXkX0X.X.X.X/.~.A.v.x.g.f.h.I ",
"c m N b m m m M n m R R ! ( ( ( f.f.n.c.A.^./.{..X.X0X0XtXdXdXdXlXbXcXvXnXZXvXcXcXlXfXlXyXeXeXqXqX3X2X4X;X;X:X;X;X;X,X,X<X<X1XrX2X2XiXpXpXpXlXzXcXnXnXbXnXvXvXcXlXxXgXkX9X9X.X.X.X/.^.W.v.x.g.f.h.( ) L ",
"B M m m m m m m m m M M B Q Q ^ ( ( h.f.j.x.v.W.W./.{..X.X.X0X9XtXsXgXhXhXhXvXvXvXvXnXcXnXbXnXbXlXlXzXxXzXzXxXlXxXzXzXzXzXlXxXzXnXbXbXbXcXnXnXnXvXvXcXhXfXfXsXsXsX9X0X.X.X{././.!.v.x.g.g.h.e.) ! ^ E P ",
"B B N N m m m c n m m m M B B Q ! Q ( ) e.e.f.j.x.W.W.W././.{.{..X.X0X.X0XkXsXsXfXgXhXhXcXcXcXcXcXlXcXcXcXcXcXbXcXcXcXcXcXbXcXcXjXjXfXcXhXlXgXgXsXsXtX9X0X0X.X.X.X{././.^.W.v.x.n.f.h.e.( ( ! ! E E R v ",
"V V V N N N N l m N c N m N M v v R E E E W W 9.T T T n.n.n.b.W.Q.Q.Q.(.(..X.X.X.X.X.X0X8X9X9XtXtXsXtXtXkXsXkXkXtXsXsXtXsXsXtXtXtX9X9X9X0X8X6X6X.X.X{.(.(.(.^.Q.W.b.b.n.n.T T T ) W W E E E R v v v v j ",
"/ / / C V v V N j N N j j N j N j j v k k k C C L T Y Y T T T a.a.a.s.d.d.d.b.d.Q.Q.Q.(.(.(.(.(.(.(.}.}.(..X.X{.}.}.}..X}.(.}.}.(.(.(.(.Q.Q.Q.Q.Q.Q.b.b.d.d.a.a.a.T T T T T I W U C C k v j j j j N j y ",
"q.q.9.C P P V C v v k k k j g j j j f f f k k k k L L L L U U I I I I 9.K 9.T a.a.a.a.a.n.a.n.a.d.d.d.Q.n.d.Q.W.d.Q.d.W.d.d.d.d.n.d.a.a.a.a.a.a.9.9.9.T T 9.I I I I U L L L L k g k g j f f f f i j j 9 ",
"9.9.9.p.%.q.U U U L C k k k g g g d d d d d d d i i i i g j j h h r r r L L G G L I J I K Y Y Y K T T T T T T T T T T T T T T T Y Y Y K I I I I I L L L P k h h h j j g i k i i d g d d d d d d g j h e ",
"i.s.#.9.9.9.p.9.U U U U L L L L C g g g g g g d d g j i d g d d e e d e e w w e h t i h L h L L L L H L H H H L H H L L H L H H L i h h L h i i g g g g g g u u u u d u d d u d d d g g g g g h C C L r ",
"3.2.s.$.2.#.9.#.9.#.9.9.Y J I L C C r r r r r e e g g i d g g d 7 7 7 7 d d 9 d i 9 9 i 9 9 9 9 9 9 9 t 9 H 9 9 9 9 L 9 9 t H 9 i i i 9 i 7 7 7 i 9 i 7 i 7 u 7 u u 7 u g e e e g y r r y C C U J J I J ",
"G.8.3.2.2.s.2.$.1.1.9.#.9.K Y K %.Y J J I G J r t r r h g e e e e e w e w e 9 8 8 8 8 9 9 8 9 9 8 8 8 8 8 8 8 8 8 8 8 8 8 8 8 8 9 9 8 8 9 9 9 9 8 9 9 9 g 9 e e g e e r r r r r G J G J J K I K K %.#.#.",
"8.8.8.8.8.8.2.8.2.2.2.s.a.1.1.1.#.#.#.#.#.K K J J J J J J G F r q r q y t t t t t t t w 9 9 9 q w w w w w w w w w w 8 8 w w w w 9 t 9 9 F 9 H 9 t 9 t t t t r H r G r G G J J J A J J D K K #.#.#.#.@.%.",
"8.8.8.8.8.8.8.8.3.3.3.3.2.2.2.2.2.1.1.1.1.#.#.#.#.#.#.#.K K K J A J J A J A F F F F F F t F q t q q q q q q q q F q q q q q q q q F F q F F F F F F A J J J J J J J D K K K #.D #.#.#.*.1.1.1.1.>.>.2.>.",
"E.E.E.8.T.7.7.7.8.7.8.3.3.3.3.3.3.:.:.:.:.:.2.>.1.*.#.@.+.#.+.#.+.#.D D O.D D D D D D D D A D A A A A A A A A A A A A A S S S S S S D S D D D D D D D D D D D D +.+.#.+.1.*.*.$.*.1.>.:.:.<.3.<.3.<.<.;.",
"E.6.T.6.T.6.6.6.Y.7.5.<.<.3.<.<.<.<.<.<.<.<.:.<.>.:.>.>.>.>.*.*.*.*.@.&.*.@.@.@.D &.+.+.+.O.+.O.O.O.O.O.D D &.O.O.D ' D O.S O.O.O.O.O.O.@.@.+.@.&.&.D &.&.&.*.*.>.=.=.=.>.>.>.;.<.-.,.<.:.<.<.<.,.<.,.' ",
"E.E.T.E.E.T.T.T.Y.Y.Y.Y.Y.Y.Y.7.Y.4.<.4.<.<.,.,.<.4.4.;.;.,.,.,.-.-.-.-.-.-.-.=.-.&.>.=.=.*.&.&.&.&.&.&.-.D &.&.&.' D D &.' O.' &.@.&.&.' &.&.&.=.=.-.-.=.-.=.-.;.;.=.' ;.,.,.4.,.,.<.<.<.5.7.4.7.7.Y.' ",
"E.E.E.L.P.E.T.L.Y.K.L.Y.Y.Y.Y.Y.Y.7.5.4.5.5.7.4.5.4.4.| 4.' ,.,.,.,.,.,.;.,.,.;.;.;.-.-.-.-.-.-.' D [ [ -.-.-.&.' ' -.-.&.&.' ' &.' ' ' ' &.;.' ' ;.' ' ;.,.,.,.' ' ' | 4.4.4.5.4.4.4.4.6.4.5.5.Y.Y.Y.,.",
"T.Y.L.E.P.P.L.L.P.P.L.L.L.L.K.Y.Y.5.6. .6.Y.6.6. .|  .| | | ] ] 5.| ] ' 4.,.,.' ' ' ' ' ' ;.4.' [ ' ' [ -.[ [ &.' [ [ -.' ' ' ' ' ' ' ' ' ' ' ' ' ' ' ' ,.] ] ] | | | | | |  .| Y.6.Y.6.Y.Y.Y.Y.Y.Y.K.J.",
"P.L.J.P.P.P.P.P.P.P.P.P.I.P.P.} K.K.K.K.K.K.K.K.J.] J.] K.] K.] K.] ,.K.] ] ,.K.] ] [ ] ] ] ] ] [ [ [ ] ] ] ] [ ] ] ] ] ] ] ] ] ] ] ] ] ] K.] ,.K.] ] K.] ,.K.,.K.] J. .K.]  . .}  .K.K.K.L.P.P.` P.U._ ",
"L.J.J.} { I.I.{ { I.P.P.I.P.P.P.K.J.K.K.J.K.K.K.J.J.] J.J.J.J.[ K.J.J.] J.J.K.K.K.K.] J.] K.J.J.[ J.` J.K.J.] ] [ ` [ [ [ ] [ ] ` ] ` [ ] K.J.] J.] K.] K.] J.J.J.J.] J.` J.J.J.J.J.J.J.J.J.J.U.P.U._ , "
};
