/* XPM */
static char *_1674931415[] = {
/* columns rows colors chars-per-pixel */
"100 50 108 2 ",
"   c #FD6F9A",
".  c #FB7596",
"X  c #F77E93",
"o  c #FB7C94",
"O  c #FB739A",
"+  c #FA7A98",
"@  c #7FFECD",
"#  c #7EFED2",
"$  c #7BFFD8",
"%  c #F6848E",
"&  c #F9858E",
"*  c #F58C8E",
"=  c #FB8C8E",
"-  c #F5938E",
";  c #FA948E",
":  c #F59C8D",
">  c #F99C8E",
",  c #F78392",
"<  c #FB8392",
"1  c #F68C90",
"2  c #FC8B91",
"3  c #F69690",
"4  c #FA9491",
"5  c #F69B91",
"6  c #FA9C91",
"7  c #EFA78F",
"8  c #EFAE8D",
"9  c #F4A48E",
"0  c #F9A28F",
"q  c #F2AC8E",
"w  c #EDB38F",
"e  c #E6BD8F",
"r  c #EBBB8F",
"t  c #F1B28E",
"y  c #EEAE90",
"u  c #F5A491",
"i  c #F9A391",
"p  c #F3AC91",
"a  c #F9A991",
"s  c #EDB492",
"d  c #E7BC92",
"f  c #EBBC92",
"g  c #F2B292",
"h  c #F0BB93",
"j  c #BDE59F",
"k  c #8FFBBF",
"l  c #9EF7B6",
"z  c #9CF8B6",
"x  c #9DF6BA",
"c  c #95FABD",
"v  c #9AF9BB",
"b  c #AEEFA5",
"n  c #AEEEAC",
"m  c #BDE6A4",
"M  c #B5EBA6",
"N  c #BBE9A4",
"B  c #B5E7A8",
"V  c #BDE6A9",
"C  c #B3ECAA",
"Z  c #B9E9A9",
"A  c #A9F2A6",
"S  c #A6F3AD",
"D  c #ACF1AD",
"F  c #B1F0AA",
"G  c #ACEFB2",
"H  c #B1EDB2",
"J  c #A4F4B3",
"K  c #ABF1B2",
"L  c #A1F8B4",
"P  c #A3F5BA",
"I  c #A2F8BB",
"U  c #DEC793",
"Y  c #DDCC95",
"T  c #DDCE99",
"R  c #CEDB97",
"E  c #C6DF9E",
"W  c #CCDD9D",
"Q  c #D5D696",
"!  c #DBD296",
"~  c #D4D997",
"^  c #D6D59B",
"/  c #DAD29A",
"(  c #D2DA9C",
")  c #D8D89C",
"_  c #E6C08F",
"`  c #E5C494",
"'  c #E9C394",
"]  c #E2CA95",
"[  c #E6C698",
"{  c #E2CB99",
"}  c #E0D09C",
"|  c #C5E29E",
" . c #C9E19E",
".. c #C6DFA2",
"X. c #CCDDA2",
"o. c #C3E3A2",
"O. c #CAE1A1",
"+. c #C0E4A9",
"@. c #87FEC6",
"#. c #8CFDC4",
"$. c #83FDCD",
"%. c #8AFDCA",
"&. c #9BF7C0",
"*. c #92FBC3",
"=. c #99FAC1",
"-. c #91FDC9",
";. c #82FDD2",
":. c #88FDD0",
/* pixels */
"$ $ $ $ $ $ $ $ $ $ ;.$ ;.;.$ ;.@ @ # @ ;.@ ;.# ;.$.# # ;.;.:.;.;.;.$.$.$.$.@ k $.$.$.;.$.$.$.$.:.$.;.$.&.# ;.;.:.:.:.;.:.$.:.:.:.;.;.$.$.;.$.;.# ;.# # # # # $ # # # # # # # # # @ @ $.@ @ @ @ # # # @ ",
"$ $ $ $ $ # $ # ;.$ $ $ $ ;.;.$ # # # @ ;.# ;.;.;.# ;.;.;.;.:.;.;.;.;.;.$.;.# # $.$.$.$.$.$.$.$.$.$.;.:.;.;.:.;.:.:.:.;.$.$.%.;.:.:.:.$.$.$.;.;.;.;.;.# $ $ # # # # # # # ;.@ # # # @ @ @ # @ # # # # # ",
"$ $ $ # $ # # # ;.$ ;.;.;.;.;.;.# # # ;.;.# ;.;.# ;.;.;.;.;.;.:.:.;.;.# :.$.$.$.:.$.;.:.:.:.:.$.$.:.$.:.:.;.:.:.:.:.:.:.# &.%.;.:.%.;.%.:.$.;.;.;.# ;.# ;.;.;.;.;.;.$ ;.;.# ;.# ;.$.;.$.;.# @ @ # # # # ",
"@ @ # # ;.# # # # ;.;.# $ ;.$ ;.@ # ;.# # ;.;.;.;.;.;.;.;.;.;.;.;.:.;.k :.$.$.:.$.:.:.:.:.:.:.$.:.:.$.:.:.;.:.;.:.:.:.:.:.;.;.%.;.%.$.;.;.$.;.:.:.:.;.;.;.;.;.;.;.# ;.;.# $.# ;.# ;.# ;.$.$.;.$.# # # # ",
"@ @ # @ $.# @ ;.@ $.;.$.;.;.;.;.;.# ;.;.;.;.;.;.;.;.;.;.;.;.;.;.;.;.$.;.:.# :.k %.%.:.:.%.%.:.:.k ;.;.:.:.%.:.&.%.:.:.:.:.:.:.:.$.%.:.;.$.$.$.;.;.;.;.;.;.;.;.;.;.;.;.;.;.;.$.;.;.;.;.$.;.$.;.;.@ # # # ",
"# @ $.@ $.@ ;.@ ;.;.$.;.;.;.;.;.# ;.# ;.;.;.;.;.;.;.;.;.:.:.;.:.:.%.%.%.&.# :.;.%.:.%.%.:.:.-.-.:.k &.;.%.%.:.:.%.%.%.:.:.:.:.&.%.%.%.$.:.:.%.:.:.:.:.;.;.%.;.;.$.;.:.$.$.;.;.;.;.;.;.;.;.;.;.;.# # @ # ",
"@ @ $.@ @ @ ;.@ $.# ;.@ @ ;.;.;.;.@ ;.:.:.;.:.;.:.;.;.$.:.:.;.;.k :.$.%.:.k &.@ %.%.:.%.-.-.-.-.k $.k ;.%.%.%.;.*.:.:.%.:.:.:.*.%.%.%.%.%.%.%.:.:.:.:.$.$.$.$.$.$.:.$.$.$.$.$.;.;.$.$.;.;.;.;.;.# @ # # ",
"@ # @ # # @ @ ;.$.@ @ ;.@ $.;.$.$.;.:.;.;.:.:.%.:.%.%.:.;.:.&.:.%.k k $.&.:.k &.*.#.&.*.*.&.-.-.&.%.&.k &.k &.k *.&.*.*.&.&.%.*.-.#.-.-.-.%.-.%.%.@.#.@.%.%.%.%.@.$.$.$.$.%.$.$.$.$.$.$.$.$.$.;.@ @ # @ ",
"# @ # @ # @ # $.# # @ ;.;.@ ;.$.$.@.$.@.%.@.#.%.%.%.-.%.-.-.-.-.&.x &.*.=.-.=.=.c &.&.v &.&.&.=.&.&.&.&.&.&.&.&.&.k &.&.&.&.&.*.=.=.-.=.*.*.#.*.*.*.*.#.#.#.#.#.@.@.@.@.@.@.@ @.$.@ $.@.# $.@ @ @ @ $.@ ",
"# # # ;.$.# $.$.$.$.;.%.%.%.%.%.#.#.#.#.#.-.-.-.*.*.=.c =.=.=.I &.x x x x I I I P P P P P P P H P P P P P P P P P P P &.x x P P x x x x x x x x c c c c c c c c #.k k #.#.#.@.@.@.@.@.$.@.$.$.$.$.$.$.@ ",
"$.# ;.;.;.$.$.$.%.%.%.%.%.@.%.*.*.c c c c c v v l x P P P P I I G G G G G G H K K H H H H H H H H H H H H H G H B H H H G G G G G K G G J K P J L P x x v v v v c c c c c k c #.#.#.@.@.%.%.$.@.@.$.$.@.",
"$.$.$.$.$.%.%.%.#.#.#.*.&.*.&.c v x x l P P P K J G K H F H F F B B B B Z Z Z Z V V +.+.+.+.+.+.+.+.V +.V V V V B B V B V Z Z Z V H B H H B H n G n K K D J D P L z z z z v c c c *.#.#.#.#.%.#.$.@.$.$.",
"%.%.%.#.%.#.*.#.c k c z x z x l J K K K K G n C M Z Z V o.+.o.o.+.....+.....O.X.O.X.X.X.X.X.X.X.X.X.X.X.X.( X.X.X.X.O.X.X.X.+.X.....+...+.+.V V V M M C C C F D A S D J J J I x x v v *.*.*.-.*.%.%.%.@.",
"#.%.*.#.*.*.c x x l l l J S S S D b C C M M V m +.o.o.O. .R O.O.X.X.( ( ( ( ^ ) ) ) ) Q } } / Q } / / } Q ^ ) ^ ) ) ) ~ X.) ) X.( ( X.( W X.X...o.o.o.V N N V N C C n b n D K K L I x v v v c =.#.#.%.#.",
"*.#.*.=.v v x l l S A A A A A A M M N m m m o.|  .W ( ( ~ ~ ~ Q U ^ T ! T ! Y ! Y U Y ] { U ] ` ] ] [ U Y U Y U T Y Y Y ! Y / / T ! Q ! / ^ ^ ( ( E W E o.| | o.j M M B C C D K K K I I I l v c #.#.%.#.",
"v v v x l l J J S A b b b b M j m | o.o.| W W ( ~ ~ ~ ! ! ! ] ] U [ ` ] [ ` ` ' d ` f _ f f ' f f f f f f r ' d ' d ' _ _ ` ` ' ` ] ] Y ] ] T T ^ Q ^ ( ( ( W O.| j j m m N M C F H K K P L P x c =.*.*.",
"v x P J K K n C b b N N o.o.o. .O.( ( ( ( ) / T ] ] ] ' ] ' _ ' ' h f f h g s s g t g q g p p y p a p a a p p g p g t t t g g h r r r r r ' ' ` ` ] Y Y / / / Q ^ ( W W  .| o.m j B M C F D S P L x z v ",
"L J J K C C C N N j | |  . .( ) ) ) Q Q / { ] [ ' ' ' h h ' r t g g q q g p q 8 a i i i i 5 i 5 6 i 6 i i i i i i 0 0 0 a a a a 8 8 8 t h t h s f f ' [ ` U { } ^ ^ ^ ^ ( W W E | | o.N M C D D K J J J ",
"J J K n F Z N +.j | |  . .~ ( ) ) ! ! T Y { [ ' f f w w t t t t a a 7 7 i 9 : : > : : 5 6 4 5 3 3 3 4 3 3 3 ; : > > : : : 0 0 0 7 7 8 q q w q s w s e d ` ` ' [ U T ^ ^ ( R W W W W o.o.V C b n n J J J ",
"G n n C Z N N | |  . . .R ~ ) ) / } U U ` d d d f w t t t q q 9 9 0 : - : : : - - - * 3 1 1 1 1 1 1 1 1 1 * * * * - * - - - - - : : : 0 9 9 q q 8 8 w w s d d [ [ U T T Q ^ ^ ( W W W | +.N B C n n S S ",
"C C C N +.o.O. . .( ( ( ~ } } ' U ` ` d d s s w q q q 0 9 : : : - - - - ; * 1 1 * * < , , , , , o , , , , , , , % % & & & * * * - - - 3 6 5 6 5 7 7 8 y y s s d d d { T T T ^ ^ Q ^ ( X...+.m B C C n G ",
"C C N N o. . . .~ ( ( ~ } ] ] ' [ d e d s s y y a 0 0 > > : - ; = = 1 & = & < , , , o , + X + , + + . o + o X X , , , X % % , 1 1 & 3 1 4 4 6 6 5 5 0 q p y g h s f d d [ U U T T Q ^ ( W ....m B C n b ",
"M m N |  . .( ( ~ ~ Q } ] ] ' ' f f d w s p p u 0 > > ; ; ; = = & & 2 o < o o o + + + + O + O O O O . . . . . . . o o o o o o , , & < 2 2 2 4 4 3 6 > i i p p a g s s d [ [ [ Y { T T ^ ^ ....o.V V B M ",
"m m | O. .( ( ~ ! ~ ! ] ] ] ' ' h f g t p p i i > > ; ; ; = = & < & o o o o o + . + O O O O O O O O   O . O O . . . . + + + + + o o < < < 2 2 2 4 4 > > u i u p p g s f d f [ [ [ T T / ^ ( ..E m N M B ",
"N j j |  .( ~ ) ) ! ! ] ] ' ' ' h g t w p q 0 0 > > ; = = = = & < o o o o o + . . . . O O O O O           . .   . . . . . o . o o o < < < < 2 2 = ; > > > 0 i i p g s h [ [ [ [ [ T T / ) X.X...m m B M ",
"m m o.o. .W ) ~ ~ ! ! ] ] ' ' ' h h w q q q 0 > > ; ; = = = & & & o o o o o o . . . . O O     O               .   . . . o . o + o o o < < 2 2 2 ; ; > : 0 0 p a p g s s s [ f [ [ T T ) ) X.....V B B C ",
"M N m o. . .( ( Q Q ! ! ] ] _ _ f r w w q q 9 0 > > ; ; = = * & & < < o o o o o . o . . O . . O .   . . . . . . . . . . o o o o , , , < 2 2 2 2 ; ; : : 9 9 q q p s f s d [ [ [ T T / ^ ( X...+.B B C C ",
"M M N m O. . .( ~ Q Q ! ] ] ] _ ' _ r w w w p 9 9 > ; > ; - - * 2 2 2 & & < & o X X o o + . . . . . o . . . + o o X X X o o o < < , 1 1 2 2 4 4 > > : 9 9 q q q s s f [ [ [ [ } U / ^ ^ X.....B B C n n ",
"n C M V +.o. . .R ~ Q Q ! ] ] _ _ _ _ _ r w w q 9 9 0 : : : : - - * 1 1 & * % % % % % o X X X o o o o o o o o % X % % & & & & * , * * * 4 - 3 : : 0 9 7 8 8 y w s d d d [ U T ^ ^ ^ ^ X.....B B C G G n ",
"n K C M N o.o. . . .R ~ ! ! ] ] ] ` _ _ e r w g t q q 9 0 0 : : 3 - - - - ; * * * % % % & & & X , o & & , < < & & & & & = & = 1 1 3 3 3 3 5 5 5 0 q q 8 s w s d f d U U T T ^ ^ ^ ( X...+.m B B n G G J ",
"J n n C Z m +.|  . .R ~ Q ! ! ] ] ] _ _ ` e f w t t p p p p 9 u 7 5 3 3 5 5 - - 4 * = = = = 2 2 2 2 2 2 2 2 2 1 = 4 ; 4 3 4 4 4 5 5 5 5 5 a u p p q t w s f f d [ [ U T U ^ ^ ^ W W X...+.B B G G J J J ",
"J J K n C M N o.| |  . .R Q ! ! ! ! ! U ] ` _ d f f g g t p p y p 7 7 u u u 5 0 : 5 : > ; ; 4 4 4 4 2 4 4 3 6 3 ; 3 3 6 3 6 6 5 u u u u p p g g g s f f f ' [ ` [ Y U ^ ^ R ^ E X...m V B B n G J l J x ",
"l S L S D D F M N N o.| E E R R ~ ~ ~ ~ ! ! ! ] ` [ ' ' f d d f s s g s p y y y 7 7 u u u u u 5 u u u u 9 9 9 9 9 9 7 7 7 y 7 p y y s g s s d d d d [ U [ ] Y ! ! Q Q R R W o.o.B B B B n G G x c =.=.c ",
"z z l l L D D D F M N N | j E E  . .R ~ ~ ~ ~ ~ ! / U ] ` ` ' ' d d d d d s s s s s s y p y p p y y q y q t t w w w s s s s s s d d d d d ' ` ` U T T T ! ~ Q ^ ~ R W E ..o.m m B B B S G l J x =.-.%.#.",
"c c z z l L S K D F C N M N B j | | | |  .W ( ( ~ Q ! ! / Y Y { { T [ [ [ [ ' d f f f f f h h h h h f h h r d f d d d f d d [ d ' ` ` ` { { T T / / ^ ^ ) W ( ( | | | o.m N Z C B J J G x J x &.*.%.#.#.",
"c c c v c l z L J D D F A C B B j j j j | |  . .W W ( ( ) ) ) / } } } / T T T T { T { [ [ { [ [ [ [ [ [ [ [ [ [ ` { [ { } { } } Y / / ! ^ / ^ ~ ( W X.X. .O.O.o.o.N Z M C C n G G J x x k x &.*.*.%.@ k ",
"k k k k k c c z z l S L G S S n F F b M M N N j m j | | E E W X.W ( X.( ( ( ( ) ( ) ^ ) T ^ / U ! ! ! ! ! ! ! Q / Q Q ^ ^ ^ ^ X.W ( R W W W W | o.o.o.N N o.N N C b D D K J P L J x k k k *.*.*.%.%.%.%.",
"k @ @.k @.k k k c c c z l J l l S S S F D A D F M M j M j B m m +.o.+.V +.o.....O.O.X.O.X...X.( W ~ ( W W  .W  .X.E W W X.X...X.| | o.| m m N N M N M M C F C S K P L l P x x v k k &.#.@.*.$.%.%.$.:.%.",
"@.@.@ k @.k k k k k c k &.k &.&.z z L z L S L S S A A S b b n b C C B C M M C M Z Z Z N m V B j j j j j o.m m j m m m B m B V B F M M F C A n D n D S S J J L J v v z v c *.c #.#.#.*.@.@.$.%.$.$.$.;.:.",
"@ @ @ @ @ @.@.@.@.#.@.k k $.k k k c c c c c v c z l l l l l S S J J K J J J J G D K D G n b n n F F F C F F F C b n n n n G n n D S D J S J L L l l v v z v z c c #.#.*.#.#.#.#.%.%.@ $.%.$.;.;.:.;.;.:.",
"@ @ @ @.$.@.@ @.k $.$.k ;.k k k #.k #.#.#.@.k k k k k k x x k l v v v v x x x x x l x J J J J G J J J J J J J J P L J P J P J x l z v z c z c c c *.c *.*.#.#.%.#.#.#.@.#.%.%.#.$.$.$.$.:.;.;.;.;.;.;.;.",
"@.@ $.$.$.$.$.@.$.;.k @ $.;.$.k @.@ $.$.@.@.%.@.#.k *.#.@.k k k #.*.*.#.#.*.*.*.*.c *.v k &.&.k x c x x x c x c v v c c &.c &.c *.#.c #.#.#.#.#.#.#.%.%.#.%.%.@.@.$.@.$.$.$.$.$.$.$.;.$.:.;.;.;.;.# ;.;.",
"$.$.$.$.$.$.$.$.$.k $.:.$.$.%.;.@ $.$.$.$.$.# $.$.$.$.@.@ k @ #.@.@.@.%.@.#.@.k #.%.#.%.*.*.*.&.#.k *.*.*.*.*.*.-.*.#.*.*.%.%.*.%.#.@.%.#.%.%.@.$.$.$.$.$.;.$.:.$.$.;.$.;.$.$.;.%.;.;.;.;.;.;.;.# $ ;.$ ",
"$.@ $.$.$.$.$.$.$.;.$.$.$.$.$.$.$.# ;.;.;.# $.$.$.$.@ $.@ @ @ @ $.@.$.$.@ @.@.@ %.%.%.%.%.@.$.%.#.@.@.%.@.%.@.%.%.%.%.%.%.%.%.%.@.$.$.$.$.$.$.$.$.:.;.;.$.;.;.;.$.$.;.$.$.;.$.$.;.;.$.;.;.;.;.;.;.;.;.;.",
"$.@ $.$.# $.$.$.;.$.$.;.;.$.;.;.;.$.$.$.$.;.;.;.@ @ @ @ @ @ @ @ @ @ @ @.@ @ @.@ $.$.;.%.:.%.:.:.$.$.$.$.$.@.;.%.$.$.;.%.:.;.%.;.$.;.$.$.;.$.;.@ ;.;.$.# ;.;.# ;.# @ # @ # # $.# # ;.;.;.;.;.;.;.;.$ ;.;.",
"@ @ @ $.# $.@ # $.;.;.@ ;.@ $.$.:.;.$.$.%.@ $.$.@ @ @ @ @ @ @ @ @ @ @ @ @ @ @ @ $.;.;.%.;.;.$.:.$.$.$.$.%.$.$.$.;.%.;.;.;.:.;.;.$.# ;.;.;.$.;.;.# $.$.;.$.# ;.;.# # # # # # # # # ;.;.;.;.;.;.;.;.;.;.$ ",
"@ @ @ @ @ @ @ @ @ @ $.# $.@ ;.$.$.%.%.$.$.$.$.@.@.@ @ @ @ @ @ @ @ @ @ @.@ @ @ @ $.$.$.;.;.;.:.;.$.@ $.$.;.@ $.$.$.$.$.;.# %.;.;.# $.$.# @ $.$.$.$.$.$.@ $.$.$.$.@ # @ # @ # # # # @ # @ ;.;.# ;.;.$ ;.;.",
"@ @ @ @ @ @ @ @ @ # @ @ @ @ @ @ $.$.@.$.@.$.@.$.@ @ @.@ @.@ @ @ @ @ @ @ @ @.@ @ $.# $.;.;.$.;.$.@.$.@ $.@ $.@ @ ;.$.$.;.;.;.;.;.$.# @ @ $.# # @ $.# $.;.;.@ $.;.# # # @ # @ # @ # ;.# ;.;.# ;.# ;.;.;.$ ",
"@ @ @ @ @ @ @.@.@ @ @ @ @ @ @ @ @ @.@ @ @ @.@.@ @ @ @.@ @ @ @ @ @ @ @ @ @ @ @ @ $.@ ;.$.$.:.;.;.@ @ @.@ @ @.@ @ @ $.$.$.$.$.$.@ ;.;.;.;.$ ;.@ $.# ;.# $.;.;.# # ;.$ ;.$ ;.;.$ ;.$ ;.$ ;.$ ;.;.$ ;.;.;.$ ",
"@ @.@ @.@.@ @ @ @ @ @ @.@ @.@.@ @.@ @ @.@.@ @ @ @ @ @ @ @ @ @ @ @ @ @ @ @ # @ @ ;.$.$.$.$.$.$.$.@.@ @ @.@ @.$.@.$.$.@ $.@ $.$.@ ;.$ $ ;.;.# # # # # # # # # # ;.;.;.;.;.;.;.;.;.;.;.;.;.;.;.;.;.$ ;.;.;."
};
