/* XPM */
static char *_1674929008[] = {
/* columns rows colors chars-per-pixel */
"100 50 254 2 ",
"   c #DB0E7A",
".  c #D61A7A",
"X  c #E70B7B",
"o  c #F5077C",
"O  c #E5157B",
"+  c #E12D7C",
"@  c #DB0883",
"#  c #DB1985",
"$  c #E40C85",
"%  c #EC0C84",
"&  c #EB048B",
"*  c #EB0B8B",
"=  c #E80787",
"-  c #FB0385",
";  c #F4058C",
":  c #FC048C",
">  c #F30B8A",
",  c #F50984",
"<  c #E51385",
"1  c #E5138B",
"2  c #EA128A",
"3  c #EA1B8B",
"4  c #E81885",
"5  c #F41987",
"6  c #EC0393",
"7  c #EC0998",
"8  c #F40493",
"9  c #FC0295",
"0  c #F40A92",
"q  c #F5059B",
"w  c #FD029C",
"e  c #F5099B",
"r  c #FD099C",
"t  c #E81992",
"y  c #F11796",
"u  c #DC268C",
"i  c #DC3091",
"p  c #E92688",
"a  c #F6288D",
"s  c #E9358B",
"d  c #F53489",
"f  c #E82995",
"g  c #F32C93",
"h  c #F92B96",
"j  c #EE3B92",
"k  c #E2319A",
"l  c #EA3797",
"z  c #F53898",
"x  c #F503A4",
"c  c #FE01A5",
"v  c #F603AC",
"b  c #FE01AB",
"n  c #FD09AD",
"m  c #F609A6",
"M  c #F504B3",
"N  c #FD01B2",
"B  c #FD0AB1",
"V  c #EB1CBC",
"C  c #EA19B9",
"Z  c #FC16BE",
"A  c #F41BBC",
"S  c #FC1CBD",
"D  c #FF1CB4",
"F  c #EE0AA5",
"G  c #FF3EA8",
"H  c #FB3AA4",
"J  c #ED23BC",
"K  c #EC2BBD",
"L  c #E827B8",
"P  c #F624BC",
"I  c #EC34BD",
"U  c #E735B9",
"Y  c #F237BE",
"T  c #DD4982",
"R  c #E7458A",
"E  c #EC4896",
"W  c #FD4C9E",
"Q  c #F84699",
"!  c #E95196",
"~  c #F9569B",
"^  c #F1659A",
"/  c #F945A6",
"(  c #FD5CA4",
")  c #FC55AA",
"_  c #FE5CAC",
"`  c #F854A4",
"'  c #E742BC",
"]  c #FF5EB6",
"[  c #EE49AD",
"{  c #FC61A5",
"}  c #FD63AC",
"|  c #F869A9",
" . c #FE73AC",
".. c #F875A7",
"X. c #FE63B4",
"o. c #FE6AB2",
"O. c #FF6CBA",
"+. c #FA66B9",
"@. c #FF72B5",
"#. c #FE7CB4",
"$. c #FF73BB",
"%. c #FE79BD",
"&. c #EC1DC4",
"*. c #ED1AC9",
"=. c #F516C2",
"-. c #FE15C4",
";. c #F51CC4",
":. c #FD1BC4",
">. c #FF16CA",
",. c #F51CCA",
"<. c #FD1ACA",
"1. c #F415CB",
"2. c #FF16D3",
"3. c #FD1BD1",
"4. c #FD18DA",
"5. c #ED24C4",
"6. c #EA2BC6",
"7. c #F322C4",
"8. c #FA22C4",
"9. c #F42BC5",
"0. c #F522CA",
"q. c #FC22CA",
"w. c #F42BCA",
"e. c #FA2AC9",
"r. c #EB36C6",
"t. c #F031C4",
"y. c #F334CC",
"u. c #F53CCB",
"i. c #F839C9",
"p. c #FC2CD0",
"a. c #FA26D2",
"s. c #FB3BD3",
"d. c #F938D6",
"f. c #EE2BD1",
"g. c #EE44C6",
"h. c #EA45C8",
"j. c #F543CC",
"k. c #FC41CC",
"l. c #F44BCB",
"z. c #F848C8",
"x. c #EC56C8",
"c. c #F758CC",
"v. c #FD43D3",
"b. c #FE44DD",
"n. c #F84BD5",
"m. c #FD53D5",
"M. c #FC5BD3",
"N. c #FE55DB",
"B. c #FE5CDB",
"V. c #F555D6",
"C. c #E840D5",
"Z. c #ED63C9",
"A. c #FA62CA",
"S. c #FF7DC2",
"D. c #FF77C6",
"F. c #FE64DB",
"G. c #FC6BDB",
"H. c #F867D5",
"J. c #FF7AD4",
"K. c #FE73DC",
"L. c #FE7CDB",
"P. c #F678D8",
"I. c #EE71CD",
"U. c #FF4CE4",
"Y. c #FF5CE2",
"T. c #FC56E5",
"R. c #EF5CE1",
"E. c #FE64E4",
"W. c #FE6CE2",
"Q. c #FE65E9",
"!. c #FF6DED",
"~. c #FE73E3",
"^. c #FF7BE3",
"/. c #FF72EC",
"(. c #FF7CEB",
"). c #F776EA",
"_. c #FF65F3",
"`. c #FF7EF2",
"'. c #FF74F6",
"]. c #FD8AB4",
"[. c #FF83BC",
"{. c #FF8BBD",
"}. c #FF81B7",
"|. c #FC96BB",
" X c #F588AF",
".X c #FDA2BB",
"XX c #EFA4BB",
"oX c #FF84C3",
"OX c #FF8BC4",
"+X c #FF8ACA",
"@X c #FF84CA",
"#X c #FF92C3",
"$X c #FF92CB",
"%X c #FF9BCC",
"&X c #FF98C3",
"*X c #FD83D5",
"=X c #FF8DD3",
"-X c #FE83DD",
";X c #FE8DDB",
":X c #F481D8",
">X c #FF94D3",
",X c #FE9CD4",
"<X c #FE94DC",
"1X c #FE9DDC",
"2X c #F79ADA",
"3X c #FEA3C4",
"4X c #FEA4CC",
"5X c #FEAACD",
"6X c #F6ABCA",
"7X c #FDB4CC",
"8X c #F5B6CC",
"9X c #ECABD8",
"0X c #FDA4D4",
"qX c #F4ABD4",
"wX c #FDABD4",
"eX c #F5A5DD",
"rX c #FEA4DC",
"tX c #F3ACDA",
"yX c #FEACDB",
"uX c #F4A5D5",
"iX c #FDB3D4",
"pX c #FDBAD5",
"aX c #FEB3DC",
"sX c #FEBADC",
"dX c #F4B7D8",
"fX c #E9B0DD",
"gX c #FE84E4",
"hX c #FF8CE4",
"jX c #FF83EB",
"kX c #FE8CEB",
"lX c #FE94E4",
"zX c #FE9CE3",
"xX c #FE94EA",
"cX c #FF9CEB",
"vX c #F697E3",
"bX c #FF8CF3",
"nX c #FF87F7",
"mX c #FF9CF2",
"MX c #FF9BFA",
"NX c #FF93F4",
"BX c #FEA4E3",
"VX c #F5ADE3",
"CX c #FFABE4",
"ZX c #FFA4EB",
"AX c #FFACEB",
"SX c #F4A3E4",
"DX c #FFB3E3",
"FX c #FFB2EA",
"GX c #FCB8E5",
"HX c #FFA2F3",
"JX c #FFACF2",
"KX c #FFA3F9",
"LX c #EEAAE8",
"PX c #FAC2D5",
/* pixels */
"F m c b b b v v M M N b b N b N N b N N N N N N N N N N N N N M M M N v b c b c c c b b b N N N N N b b b b b N v N N v v v M v b c c c c c b c c c c b c b b b N N N b b b c b b c b b b b b b b c b c ",
"F v c b b b b M M v b b N b b v N b N v b v v c N b v M b n v N v N v b b c b c c c b b N N N N N N b b b b b b b v b v v v c n b N b b b b b v b b c b b b c b b b b b b b b c c c c b c b b b b b b b ",
"M v b N b N N N M N N N N b b b b N b b N b b n c c c c c m c c c c v b v b c b b b b N N N N N N N N N N N N b b c b c c c c c N M N M M M M M M M v b b b b b b b n v v c m x m m c v b b N B b b b b ",
"M N N N N N N v v x b b b b b b c x b c c c n c c c c c w c w c b b b b b v c c v N v N N N N N N N N N N N b b b b c c c c c b N M M M M M M M M N N N N N b b b v c v v x x x x v x v v v N N N b b b ",
"M M N N N N v v m n c c c c c n m c m v x x x x c b b b b b b b b b b b b b N v v M v v v M N v M M N N M b b b b b b b c c c c b N N N N N N N N N N M N M M M b n v c v n n B N m N v M N N N b b b b ",
"M N N b b b m m m c w w 9 9 9 9 e r e r m c c c n b b b N N N b b b b b b b N N M v v v v c c c v N v c b v b b b b b N b b b b c b b b b b b b N N N v M M M F x c x c w x x x x x v v v b N b b b b b ",
"N b b c c w e 0 > 0 8 0 0 0 * * - , ; : : : 9 e w x n b N N N N b b b N N N N v b b c c c c c w c c c c c b b b b N M N M M M M v c c c b c c c w w w w m 7 F 0 0 0 0 0 0 0 > 8 6 8 9 w q w q q c c c c ",
"b c c w e 0 1 1 g H G / / / [ / z z g a p 3 1 * 0 7 e e x c v m x x v c b b b b b b c c c w w w c c w c c b c b b N M M M M M M v c c w w w 9 9 9 : > * 1 < u u f g z H G G / G G G H H h f 1 1 0 e e w ",
"w 8 * t f [ O.*XlXzXZXAXAXAXJXAXyX,X,X$X+XoXO.X.` H g 3 3 % = & * 0 e 0 q c c c c c c c c c c n c v b b n b c n b c b b b N b c c r w 9 8 * * < O O s E (  .#.[.$X>X,XBXCXCXCXBXCXCXBX,X>X+X..! f 1 $ 0 ",
"; $ 1 l +.@X1XyXyXyXyXaXtXVXLXVXyXtXyXyXDXAXCXBX1X=X@XO._ ` j s   < 2 2 > 8 8 9 c c c b c b x x b v c x x x c c w c w c c w w w 0 & * 1 t l / ) D.%.oXOX%X%X0X0XyXyXyXyXaXyXyXwX0XwXwXwXwXiXwX#X+.H 3 < ",
"% 4 l X.>XDXaXaX5X5X0XuXrXBXBXzXHXcXcXcXZXZXZXBXAXCXCXDXyXyX%X{.o.Q s s 4 O & 0 0 w c c N B N M M N N v b c c c w w 9 : - - : , O + j ` O.@X<XrXCXCXAXAXAXZXBXBXcXcXcXzXzXzXzX1X1XrX0XrXwXaXaXDX=XX.k . ",
"X p ( @XrXiX5X6X5X4X%X,X<XhX-X~.G.G.G.G.K.L.L.:X;X<XzXBXDXDXDXyXBX>X@XO.X.z p # * & 6 q c B N N v N b n n c w q 8 > % X X O h Q )  .OXrXCXCXAXAXZXZXcXxXhX^.K.K.G.G.H.G.G.L.hXhXlXlX1XrXrX0XyXCXBX@X( R ",
"  s  .,XaXiX8X8XwX0X1X;X-XK.m.k.y.p.f.y.y.u.j.g.x.c.H.P.J.*XhXcXAXAXAXZX1X*XO.) l g 3 * ; 8 9 9 w w w w 8 ; & = # # . i E | S.OXuXwXDXCXCXBX2XlXgXP.R.B.n.s.p.p.f.6.r.r.C.V.E.).jXkXxXZXZXzXBXDXyX#X .! ",
"O s o.$XaXPXdXqXwX0X<XhX^.B.j.9.<.3.,.1.=.C C C V L I I u.m.B.W.gXkXxXcXZXJXAXrX@XD._ / z 5 5 o > > % % < 3 p s l ! | S.$XrXCXFXBXZX1X;X:XI.Z.x.' r.6.6.*.,.1.1.<.<.,.&.5.r.n.B.~.jXxXZXZXCXDXDX0X{.^ T ",
"o a ) [.0XGXsXqXuX2XvXkX`.R.u.w.:.:.:.:.<.:.q.q.8.:.;.;.7.7.e.w.u.l.F.^.kXzXBXrXaXwX4X{.#.| { ~ E E E E ~ ( o.@.@X=X1XBXAXFXCXcXjX/.Y.m.j.K V C A Z &.=.,.q.0.q.3.>.>.=.V t.j.B.K.hXzXBXuXaXdXiX5X].^ T ",
"o 5 / $.%XaXsXsXtXSXvXkX).R.r.f.A S :.-.-.:.=.=.<.-.1.:.3.3.<.,.7.V L r.x.Z.J.1XrXwXyXiX5X3X|.|.].].].].{.$X,X1XBXZXZXHXHXlX:XH.h.f.5.V A :.-.-.-.-.-.:.:.:.,.:.-.>.-.A V I l.F.J.hXzX0XqXiXpXiX|...! + ",
"- - g _ oX6XpXPXdXwXrXlXjX~.V.n.w.:.=.-.:.:.:.:.<.>.<.<.<.<.<.:.S A A J K t.l.l.~.jXmXZXCXaXsXsX3X5X5XiXiXaXDXAXZXKXmXjXW.V.r.r.&.,.&.,.;.,.:.:.-.S -.Z -.S S -.<.>.,.8.9.i.M.P.-XzXrXuXtXsXiX4X{.) d + ",
": - 5 Q %.%XiXpX8X6XrXzXxXjXW.Y.d.a.:.;.<.<.<.<.<.<.<.<.<.<.,.:.S S S :.:.0.w.w.s.N.~.kXcXBXsXaXsXpXsXaXGXDXAXAXmXkXK.m.u.9.7.V :.>.,.:.;.,.:.:.:.:.S -.S :.S -.<.,.,.w.k.m.G.gX;X1XrXwXaXsX5X#XO.W p O ",
"9 ; % g _ [.3XiXpXiXtXCXcXxX(.E.U.p.,.;.:.<.<.>.<.<.>.:.:.,.:.:.-.S :.:.;.;.;.5.L U l.F.-XlXBXBXCXaXaXDXFXAXZXxXgXH.' L J S -.-.<.>.1.:.:.7.,.;.:.,.:.8.q.;.7.0.,.1.,.y.n.F.^.hXzXBXyXyXaXaX4X}.) h X X ",
"r ; & 2 z } OX0XiXsXtXeXzXxXgXW.N.d.5.&.,.<.:.-.>.>.-.-.-.:.:.-.:.:.:.-.<.,.,.,.V 5.I g.c.K.gXxXcXzXcXZXZXcXgXP.x.Y K P D :.<.:.:.:.-.-.:.,.8.,.,.:.<.,.,.0.5.0.q.<.w.j.B.K.gX2XeXtXyXaXyXwX{.| g y * > ",
"q e 0 > 5 z } $X0XaXdX9XSXSXlX^.Q.b.r.5.7.:.:.-.-.-.-.-.:.:.8.:.-.>.<.<.<.<.3.q.;.,.J J I g.B.W.jXgXgXjXjXK.c.h.U L J A S :.-.-.:.:.-.:.:.:.<.:.<.<.<.>.<.<.,.<.,.9.t.V.G.gXvXSX9XtXaXyXyX#X .E 1 8 8 8 ",
"x m w 9 , 5 Q O.%XyXDXsXaXBX1XhX(.B.h.6.L V A -.Z -.-.-.-.-.S -.>.>.>.>.>.<.<.3.1.:.:.A V 9.d.v.N.N.m.B.N.j.I L L P P :.:.:.:.<.<.-.:.:.:.<.:.<.<.<.-.-.>.-.:.:.P 6.h.M.L.vXLXLXtXaXDXyX$Xo.E 4 * w r w ",
"v v c w : - 5 z @.$XyXaXyXCXyXzXhX~.Z.x.' 6.K 9.7.:.:.-.S -.S -.>.>.>.<.<.<.<.<.>.>.<.<.<.q.q.p.8.e.9.9.w.9.P V S S :.:.:.q.q.<.:.:.:.:.<.<.<.<.:.-.:.-.:.:.q.9.g.l.H.L.lXSXVXaXDXaXrXOXo.Q p % e c c c ",
"v v c c 9 : - O j } $X0XaXaXaXCXBXcXkXgXI.Z.l.l.r.t.w.9.9.8.8.:.-.<.<.<.<.<.:.-.-.-.-.-.>.3.>.1.,.:.:.,.:.,.:.:.<.-.<.<.<.,.:.=.<.:.-.:.<.q.q.<.:.8.q.e.i.s.v.n.F.K.hXcXAXDXDXGXaXrX@X} j 4 X & w c c c ",
"N N b c w 9 : o O s { }.#X4XiXaXGXDXFXZXcXNXNXnX'.'._.T.U.d.p.q.:.:.:.:.8.8.:.-.-.-.:.>.>.>.>.3.a.<.,.,.3.<.>.>.>.>.>.-.>.>.>.-.<.>.<.,.<.p.d.d.U.U.Q.Q.'.`.nXbXmXZXAXFXFXGXwX4XOX#.` p # = : w c c b b ",
"N N b b c w 9 - X O j { ..|.6X6XpXpXaXCXAXmXMXnXnX'._.U.b.d.q.,.:.:.:.:.;.:.P :.-.-.:.-.>.>.,.:.,.,.,.,.,.<.<.3.>.>.>.>.>.>.<.>.>.>.>.:.q.q.p.d.s.N.Q./.nXMXMXKXZXAXFXGXsXiX3X|. X{ j 4 & 8 w c c b b c ",
"N N b b c w 9 : o X d Q | ].3X6X7XiXaXyXBXcXbXjXQ.R.d.f.q.q.:.S :.P :.S S :.:.S :.S :.:.:.,.8.,.;.;.7.,.0.,.,.<.>.>.>.>.>.:.<.<.>.<.<.,.,.,.9.9.t.u.l.H.G.(.kXcXBXCXDXsXsX7XXX]...Q p X : c b b b b c c ",
"N b b b c w w 9 - o a W #.|.7X7X7XiXyX0X<X-XG.V.U 6.&.*.=.-.-.-.:.S S 8.:.P :.:.:.:.:.:.8.9.9.w.e.9.e.w.w.w.0.,.<.,.<.<.,.=.;.,.:.<.:.<.;.,.,.7.V K L U ' x.I.:X2XeXCXaXpX7X3X|. .W a & 8 c b b c c c b ",
"b b b b c c w 9 - , h ) %.4X7X7X5XyXrX;XJ.H.l.t.V &.-.>.-.-.-.-.-.P :.:.8.:.:.:.-.:.8.7.K 9.j.n.k.k.k.k.v.v.d.9.&.&.;.q.q.7.;.0.;.:.:.,.,.:.<.<.<.:.P C K Y c.A.*X2XyXtXqXpX7X3X].( g % 8 c b b b c b c ",
"b b c b m c w 9 : % h ] OXwXpXpXwXrX2XgXK.M.i.J =.,.3.<.>.-.Z S S :.:.:.:.:.<.<.=.=.S J 9.j.N.E.B.c.c.c.Y.Y.N.s.K V C ;.q.,.,.7.:.:.:.,.>.<.<.<.<.>.-.P 8.9.s.m.L.<X2XuXqXpXiX4X{.{ d * 8 c b N b c c c ",
"c c c n x x c q 0 % g X.+XwXpXPX9XLXSXkX^.Y.s.0.=.-.>.<.-.:.S S :.:.:.:.>.<.>.<.<.:.;.9.k.Y./.`.L.P.P.^.jX`.!.Y.y.5.C -.:.-.-.-.-.S 8.:.:.>.<.>.>.>.:.q.w.y.b.N.K.hXzX2XqXiXiX5X{.{ s 4 ; w b b b c b b ",
"c c b c c c w e 0 = f X.OX4XpXpXfXLXcXvX(.Q.b.w.3.3.>.>.:.:.8.8.S S -.:.<.<.2.3.<.,.5.i.N.(.nXNXcXcXcXHXKXMXNX(.B.i.P :.<.-.-.<.S S :.:.-.>.>.>.3.1.,.;.f.y.U.Q.~.kXcXeXtXsXiX5XOX{ p % 0 c x b b b b c ",
"c c b x b b c w 8 > d _ {.3X8XPX9XVXvXxXjX'.T.d.a.2.>.2.2.>.-.-.S D S 8.<.<.3.,.1.0.d.N.~.kXcXAXBXCXDXGXGXLXFXZXP.M.Y J S q.q.,.S P S P :.:.<.1.,.,.0.5.r.d.T.E.jXlXcXtX9XPXsXwXOX) a > 8 w n b c b b c ",
"n c b b c c c w 9 > 5 W }..X8XPXiXeXSXvXkX(.Q.b.a.1.>.<.2.>.>.<.:.S :.:.<.<.3.a.J i.B.~.xXZXFXaXaXiXpXdXPXdXGXVX1XL.c.I J ;.,.,.S P :.-.:.<.3.3.<.,.5.6.y.n.E.~.hX<XBXyXdXGXaX%X@.W 5 , 9 c b b b b b b ",
"c c c b b c c w w ; % z  .#X5X7XpXiX4X,X<XgX~.B.j.9.7.;.:.;.=.8.:.3.>.>.:.-.:.9.k.c.L.lXCXaXsX8X7X7X7X7X7XiXaXDXAXxXL.l.K Z >.-.-.S =.:.>.>.>.>.>.:.9.t.l.B./.jX<X1XuXtXsXsXwXOX} j X ; 9 w c b b b b b ",
"c b b c b b c c 9 : < g ` [.4X5XpXiX5X4X1XlX*XH.c.j.K J V P 7.0.3.4.2.2.-.D P U A.J.,XyXiXiX6XXX.X.X.X.X3X3X4X0XCXAXxX~.m.i.S Z =.=.<.3.3.2.>.>.>.,.w.u.N.W.(.hX1XuXqXiXaXaX%X[.` g X : r c c b b b b b ",
"b b b c b c c c w 8 > 4 l X.+XrXiXiXwX0XrXBXlXL.G.m.r.K &.;.:.3.4.4.3.&.J U [ +.=X,XyXiX3X|. X............ .{.#X0XCXJXmXgXG.z.P 7.*.1.2.2.2.2.3.<.q.i.N.E.(.bXxXuXqXiXaXsX0XOXX.z 3 = : w w c c c b c b ",
"c b b b b b b c c w ; = p z O.=XyXaXyXyXtXBXzXkXjXW.m.i.9.7.;.;.*.&.5.L ' A.*X1XCXaXwX%X}.| ! R R s d d + Q ~  .oX>XBXFXJXlXD.c.C.f.*.&.*.=.;.q.p.i.m.E.(.bXmXAXqX7XaXDXyXOX_ Q p $ = : c c w b b b b b ",
"b c b b b b b c c w q ; $ t H ] >XrXCXDXeXeXSXzXxXkX^.E.m.v.s.y.r.h.x.Z.P.<XBXAXrX>XS._ Q g 5 * % > % % o 5 a d Q } %.>XrXyXtX2X~.Y.V.h.u.r.r.g.M.F.L.hXlXSXSXVXqXiXiX0X@X_ l 3 2 * 0 q c c b c b c c b ",
"b b b c b b b b c c w r 0 & t z +.@XrXDXDXCXyXeXzXcXcXxX(.(./.W.K.L.;XcXAXAXBX1XD.X./ 5 & ; : w 9 w w w : : , o 4 d ` o.OX0XaXDXcXkXjXgX-XL.J.J.*X;XzXrXeXtXtXtXaXyX,X@X] z 1 @ ; r m c c c b c b b b b ",
"c b b b b b b b c c c w w 8 0 2 s E @.>XCXDXaXwXwXwXrXrXzXBXmXZXzXBXAXFXAX<XD.] f y y 9 w c c c b N b v c r 9 9 - o , p R | oX,XBXVXCXrXrX,X0XyX0XuX6X6X6X7XpXGXDX<X$./ p * 0 q w c b b b b N b b b b b ",
"b b b b b b b b b c c w c w w ; X p j ` @.$XrXaXyXyXyXCXCXAXAXZXFXrX>X@X+.[ k t 7 e w c c b b b N N N N m m c w 9 9 : , % p k ! %.{.%XyXyXaXyXaXwXwXyXaXDXyX0X$X+.` l t * 0 w c b b v b N N N b b b b c ",
"b b N b b b N b b c c c c c c w ; ; = 4 p [ X.$.>X>X<X1XlX<X<X;XO.X./ k f * & 6 q x x x b b b c N N b N c v b c c w w w 8 & 6 # p R ~ O.S.@X=XvX1X<XhXhX*XD.) l u # @ & 8 c b b N N N N N N N N b c b b ",
"b N b N N N b b b b b b c b c c c w 9 6 $ 1 # # u u f f k k i u # # @ = 6 r x c v v v v v n c c b b b b b v v c b b b b b c b c =   @   # u i k k k k f y t @ @ 7 7 8 q c b b b N N N N N N N b b b b b ",
"N N b b b b b b N b b b b b b b b N N b m x 6 6 8 6 8 e e e 6 6 7 8 w w c c c b n m M F m b b c c c c b b b N N v M N N b b N b n n n m m e F 7 7 7 F x x b b n n c n b b b b N N N N N N b N v c b c b ",
"v N N b N b b b b b b b b b b N N N N N N b b N b c b c c c c c n b b b b b b c b v c x v v b n c c c c b b b N N M N v N b b b b N b b b b n b v N b b b b N N b b b b b b b N N N b b b b c n b b b b ",
"N N N N b b N b b b b b b N N b N N N c c b b b c c c c c c x v v M v v c c b b c c b b b N N N v v c N b b b N N N N v n n n b N N N b b c b c c x c n b x v v b b N b v v B N b b b b b b c x b b b b ",
"v M N b N N b b b N b b N b b N c b v v N b b b b b b b b n v c N N M v v v c c c b b b N N N N M c v v N b N N b v c c c x c c c N b b b b c c c c c x v v c c N b b N N N v v b b b b b b c b c b c b ",
"b N b b b b b b b b b b b b b b b b v b b N b b b b N b b b b b N b N b b b b b b b b b b b N b n b b b b b N b b b b b b b c v b N b b b b b b b b b b b b c b b N b N b b b b b b b b b b b b b b b b ",
"b b b b b N b b N b b b b b b N b b b b b b b b b b b b b b b b b b b b b b b b b b b b b b b b b b b b b b b b b b b b b b N b b b b b N b b b b b b b b b b b b b b b b N b b b b b b b b b b b b b b "
};
