/* XPM */
static char *_1674929087[] = {
/* columns rows colors chars-per-pixel */
"100 50 256 2 ",
"   c #160C1B",
".  c #0A1716",
"X  c #181818",
"o  c #0F170C",
"O  c #221718",
"+  c #092506",
"@  c #162709",
"#  c #193608",
"$  c #1A2817",
"%  c #1A3819",
"&  c #0B2D18",
"*  c #242A17",
"=  c #253817",
"-  c #27350F",
";  c #1A0B2D",
":  c #160A27",
">  c #0A1529",
",  c #171626",
"<  c #170A37",
"1  c #091337",
"2  c #151337",
"3  c #090B31",
"4  c #230932",
"5  c #192626",
"6  c #172B27",
"7  c #253A28",
"8  c #262D2B",
"9  c #194A12",
"0  c #274616",
"q  c #34491A",
"w  c #2A5617",
"e  c #36591B",
"r  c #294F0A",
"t  c #3A671B",
"y  c #327013",
"u  c #304E26",
"i  c #386626",
"p  c #387128",
"a  c #1B6600",
"s  c #426D1E",
"d  c #41532D",
"f  c #456928",
"g  c #4A7829",
"h  c #4C7634",
"j  c #41561E",
"k  c #0B0E45",
"l  c #1C0C4B",
"z  c #180A47",
"x  c #0D1345",
"c  c #151249",
"v  c #1A0B57",
"b  c #171458",
"n  c #0C0F54",
"m  c #240747",
"M  c #230959",
"N  c #211254",
"B  c #1B0D67",
"V  c #1A1568",
"C  c #1C147C",
"Z  c #191877",
"A  c #180D72",
"S  c #230C63",
"D  c #250A6A",
"F  c #23126B",
"G  c #250C73",
"H  c #221374",
"J  c #22137C",
"K  c #231A7B",
"L  c #1B237C",
"P  c #3B8525",
"I  c #309210",
"U  c #499819",
"Y  c #4B8627",
"T  c #538B2A",
"R  c #4A8834",
"E  c #548438",
"W  c #5A9836",
"Q  c #4E972D",
"!  c #62953C",
"~  c #57AC31",
"^  c #68B83A",
"/  c #68B039",
"(  c #54B71C",
")  c #69C938",
"_  c #6CD73A",
"`  c #73E93A",
"'  c #5DCF30",
"]  c #599144",
"[  c #639B48",
"{  c #5DAD45",
"}  c #68A848",
"|  c #67BA43",
" . c #73B948",
".. c #73B053",
"X. c #6DAA62",
"o. c #6CC846",
"O. c #76C84A",
"+. c #77D849",
"@. c #77CB53",
"#. c #79DA56",
"$. c #6ED54C",
"%. c #77E84A",
"&. c #76F449",
"*. c #7AE955",
"=. c #79F558",
"-. c #6EF34F",
";. c #7ADA77",
":. c #79CA6A",
">. c #7DEB69",
",. c #7AF567",
"<. c #7BE978",
"1. c #78F375",
"2. c #81BD5E",
"3. c #84DB58",
"4. c #81D44B",
"5. c #85E859",
"6. c #82F25D",
"7. c #82E848",
"8. c #84D768",
"9. c #87DA76",
"0. c #89CD72",
"q. c #87EA66",
"w. c #86E878",
"e. c #8BED71",
"r. c #82ED3D",
"t. c #1B1483",
"y. c #1C1B83",
"u. c #1B1B8C",
"i. c #1D158A",
"p. c #1C1C93",
"a. c #1B1B97",
"s. c #221483",
"d. c #221B8A",
"f. c #231A86",
"g. c #231C95",
"h. c #1A2389",
"j. c #1C2394",
"k. c #1B249C",
"l. c #1D2A9C",
"z. c #182997",
"x. c #16319C",
"c. c #23239C",
"v. c #23279A",
"b. c #27268E",
"n. c #1D1BA2",
"m. c #231FA7",
"M. c #1C25A3",
"N. c #1B2CA3",
"B. c #1C2CAB",
"V. c #1A27A7",
"C. c #1C33AC",
"Z. c #1B35A7",
"A. c #1C34B2",
"S. c #1C3CB4",
"D. c #1D3CBB",
"F. c #1E34BA",
"G. c #1C2BB3",
"H. c #2329A7",
"J. c #2336AB",
"K. c #262CB6",
"L. c #2235B3",
"P. c #223CB4",
"I. c #223CBC",
"U. c #2636BA",
"Y. c #1D44BA",
"T. c #1D4AB2",
"R. c #2244BC",
"E. c #2549B8",
"W. c #2554BA",
"Q. c #2747B0",
"!. c #1C3CC3",
"~. c #253AC4",
"^. c #2A28C1",
"/. c #1D44C5",
"(. c #1E50D1",
"). c #2445C3",
"_. c #244BC4",
"`. c #2A4DC5",
"'. c #254DCB",
"]. c #2A4ECB",
"[. c #2745C6",
"{. c #2552C5",
"}. c #2951C5",
"|. c #2651CC",
" X c #2951CB",
".X c #254ED3",
"XX c #2A4DD2",
"oX c #2749DA",
"OX c #2451D2",
"+X c #2851D5",
"@X c #324AD7",
"#X c #3F96BA",
"$X c #499A9B",
"%X c #549B99",
"&X c #58B589",
"*X c #4CA497",
"=X c #56A799",
"-X c #5BB696",
";X c #51A88A",
":X c #63BA89",
">X c #65B998",
",X c #62AF8F",
"<X c #4A98A9",
"1X c #5499A9",
"2X c #4D8EBD",
"3X c #578DBC",
"4X c #4D94B4",
"5X c #4D94BC",
"6X c #4A99B8",
"7X c #5395B5",
"8X c #5393BD",
"9X c #5499B7",
"0X c #4D8CAD",
"qX c #49A4A9",
"wX c #57A6A6",
"eX c #57A4B5",
"rX c #57B2A7",
"tX c #66B8A3",
"yX c #65B0AE",
"uX c #6296BE",
"iX c #69C58A",
"pX c #78D989",
"aX c #6AC796",
"sX c #74C996",
"dX c #77D796",
"fX c #6ED08C",
"gX c #7AE588",
"hX c #7FE495",
"jX c #6AC6A7",
"kX c #78CEAA",
"lX c #5DC294",
"zX c #4E8ECC",
"xX c #4C8EC4",
"cX c #548EC3",
"vX c #548ECC",
"bX c #5B8DC9",
"nX c #4C93C4",
"mX c #4E93CB",
"MX c #4A99C3",
"NX c #5393C4",
"BX c #5A92C4",
"VX c #5392CC",
"CX c #5797C8",
"ZX c #548ED2",
"AX c #598DD5",
"SX c #4B94D3",
"DX c #5392D2",
"FX c #5894D7",
"GX c #4B8DD6",
"HX c #5A93D6",
"JX c #88DB89",
"KX c #86DB96",
"LX c #92D685",
"PX c #88E688",
"IX c #8FE58F",
"UX c #89DCA1",
/* pixels */
"E.E.@X}.|.|.{.W.{.|.oXoXoX+X X X@X@X@X@XXXXX].}.`.`. X|.OXOX+X+XOXOXOXOX+XOX{.(.(.{.{.(.W.{.{.{.{.{.{.{.{.}.}.}.`.}.}. X X|.OX{.(.{.{.{.{.{.W.W.}.}.`.].@X@X@X@XoX+XXX.XOXOXOX|.+XXX]. X}.{.{.(.OXoX+X+X",
"W.`.}.XXOX|.W.W.{. XXXoX+X+X{.{. X+X+XXX].].'.{. X X{.|. X X|.OX.X+XOXOX|.OX{.{.{.{.{.{.|.|.'.`. X|.{.{.}. X`.`.`.]. X X|.|.{.(.|. X{.{.{.{.}.{.}.].].].XX@X@X@X+X+XOXXXOXOXOX X X X`.}. X{.|.|.OXOXOX(.",
" X.X+X+X(.OX{.W.}.}. X@XXX}.W.W.W.W.{.{.{.|.|. X|. X'.}.}.`.}.}. X].OX X{.{.{.{.{.}.{.`.'.XXXXXXXXOX(.|.|.].].].XX X X X|.|.(.(.OX]. X+XOXOX].XX+X+X@XXXOX X'.|.XXXXXXOXXX XOX X`.}.}.`.{.}. XOXOX.XOXOX",
"|.(.(..X(.OX_.E.W.`.`.[.`.E.Q.Q.T.T.W.E.W.`.{.{._.`.`.`.`.`.`.`.].XX].].|.{.{.{.}.{. X].'.].XX@XXX+X.X+XXXXXOX.X}.OX XOX|.(.(.{. X XXX XOXOXXXXXXX].].]._. X_.Y.`.E.`.R.).)._.[.[.E.[.`.`.'.].'.]. X X'.",
"/././.!.!.!.I.S.L.L.F.!.~.U.G.A.K.L.L.J.J.Q.S.Q.Q.Y.R._.'..XoX.X].].].]. XOXXX X'.'. X X}.}.}. XXXXXXXXX+X.X+XOX|.+XXX X|.OX{.OX{. X X{._.(._./.)./.Y.Y.Y.Y.T.S.J.J.C.A.J.J.L.C.Z.J.P.P.~.~.~.~.).)._._.",
"/.Y.!.D.F.!.Z.H.l.M.M.V.H.n.M.H.H.H.H.H.v.l.l.x.x.Z.C.S.D.~.[.).).E.[._. X+X+X+X.X.X.X X X{.{.{.].XXXXXXXXOX'.OXOX X X].|.{.}.{._._.Y./.Y.Y.Y.Y.S.S.T.Z.x.x.Z.x.x.l.z.z.l.l.l.j.x.x.l.H.K.K.^.K.L.S.S.S.",
"C.J.C.H.H.b.y.Z Z Z Z L Z L Z Z s.s.s.d.d.d.u.u.b.p.j.z.l.l.Z.Z.Z.S.Q.Y.R.).'.'.(.oXOX(.OXOXOXOX X].].]. X|.|.|.|. X].`.E.`.W.`.Y.D.S.S.S.C.B.N.x.l.z.h.h.h.L L L y.y.y.y.Z Z Z L V V L K d.d.c.l.N.Z.C.",
"v.j.d.y.C B b c 1 > > > 1 1 1 1 x k c n b b V Z Z Z Z y.y.h.f.h.z.x.Z.Z.P.S.).~..X.X.XOXOX(.OXOX X}.}.{. X X|.|.]. X`.`.U.Q.P.P.C.C.Z.N.V.k.k.h.y.Z Z V V b x x x x k k k k 1 1 1 > > 1 x c n B Z h.h.k.",
"d.f.A v l < ; * % 0 e r y e e w 0 % & & & > > 1 x n n b B H H J C u.z.z.l.N.Z.Z.S.P.R./._.'.'.|._.W._.}.`.'.'.).).~.L.L.U.J.H.c.d.b.b.f.C C J A B v l < < ; : X + + # 0 = u u u i i e 0 % 6 > 3 k b Z L ",
"Z Z b k 2 8 u f ! / ) ) ^ )  . ./ / W W R p u u 6 5 > 3 2 < z b V V A Z Z h.j.v.l.l.N.C.J.Q.S.S.R.E.R.R.R.~.I.I.G.A.K.J.H.c.c.f.K F S S v b c c 2 1 , 5 $ 8 u f g T W } 2.2.4. .^  .| / ] h i 7 1 c b F ",
"V b k 2 8 u h ..4.4.r.r.&.5.q.q.q.q.5.3.3.3. ...! E f e 0 % + . > 2 k b V B A C g.g.g.v.v.v.v.J.J.Z.A.A.A.G.G.K.B.H.H.j.u.y.J Z B l k 1 2 . . + # w i E [ ..0.8.8.3.q.q.8.5.5.7.7.7.%.+.O.} R u 8 , 3 < ",
"b b 2 , 7 f [  ._ r.` ` &.=.<.;.;.;.8.;.;.9.LXw.IX9.0.0.X.] p e = $ . . 3 k b Z Z C s.d.b.f.b.d.z.z.l.l.M.k.c.c.u.t.Z A V V b c x 3 > > % u h ] ....8.PXIXIXgXgXPXJXJXLX9.w.e.6.&.` %.` #.o.W h u , : ; ",
"b c 1 5 u h [ 4.*.&.-.-.,.gXpXlXwXyX1XwXwXwXwX>XsXsXKXKXPXPX8.8...E i 0 + . > c c b B H K H J s.y.u.h.d.u.s.C A V V b c 1 > > . + 9 i ] [ :.9.PXPXPXpXfXlXrXrXqXqXqX<XwXwX>XfXgX,.,.-.%.%.@./ R d O 4 4 ",
"b c : X = f ! O.%.-.-.=.1.pXlX<X5XDXvXxXxX2X4X4X1X=X*X,XiXfXpXpXIX9.0.X.] p 0 o . 3 3 < v B B H B V B F D S v l z 2 , . o + % w ] } :.KXIXJXJX:.iX&X*X*XqXqX#X#XSXSXmXnX7XqX&XfX1.,.=.-.$.o.W g q O   O ",
"S N ;   * e Y ~ $.` &.=.<.pX>X1XnXmXmXmXVXVXCX6X6X4X<X<X$X<X1XwX>XaXkXUXUX0.[ g r r + o   3 z z v l v l m 4 4 4     @ - q g } :.IXKXsXsX>XwXwX9X4X5X6X2XMX8X8X8XMXxXnX8X1X%X,XpX1.,.=.%.#.^ Q t * O : 4 ",
"S M <   $ - t Q ) _ =.,.w.JX:X1XeXMXmXmXmXNXnXBXnXBXCXCXCXBX8XMX4X<X*X-X>XKXIX9. .T e r = $ 5 > : ; : : : , O O - 0 j h ..0.LXKXsX,X=X%X1X0XcXDXZXFXFXDXbXbXuXCXVXmXNX8X1X;X:X9.1.=.%.%.o.W t 0 * , ; m ",
"D M z ;   $ w p ~ ) %.=.,.w.;.fX*X4X2XmXDXVXBXBX8X3XNXVXnXnX6X6XnXnXnX6X7XwX>XsXIX8.O.W P p w 9 * * O @ @ 0 w i Y Q  .9.IXkXjXwX<X1X7X5X8XNXNXVXNXVXBXNXBXcXBXbXVXFXBX4X=X>XpX<.6.&.%._ / R u * : < z N ",
"F S N < : . 0 t Q ^ %.*.=.,.,.;.>XeX6XmXDXGXcX2X8X8XNXVXVXmX8XMXnXDXDXDXcX2X1X*X:XpXIXe.#.| Q Y e r r r y p Q / @.>.w.pX-X*X<XMXnXNXNXVXVXVXVXvXcX2XcXcXBXVXNXZXFXFXCXeXtXdXw.,.&.&.` ) W f 0 O < z M N ",
"H H S v <   $ r g ( o.7.*.6.,.<.aXwX4XxXGXFXFXvXNX8XNXNXVXnXNX5X8X8XBXNXNXnX6X4X$X=X>XKXPXw.O.^ U U U U ~ ^ @.#.PXJXsXwX1X1X4X4XnXNXVXVXVXZXDXVXDXVXbXVXVXDXDXFXzXxX<XwXaXpX>.=.&.&.$.~ g q * O < v M S ",
"f.s.J S l ; X * e Y ^ 4.%.=.=.1.fXjXqX5XGXFXGXzXNXNXNXBXNXVXcXNX8X7X7X4X8X8XCXVXCX8X$X,XsXPXe.3.4._ O.O.@.q.w.PXiX,X1X0X3XBXuX3XBXBXVXVXDXvXVXZXVXmXVXDXZXmXzXmXVX5XqX-XpX<.,.=.&.+.| W i = O 4 l B B H ",
"a.a.s.G S m 4 O = f ! ^ *.*.=.,.gXsX=X<XmXSXSXmXNX9X8X8XBXBXbXbXBX8X7X4X7X5XnXxXDXVXnX1X,X:XJXw.IXw.<.w.PXPXpXaX=XeXBXbXbXbXbXuX8X8X8X8XNXVXmXVXVXDXmXDXDXSXSXmX8X<X;XiXgX,.=.&.%.o.{ p 7 X : 4 v Z C C ",
"n.n.i.s.G M 4 4 O - s !  .#.6.6.w.;.&X;X<XMXMXMX5X6X5X8XBXbXHXbXcXNX8X7X9X9X8XnXzXDXVX5X<X%X,X>XkXdXdXfXfXfX-X*X4XMXCXDXvXbXbXbX3X8X8X8XNXNXNXVXVXmXmXMXnXnX6X6X$X*X:XpXe.q.6.+.O.~ p u $ : 4 m B Z d.g.",
"G.V.m.g.s.G M m : X - i R } O.#.5.q.;.iX-XqX6X#XMXMXVXVXbXDXbXbXvXvXVXCXBXMXMXCXVXVXNXxX5X8X9X9XeXeXwXwXrXwX<X6X6XnX5XnXVXVXZXvXVXvXVXVXVXnXVXnXnX5X6X6X<X<X$X*X-XaXpXPXe.8.@.^ R p 7 > ; z m S C u.j.c.",
"B.G.m.g.f.s.G M < : . $ r t T T ) +.e.PXJXdXjX-XwXrXeXeX9X8XBXBXNXVXVXcXcXxXBXNX5X5XNXVXVXmXDXmXVXBX8X2X6X6XmXMXmXMXMX8XMXmXGXZXDXZXVXVXNXNXCX9XeXeXwX=X-XiXaXfXfXhXIX8.../ Y t q $ . 3 z v S C u.j.v.v.",
"A.Z.N.H.k.i.s.G S z :   o @ - r i P ~ { o.*.5.,.w.gXUXkXkXkXyXeX7XBXNXVXZXDXZXmXmXnXNXVXVXDXGXDX8X7XNXVXDXmXVX8X6X6X5X5XnXmXmXzXVXVXNX8X9XeXyXyXkXkXdXhX<.e.>.*.$.| P P y a # @ o O 4 m S A Z u.j.z.H.J.",
"S.Z.Z.l.M.a.i.s.H S l ;   o @ - 9 9 P I ( _ _ %.e.1.gXdXjXtXeX9X7X8XNXVXDXZXGXZXZXmXxXxXmXmXDXnX7X7X8XmXDXVXVXMX8XNXNXVXmXmXmXVXvXvXNXBX9X1XwXrXkXkXUXIXw.*._ ' ' I I a a # @ X 4 4 4 M D A t.a.z.N.H.J.",
"Q.J.Z.Z.x.a.a.i.C D v z     O * 9 p P ( ) ` >.1.pXaXjXrXeX6X6X5X8XNXBXcXVXDXAXDXDXDXzXnX5X7X4X<X<X<X<X4X5X5XnX5XNXVXZXvXbXBX8XBXvXZXZXNX8X7X9X9XqXrX-XaXhXgX<.=.' ( U y r - O   4 4 M D J t.p.z.z.N.C.P.",
"Q.Q.J.Z.V.k.a.a.A A M m   O * q P Q | *.5.q.<.fX-XrXqX#X6XnXnXnXnXVXNXNXBXcXVXDXvXZXVX8X7XqX=X=XrXrXrXwXyXeXeXCXVXDXAXFXbXBX3X3XvXFXbXVXNX2X8X8X4X4X<X*X-XfXgXPX,.*.$.~ Y e * O 4 4 M D J i.z.z.N.Z.L.P.",
"P.P.P.Z.N.M.a.a.i.G M < : O d h { o.3.5.6.w.:.;XqX4X5XMXmXmXDXDXZXDXcXNX8X3XBXNXNXVXNX7X1X=XaXjXjXjXlXlXaXjXyXCXNXcXVXbXbXBX3XuXBXNX8X8X8X8XnXVXmXmXMX6X<X=XaXfXq.*.*.O./ g u * ; 4 M D C y.h.z.N.Z.L.I.",
"R.U.A.C.V.k.a.i.s.D v < X = f ! o.#.6.6.q.;.:X$X6XMXmXDXVXmXVXDXDXVXNX8X8X8X8XNXVXcX4X<X=XaXgXKXhXdXfXgXgXgXdXjXwX7X2XcXCXBXcXbXBXNX8X5X2X8XVXmXDXmXmX8X4X*XtXsX<.6.q.7.O.! f u : < M D J y.h.z.N.C.L.I.",
"~.~.I.B.B.k.a.i.A B l ; X - g W o.%.-.=.>.gX-XqX5XDXDXVXNXcXcXcXNXNXBX8X8XBXvXvXDXNX4XwXaXpXw.w.<.>.>.,.*.e.w.IX:X=X<X7XVXVXvXVXvXVXcXBXNXNXVXDXFXFXmX6X<X%X>XdX<.,.6.%.) ~ s 0 . 2 l B J t.h.h.x.C.F.I.",
"[.~.I.A.N.k.p.t.G D l ; @ % t Q ' _ &.*.w.hXkXeX5XVXvXvXNXNXNXCX8XcXBXNXcXNXvXVXNX7X%X>XKXPXq.$.+.@.#.+.+.+.*.q.;.iX*X6XmXSXmXmXVXVXNXCXCXVXVXmXDXVXVX9XwX=XsXgX<.,.5.%.) ~ y 0 . < l B J s.y.j.V.C.A.I.",
"!.D.D.Z.N.j.g.t.J B z 2 O * j T ^ %.%.&.,.1.pXtX1XbXAXAXGXMXMX6XCX3X3XcXVXZXzX5X<X%X-XdXIX8.^ U Y T T T U U ' +.e.gX>X<XmXDXmXmXmXmXxXBX8XBXbXbXZXAXbX9X*X-XfXgX,.-.-.+.| E i *   4 N B H y.d.j.V.G.A.D.",
"/./.S.Z.H.l.u.u.t.A v z , O q g ~ ) 7.&.=.,.gXaX%X3XbXAXFXSXMX6X7X3XHXFXFXDX5X4X%X:XpXLX:./ y y r q q q r r y U @.w.KX>X<XNXmXGXSXSXNXBX8X3X3XvXZXvXBX<X-XlXgX1.-.-.&.o.} E u 8 ; < M S H y.j.k.C.A.I.~.",
"/./.R.Z.Z.l.p.u.s.A b l : X = d Q ^ $.=.-.,.1.gX>XwXuXbXbXHX3X3X3XcXvXGXGXMX6X*X&X;.w.8.[ i 7 % * * * - - # r w T :.e.JX&XqXMXSXSXSXmX5X4X4XCXCXVXVX6XqXlXpX,.=.-.&.&.o.W f = O ; m M B C u.c.M.C.A.D.).",
"'.).Y.S.J.l.z.p.i.C B b <   * q p ~ $.%.&.=.,.1.KXtX1X3X3XuXbXuXBXCXDXDXSX#XrX-XJX9.0.T r = 5 ; O O   X X X X * 0 Y 2.9.pXlXqX#XSXSXmX5X6X5X5X5XMX6XqXrXfX1.6.&.` &.+./ g q * : < l D H t.p.j.N.A.D.I.).",
"'./.Y.S.Z.Z.z.a.p.t.A B z : , * e g / $.` &.-.1.gXfX>X1X7X3XbXBX2X5X6X4X$X;XaXKXJXX.R 9 @ : 4 < ; ;   : 4 4 4 ; 5 = t } PXIXlX*X0X2X2XBXCXCXMX5X4X<XrXsXpXw.>.%.7.4.^ T t - X ; z M H s.u.j.V.B.A.S.!./.",
"'.).R.R.S.Z.V.N.a.p.C V v < ; , = e R ^ ` ` &.-.1.gXsXtXwX1X0X1X7X$X$X%X&XdXJXLX[ i # o : < z N l l z z m m M m < , @ w ] 0.PXUXyXyX1X1X4X<X6XqXwX>XsXhXPXe.q.5.4.^ W f - $ > < v D C i.a.V.Z.A.D./././.",
"].`._.R.Y.C.C.B.V.a.u.Z F v z ; X - t T ^ _ ` &.=.,.gXgXdXlX&XrX-X-X:XLXIX0.X.h = X 3 < N l c N B V n V M D D D M m ; . # f } 9.JXsXfXlX&X;X&X&XfX;.>.,.=.*.%.+.2.E i = $ : < z B C i.a.V.V.C.S._./.|.'.",
"].].`.E.Y.Y.A.C.B.k.a.t.K F M l ; X % e Y ~ ) ` *.*.,.w.gXgXgXdXKXKXLX0.2.g - @ . < l B b F F V Z Z y.y.J J D D G M z 2 > + - s { @.JXIXIXKXPXPX1.,.*.%.%.%.) | h d * . > 3 v H C i.a.V.B.C.Y.Y./._. X X",
" X`.{._._./.Y.I.B.B.M.c.d.J H F l < , $ 0 t W ^ O.4.4.3.5.#.*.$.:.X.R i % @ . ; l v G C s.f.Z L h.h.M.n.n.a.C Z F B B v l c , o # a R ..:.:.8.#.3.3.3.3.4.| U p u 6 > 2 c V H t.p.n.H.H.A.S.E.R. X X|.|.",
" X X X`._./.Y.R.D.A.J.M.c.g.u.J G S l 2 > % q e g W } } } ~ Q P u u % 6 5 > 2 b Z J i.i.b.b.j.z.z.N.V.G.G.V.j.h.L Z Z Z A V B 2 . + @ 9 t g ] } } } [ ] h f w % , c k b V C d.b.g.B.K.A.D.Y._.{. X X|.|.",
"{.`. X|. X'.'.).R.I.L.J.H.H.c.g.d.f.C B c z 2 , 5 8 7 7 7 % % & . > 1 k b V Z u.u.a.k.H.H.K.J.K.N.Z.L.U.^.F.G.N.z.z.h.j.a.p.i.C D l z < 3 , 6 8 8 8 7 8 2 2 3 3 n V Z Z h.g.M.H.K.L.U.!.)._.{.{.|.|.|.|.",
"'. X X|.|. X'.'._.).I.P.P.J.B.H.H.a.a.g.d.K F B v l z k k x x n b V V y.h.j.k.N.B.B.B.L.U.U.U.U.P.J.R.~.~.~.!.F.S.Z.Z.N.M.n.n.n.g.f.s.s.A V v k k c c c b F H J h.h.j.l.l.M.K.K.U.~.~.`.`. X{. X|.|.|.|.",
"'. X|.'.'.|.|.'.}.`._.).~.I.D.D.L.A.B.V.H.m.m.g.d.g.g.d.g.g.H.g.v.c.H.H.H.N.A.A.D.D.D.).[.~.[.[.E.E.E.E.E.[.oX(.!.!.!.U.A.J.B.B.H.m.m.n.H.k.j.h.h.L L L j.v.H.K.l.N.H.Z.J.I.).).).[. X X X'.{.{. X'.|.'.",
"|.'.'.|.|.'. X X X X].`.'.'.'._.R.D.U.F.^.~.K.K.K.K.K.K.^.K.^.^.U.K.K.F.U.I.).R._./._.].].XXXXXX@X].`.`.{. X'.oXoXoXoX[.).R.P.P.~.~.F.F.G.B.Z.V.J.Z.x.J.C.A.A.A.L.A.P.I.[.'.'.'.'..XOX|. X`.'.`.|. X|.|.",
"|.|.|.'.|.].].]. X X{.|.|.|.OX(._.Y.).).).).[.[.E.T.T.S.P.I.).).[./._._.[.].`.`.`.}.}.}. X XOXOXOXOX@X}.{.|. X'.oXoX].].`.`.E.E.R.Y.T.Q.Q.Q.Q.Q.Y.I.R.)././.Y.E.E.].`.].`. X|.{.|.|.OXOX X'.'. X|. X|.|.",
"|.(.OX].OX.X X|. X{.|.|.|.OXOX(.{.{.|. X'.`._.`.T.T.T.W.W.`.E./.`.|. X XOXXX X].}.}.}.}. X|.OX(.(.OXOX X{.{.{. X'.|.].}.}.}.}.}. XW.W.W.Q.W.W.E.'..X.X.X|.{.{.{. X XXX}.`.|.|.|.(.{.{.{.'.|. X|.|.|.'.|.",
"|.|. X|.'.|.|. X|.|.|.|.|.OX|.OX|. X X|.'.|.|. X|. X{. X X|.'.|.|.|.|.'.|.'. X'. X X X X X|.OX|.OXOXOX|.|.{.|. X X X X X X X X X X X{.{.}.}. X]. X'.OXOX X|. X X X X X X|. X|.|.|.|.|.|..X X'.|.].].|.OX",
" X X|.|.|.|. X'.|. X].|.|. X X'.].|.|.|.|.|. X'.|.|. X|.|.|. X X|.|. X|.|.|. X|. X'. X|.|. X'.|.OXOX|.{.|.|. XOX|.|.|. X|.|.|.|.|.].|.'.|.|. X|. X|. X].'.|.|.|.|..X|.'. X.X|.|.|. X'.|. X|. X X|.|.|.]."
};
