/* XPM */
static char *_1674927698[] = {
/* columns rows colors chars-per-pixel */
"100 50 256 2 ",
"   c #6A370B",
".  c #77390C",
"X  c #7B2B1D",
"o  c #792819",
"O  c #7C3315",
"+  c #7D331B",
"@  c #783918",
"#  c #732E10",
"$  c #7D1C24",
"%  c #7C1C2D",
"&  c #741F26",
"*  c #7B1B34",
"=  c #7C163C",
"-  c #751C3A",
";  c #7B1A3C",
":  c #781934",
">  c #6E1D2E",
",  c #6D242A",
"<  c #7C2424",
"1  c #7C2B22",
"2  c #7C222B",
"3  c #752727",
"4  c #793724",
"5  c #782235",
"6  c #6F2339",
"7  c #791E1D",
"8  c #77490D",
"9  c #7C4414",
"0  c #794718",
"q  c #7B5617",
"w  c #744E0E",
"e  c #7D6616",
"r  c #797618",
"t  c #784722",
"y  c #7D5524",
"u  c #7B6E25",
"i  c #751B44",
"p  c #7B1A44",
"a  c #7B1B4C",
"s  c #7A1849",
"d  c #751C52",
"f  c #7C1B53",
"g  c #7C1D5C",
"h  c #791958",
"j  c #70184B",
"k  c #742249",
"l  c #75225C",
"z  c #7A215C",
"x  c #782255",
"c  c #6F2150",
"v  c #7D1D64",
"b  c #761E6B",
"n  c #7C1C6B",
"m  c #771A64",
"M  c #7B1B74",
"N  c #6E1861",
"B  c #762164",
"V  c #7A2163",
"C  c #74206B",
"Z  c #7B226B",
"A  c #752072",
"S  c #822B1C",
"D  c #84261C",
"F  c #833718",
"G  c #833A0F",
"H  c #821C2B",
"J  c #811C24",
"K  c #811B33",
"L  c #811A3A",
"P  c #851739",
"I  c #832224",
"U  c #822B23",
"Y  c #82242B",
"T  c #882628",
"R  c #833523",
"E  c #832636",
"W  c #831C1F",
"Q  c #834619",
"!  c #865918",
"~  c #854A10",
"^  c #85661A",
"/  c #87781A",
"(  c #92661D",
")  c #834823",
"_  c #855823",
"`  c #876926",
"'  c #897725",
"]  c #94782D",
"[  c #A07F3C",
"{  c #821644",
"}  c #811B4C",
"|  c #841648",
" . c #821B54",
".. c #821B5C",
"X. c #851657",
"o. c #822053",
"O. c #821B64",
"+. c #821A6A",
"@. c #881767",
"#. c #851A71",
"$. c #812264",
"%. c #7D8927",
"&. c #88861C",
"*. c #8A8726",
"=. c #958729",
"-. c #94972A",
";. c #988836",
":. c #979835",
">. c #8D942C",
",. c #A29338",
"<. c #96A72C",
"1. c #9AA635",
"2. c #99B738",
"3. c #92AC2F",
"4. c #A5AA39",
"5. c #A4B83B",
"6. c #9CC63B",
"7. c #96C72D",
"8. c #A7CB3A",
"9. c #B0E03E",
"0. c #A59C46",
"q. c #A5954B",
"w. c #9CAD49",
"e. c #A6A746",
"r. c #A6B846",
"t. c #ABB953",
"y. c #B0B24E",
"u. c #B4BB66",
"i. c #9C8F45",
"p. c #9BCE42",
"a. c #A9C646",
"s. c #B3C848",
"d. c #A8D549",
"f. c #B4D748",
"g. c #ACDD55",
"h. c #B7D857",
"j. c #B1C857",
"k. c #B6E64C",
"l. c #AAE859",
"z. c #B7E859",
"x. c #B7F257",
"c. c #ABE750",
"v. c #BAD867",
"b. c #B4DC78",
"n. c #B4CD68",
"m. c #ACEB69",
"M. c #B4EB6B",
"N. c #B9E966",
"B. c #B5F267",
"V. c #ACE677",
"C. c #B5E777",
"Z. c #ADF26D",
"A. c #C0EF57",
"S. c #C7D977",
"D. c #C4D470",
"F. c #C2E76C",
"G. c #C6E679",
"H. c #C9F16E",
"J. c #C0CE5F",
"K. c #7E45A3",
"L. c #7E4D94",
"P. c #7F3FB7",
"I. c #8B3AAA",
"U. c #943DAC",
"Y. c #9C3BAC",
"T. c #983AA9",
"R. c #8C3CB7",
"E. c #9C35B4",
"W. c #943CB4",
"Q. c #9C3AB4",
"!. c #9C36BC",
"~. c #943BBC",
"^. c #9C3ABB",
"/. c #9535B9",
"(. c #972DB5",
"). c #A237AD",
"_. c #A72EBA",
"`. c #A335B4",
"'. c #A13AB3",
"]. c #A334BC",
"[. c #A23ABB",
"{. c #A936B7",
"}. c #A02EA8",
"|. c #913D98",
" X c #87569B",
".X c #8F4E9A",
"XX c #926C98",
"oX c #8847A8",
"OX c #9449A9",
"+X c #8857A7",
"@X c #9658A8",
"#X c #8B46B8",
"$X c #9645B8",
"%X c #8C57B3",
"&X c #955CB4",
"*X c #A347B4",
"=X c #8B66A7",
"-X c #9668A8",
";X c #9978A9",
":X c #9978B3",
">X c #9369B2",
",X c #A470B1",
"<X c #8C3BC3",
"1X c #9C35C3",
"2X c #953BC2",
"3X c #9B3BC3",
"4X c #9838C8",
"5X c #9933CE",
"6X c #A334C3",
"7X c #A437C6",
"8X c #A631CA",
"9X c #9745C6",
"0X c #9959C5",
"qX c #944DCA",
"wX c #A44FC8",
"eX c #9C71C7",
"rX c #A773C7",
"tX c #9B8D95",
"yX c #A69098",
"uX c #AFB094",
"iX c #9B85A9",
"pX c #9D91B1",
"aX c #A589A8",
"sX c #A698A7",
"dX c #AC94B5",
"fX c #A8A7A9",
"gX c #B6AAA6",
"hX c #ABB7A6",
"jX c #B6B7A6",
"kX c #B2AFB3",
"lX c #98AD96",
"zX c #C4B6AB",
"xX c #C0BE97",
"cX c #ACD88A",
"vX c #B5D888",
"bX c #AAC79A",
"nX c #B6C798",
"mX c #ACD596",
"MX c #B7D695",
"NX c #B2CB89",
"BX c #ADE683",
"VX c #B8E586",
"CX c #B5E491",
"ZX c #ABC6A2",
"AX c #BAC7A4",
"SX c #B8CDAC",
"DX c #9EC49B",
"FX c #C9D887",
"GX c #C8CA98",
"HX c #C7D899",
"JX c #CCD392",
"KX c #C9E38A",
"LX c #CAE395",
"PX c #C7CBA6",
"IX c #AA90C7",
"UX c #B9B5C3",
/* pixels */
"C C b b M M #.#.M #.#.@.#.@.@.@.O.v O.n O.O.n O.n v v v v m v v  .o. ...z z $.V v z v v v ..O.v Z C C C C C C C m B B z z z z x B C B B z z o.o.....O.v M M A M M M n m B B V V n n O.+.v v v z ..V g V ",
"B b n b n n M n n M n O.v O.m m v O.v O.O.n n #.n n n n v v m g g z z z z V z v V v v v v v O.v v C v b b v v V n V v V g z g v V V B B V z g v ..O.v v n Z M C M n n V B B B V v v n v n O.V V ....O.v ",
"z v z v v g v g O.V V z l x g x x g z v n n M M M #.M +.+.v O.g V B B m B v v v O.n v n +.M M n v O.v v +.n v v n V O.v $.O...V $...$.@.Z Z M b b n v x o.o. . .....g z z x l x z v v n V v V v O...O.O.",
" .o. . ... .g ..f f x d c k c k x f x x g v n n M n n +.n +.v +.Z A b b V m v g v v v n b n n n O.O.O.O.O.O.+.+.O.+.+.$.O.V O.O.@.@.@.@.+.Z A A C B B g o.} } }  ...g  .z o.x f z g g g O.v v v ....O.O.",
"} } } } } } a  . . . .} x } f a a a a a p k o.k f d h g m b M M M M M n n v z z x l l x l l l B ......O.O.O.O.+.+.+.+.n n n v O.@.@.@.@.O...g g g l h d g f a X.X.X.X.X.} | } } a } }  . . .X... . .....",
"} p p p p = p p = = = p ; ; p ; p p ; * * 5 % * - = i a h h h m #.@.O.O.v v g l l l l l l B l g g O.O.g O.O.O.v $.Z v V v v m n ..X.X.X.X. .f a a a a s s a s s P = = = = : : : : > : = L { | s a a a f ",
"p s p - - 5 5 , & & 3 3 3 3 3 2 5 E 5 E 2 * * % H K K P P P { { | } } f x l l l B B V v v +.@.O.V V v v v v v v v n v m v z g d d p a p p | { { p P P ; P ; K 5 & < 3 o 1 1 X o 3 3 3 3 3 2 > * ; - ; - ",
"- - - 5 3 3 4   t 0 t y _ _ y y t R t 4 4 4 1 < < < < J H J H H K = ; p a d d l B v v n n @.@.O.V B B V V V v V v O.g g f f d d k 6 6 6 : : : % % $ $ < o o + @   8 8 w 0 0 y q q q q 0 t @ @ , 3 , 5 5 ",
"} 5 3 3 t y ] =.1.r.a.a.t.r.r.r.1.1.:.>.' ' ` ! 0 t 9 4 4 4 1 < $ H K * { s s h g m @.m O.g ..g B C v m v g g ..f  . .a s p p - 6 , , , , 3 o O O . 9 0 w t u ' &.&.>.1.y.y.y.y.y.t.t.y.0.;.` y t @ , 3 ",
"2 3 4 ) ` i.e.s.h.z.z.x.N.N.M.M.N.N.v.J.n.j.y.y.i.;.] ! y 0 0 @ O o 1 < % ; | } X.s X.h f f x d l g g v g g  . .s = = P K K * : , 6 4 4 @ w 8 8 e e / >.:.w.u.n.n.v.F.G.G.G.G.G.H.N.F.N.F.n.r.0.` y . # ",
"o O ~ ( ;.y.h.A.x.x.B.m.C.vXCXHXHXHXHXJXLXKXKXFXG.D.n.j.w.:.*.r e q 0 . O D 7 W H H : P ; 6 6 6 i d a a s | { { P K % J J I D < 6 4 4 t y u =.;.4.r.j.D.KXFXFXHXHXMXPXHXHXSXMXCXVXM.m.z.A.A.h.s.i.] q @ ",
"G G ~ ] 4.f.k.x.x.l.m.cXMXbXuXlXyXtXtXyXyXuXuXu.GXJXJXKXKXvXD.s.w.>.' e w Q G G W W W $ % 2 2 5 - = ; ; L * K H $ $ 7 7 S S F ) t y ] ;.q.u.b.D.KXFXJXHXPXjXuXyXsXsXiXsXsXfXjXbXcXV.m.l.k.A.A.f.y.;.! 8 ",
"# G ! =.4.f.A.x.z.V.CXSXkXdX:X@XOX.X|..X.X.X@X=XXXXXaXyXgXxXPXJXKXv.j.w.>./ ^ ~ ~ G F D I H K H 2 2 2 2 < < 3 X o o @ t 9 q _ ` =.4.j.D.JXJXPXAXgXgXaX-X-X@X.X.X XK.oXK.oX+X;XtXhXcXV.m.B.x.k.f.y.;.( 8 ",
"G G ! ] 4.d.k.x.m.V.cXhXkX,X%XI.Y.`.{.`.E././.~.I.I..X XXXXX,XyXjXNXHXJXS.u.0.=./ ! ~ 9 R R T T U X o o o @ + @ Q t q e ` ;.q.y.D.S.FXGXuXuXtXXX-X+XoXI.I.W.).`.~.W.7X9X$X#X&X;XfXbXcXV.N.z.k.f.4.;.^ w ",
"U F ! ( >.6.c.c.Z.V.mXZXpX:X%XR.~./.3X3X4X4X4X4X2X3X~.W.U.I.T..X.X-X,XkXzXPXvXb.2.>.>.%.' ` ) Q Q Q 9 9 0 Q _ _ ` ` ' i.e.n.S.LXzXzXyX;XXX.XoXI.I.R./.Q.$X[.Q.).Y.}.{.].!.I.#X=XpXDXmXBXZ.B.l.a.-.&.! w ",
"T U ) ^ >.3.6.c.Z.Z.BXmXkXiX=XoX#X$X2X~.1X1X1X4X7X1X1X3X!.!.`.[.3X~.OX.XXXyXgXHXHXb.a.w.:.-.=.' ` ^ ^ ` ` ' =.*.0.w.u.FXLXHXNXyXXXOXI.I.U./.2X7X7X8X7X].[.Q.).).{.{._.6X!.$X&XiXfXbXCXBXC.M.d.w.*.^ w 8 ",
"T 1 ) _ ` -.5.d.x.B.V.cXZXkXpX>X#X$XW.E.E.].7X[.[.^.^./.Q.Q.Q.!.~.~.^.Q.Y.*X@XXXzXGXLXC.h.d.r.2.:.>.*.>.<.1.5.s.h.S.JXGXgX;X=XoX$X~.~.^.^.^.^.[.].6X].{.{.{.`.).{.{.7X1XW.%X:XsXbXmXCXBXC.g.2.-.( _ 9 . ",
"Y U R ) _ *.4.8.c.x.m.V.MXhXpX:XoXR.W.Q.E.`.`.E.^./.~.~.W.^.^.Q.~.9X7X]._._.7X$X.X;XuXvXKXF.l.d.a.r.2.6.a.f.N.G.KXFXuXtXXXOX$X1X1X1X!.]./.Q.^.E.E.1X].].].[.{.'.}.`.1X3XqXeXdXhXmXBXV.C.N.f.<.&.( Q F O ",
"2 1 U R ~ / =.3.d.k.N.C.MXSXhXpX&X9X^.^.[.!.E.6X2X2X2X2X!.!.`.].!.^.[.[.`.E.!.W.I.oX>XpXhXHXKXH.z.k.k.k.z.F.KXGXjXsX-X+XI.Y.E.E.).).).Y.Q.Q.^.~.2X2X2X2XR.W.$XY.).).!.9X0XIXkXZXvXV.m.M.h.r.-./ ! R O # ",
"Y < 1 + 8 q / <.8.k.N.N.vXcXbXfXrXqXW./.3X!.1X7X!.1X1X!.1X!.].].[.!.^.Q.^.^.~.2X9X<XK.K.;XyXjXHXVXC.G.G.KXFXjXfXXX%X#XR.3X7X{.}.).Y.Y.Y.Y.Y.Q.~.3X2X2X<X~.R.R.W.Y.T.I.qXeXIXhXmXV.B.x.h.a.4./ ! Q F o o ",
"$ $ < 1 # 8 ^ &.<.8.A.N.C.C.cXuXaX>XoXOX7X7X8X8X_.{.`.).`.].1X8X6X].!.!.2X$X$XW.4X2X<X<XqX=X:XsXjXjXAXjXjXkXaX=XK.qX<X4X1X7X{.).Q.Q.Q.Y.Y.Y.Y.Y.Y.Q.^.!.^.3X2X2X3X<X#X&XpXfXmXV.x.x.k.9.4.] ^ ~ F 1 o < ",
"% % $ 3 X @ q e &.4.s.A.H.G.C.vXjXaX X XW.1X8X8X].{.).).`.E.1X1X6X6X1X2XR.R.W.W.^.1X5X5X<XR.%X>X>X:X;X>X-X-X+XoX#X<X4X4X1X].`.`.3X3X!.Q.Y.Y.Y.Y.T.E.E.!.!.!././.<X#X0XiXfXNXb.z.x.k.9.2.=.( ~ G R 3 < I ",
"* % % % 3 1 @ 0 ^ / 4.r.h.D.N.S.NXuXtXL.oX#X4X5X7X[.Q.Y.Q.W.~.2X6X6X1X2X~.W.OXT.Y.`.8X8X1X/.R.$XqXqXqXqX9X$XOXW.R.Q.!.!.!.^.^.!.7X5X1X!.Q.'.^.`.[.!.3X1X4X1X3X$XK.=XiXfXGXS.A.A.9.8.<.=.` ) F U Y 2 & * ",
"= : * * 2 3 X O 8 w / -.4.s.h.F.G.FXGXhXsX:X-X%XoXOXOXOXU.#X#X~./.1X1X~.W.W.W.Y.).`.E.].6X7X2X/.5X5X5X5X3XQ.E.Q.E.`.`.`.E.^.3X3X4X4X4X1X!.!.[.1X^.W.$XOXOX&X,X,XaXgXjXHXKXF.f.8.2.-./ e t R Y K H : : * ",
"; ; ; = * * 2 U O . q ^ / &.3.2.a.m.b.C.C.CXMXAXkXkXIXrXrXwXwXW.^.^.Q.Y.Y.Y.Q.!.7X6X6X[.`.`.).`.^.^.^.Q.OXT.).'.{._.8X8X{._.6X7X1X6X6X1X6X7XwXwXwXrXIXdXzXuXGXFXG.G.v.n.j.r.3.%.' u q 0 1 E L L * ; L p ",
"p i p p = = K E < O 9 q e r >.3.3.p.d.l.B.C.VXMXPXUXIXrX0X0X*X^.~.Q.Y.Y.Y.Y.!.8X8X1X!.'.'.).`.`.E.Y.T.Y.).).).`.{.8X_.8X8X7X1X^.[.!.(.1X7X4X9XqXrXrXdXkXPXHXKXKXA.k.9.6.3.3.>.u u _ @ + 1 Y K * ; ; { { ",
"a i k p = L P E T D G 9 q e &.>.2.a.g.l.C.VXZXZXpXeX0X$X~.~.^./.Q.W.Y.Y.'.^.8X4X4X1XE.Q.*X[.3X6XE.Y.E.Q.^.^././._.]._.].].3X2X~.Q.).Y.`.2X1X4X4X4X9X>X:XaXfXAXHXM.z.c.8.7.>.%.u _ ) @ X U T < % = p p } ",
"d d a p p L P K T U F Q ^ ' 1.r.d.z.N.C.vXbXtXXX X#XR.2X2X8X7X7X^.U.Y.Y.E.!.8X8X7X!.Q.Y.U.W.9X9X[.*X$X9X$X9X9X2X[.{.`.'.!.~.<XR.Y.Y.).Q.[.!.1X3X2X~.#XK.L.XXaXgXvXV.M.z.g.a.:.*.` ) R F S U D % L p } a ",
"f x f s = ; K H J D G ! ` :.y.f.k.x.C.NXuXyXXXoX$X'._.8X8X8X8X1X^.^.^.!.!.1X1X3X[.'.Y.|.oX#XqX0X0XwX0X0XqXeXqXqXOXT.T.$X$XW.9X9XW.^.Q.Q.'.`.].`.].E./.^.#XOX&X;XhXmXVXN.z.f.5.,.` _ F S D o o < * s a a ",
"g f d p = : H J D S G ! ' ,.j.z.x.B.V.mXfX;X%X#X].{._._._.{./.E.[.[.!.!.2X2X3X!.E.`.Y.OXoXeXeXIXIX,X;X:XIXIXrX0X.XT.|.Y.Q.W.R.<X2X~.W.^.'.'.{._.].E.[.^./.~.$X>XpXDXcXC.x.k.8.4.=._ 9 + G 7 7 2 ; a a f ",
"h h f p - % 2 J S S 8 ! =.1.s.z.B.Z.BXDXfXpX0XK.3X6X6X_.{.'.$X$X{.].!.2X~.R.W.^.!.].7X*X&XdXkXSXhXDXlXu.ZXSXkXdX@XOX/.].6X{.!.^.2X~.!.!.!.`.].6X6X1X!.~.R.#X0XeXhXDXBXM.B.x.f.5.*.` 9 @ D 7 * ; p i f a ",
"g f a i - % < X S G G ! &.<.a.l.x.Z.BXmXZXpXP.0X2X7X7X6X{.Y.T.T.`._.3XW.R.#X$XQ.7X[.^.*X,XgXMXVXvXCXBXBXBXCXSXPXaX&X/.].7X7X{.`.^.^.!./.!.!.].6X6X1X2X2X#X%X0XiXlXcXC.N.N.z.a.1.] ^ 9 @ U H ; p p p a x ",
"g f d i - 5 H I T S G ~ / -.a.k.x.l.m.cXDXfX:X%XR.1X8X7X!.E.U.Y.{.[.E.U.I.$X^.W.7X$X*X,XzXJXM.c.h.h.v.l.l.l.V.LXjXaX@X#X/.6X].{.].`.E.E.^.7X5X1X8X5X1X~.#X%XeXIXbXb.C.M.N.z.t.4.' ! @ S U K * = p a f a ",
"..f a i p * * H T D F ~ ^ =.5.d.x.B.M.vXmXhXpX>XoX/.1X8X7X!.~.Q.(.'.[.(.E./.W.^.#XK.;XzXPXS.d.7.5.5.5.6.6.7.d.m.FXhX;X.X#X*X7X(.{.].[.[.Q./.(.(.5X1X2XW.qX%X:XkXDXV.V.M.N.h.5.=.( _ R U Y 2 % - p a a f ",
"g f f s i - % % T D F Q ^ / 1.r.z.F.M.C.cXZXfXpX+XW.W.`.].`.Y.E.^.].6X8X8X4X<XR.L.iXhXHXS.j.4.-.>.;.>.>.<.<.2.6.D.FXxXtX XoX~.4X4X4X!./.Q.^.wXwX!.~.R.#X=XpXIXZXcXV.m.M.z.d.4.=.! ~ F U Y * % * a s f f ",
"....f i i - - % J W S F q ^ -.r.d.z.M.V.cXSXkXfX-X@XT.E.`.[.[.!.[.1X1X8X5X4XqX+XiXhXLXv.r.:.=.' ' ' ' ' / &.=.-.r.h.FXGXtXL.K.9X9X4X~./.U.Y.Y.E.7X^.R.+X>XpXZXZXV.m.m.N.g.5.-.^ ! F S T E Y * ; s h f f ",
"X.g f f i - ; : H J D S 9 ! ' -.p.c.Z.Z.BXCXZXhXdX,XOX$XE.6X7X1X3X2X5X5XR.oXXXtXFXS.J.e.*.` ` _ _ _ ! ! ! ^ ` ' =.1.y.FXJXgXXXL.Y.E.Q.).*X).`.`.6X3X3X&XaXjXnXC.m.B.N.g.a.<./ e ~ + S H K K * ; a f g  .",
"@.O.g f d i - ; K H I 1 O Q ` ' >.p.m.Z.Z.BXCXZXjXsX,X@XOXI.(.I.W.I.R.qX=X;XuXGXS.y.,./ e _ ) t ) @ G G Q Q 0 y ^ / ,.y.D.JXxX;X@XOX.X|.|.T.$X).Y.$X,XdXgXnXC.m.B.N.z.d.1.&.e 8 . X < H K P ; s f ..g g ",
"@.O.h g d a i p P * 2 Y 1 @ ) q &.3.a.g.l.Z.C.VXMXAXfXyX;XXX+X+X+X XXXq.uXFXS.D.0.[ ( Q ) @ @ @ X S # O O + 4 4 t _ ` ' ,.u.FXGXuXyXXX X.X X+X X;XaXgXnXvXV.Z.Z.N.h.a.1.&.e 8 . 4 I % K L { p } g g g ..",
"O.@...g f d s p p ; ; 2 < 1 S 9 e / -.a.z.N.B.C.C.VXMXAXjXgXsXsXdXzXGXJXD.J.4.=.( ! R F S U 1 3 Y H W o o o , o 1 1 F ) ] ;.e.u.LXJXGXuXgXgXfXfXhXnXCXC.V.Z.Z.Z.h.s.1.' e 8 . + T H * ; | s f  .g g v v ",
"@.+.+.g g f f a a s = : % H Y S . ~ ( [ 4.s.A.A.N.B.N.C.KXKXLXLXKXFXS.u.e.;.` ) 4 F S U U I % * = p = : & 7 o W Y T U R 4 q u *.w.u.NXMXLXKXKXVXC.VXC.N.M.B.m.d.e.;.^ q 9 @ 1 2 % = = s s X.h g O.v v O.",
"+.v O.g g f f f a s s = * * % H T D F Q ( =.4.s.h.h.F.F.F.v.v.v.s.e.,.' ` t 4 4 4 5 2 K * ; P = s j s s ; H J W J H K 5 3 4 0 w e u i.w.t.j.J.F.F.G.F.v.v.j.2.:.' ! 0 @ X $ % P L | | a h h n v O.v v O.",
"+.+.v g g g g g h X.s a s P : P P P H D G 8 ( / >.:.:.e.e.:.;.] r e q . @ o 3 3 6 i c d d p L ; h N h h | { P J H H = ; - : , #     8 ! ' ] ,.,.,.e.q.q.[ ] ( F @ # # < H * P { | } h ..g n n n v v v v ",
"n n O.v v g g g v g ..a a s p = | | { P 3 # # .   8 0 0 0 @ .       # X 3 2 % - j N N N m g  .a c N m n X.X.| { L ; a a p = P % D o # # # . . 8 0 0 t @ 1 T T W < 3 , * { | | X.X.h g v m n n n v v v v ",
"n v v v ....$.O.v v g g ..f a f h h j i - 6 , 5 > > > > : * K P p = : % * - a f d h ..z z V v m x l m v @.O.@.X.f d d a a } { P P P % $ 7 7 < > > 6 k 6 : * P H % - p s  .X.X.g g h V V V +.M n +.v v v ",
"C V v V O.v O.O.O.v n v g g  .f g d d a a a a k a f f a X.| | | X.f s s a f f f g ..X.o...v M b l z V v n +.+.n v V d d f  . . .s s | | { { p p d d d d a } { { a k f X.X.@.@.O.v m l l V V +.+.v v v v ",
"C V v v O.$.O.O.+.Z Z V v V g z g d f .. . . .s h h d g f a s a j h g O.$.+...X.X.X.....O.v v m O...g z B C A A M Z z  .x g v v h v h O.@. . .s i k k k c f g h z z ..O.+.#.#.n v B l l v v +.+.+.v v n ",
"b B V V O.O.O.O.+.n n m v v V z V g g  .X...O.O.g m m m v d x z ..V v m O.O.@.O...X.....$.$.v m @.O.O.z B C C M b Z O.z g z B Z m v n n +.#.O.z c k 6 k x m n n V V v m +.#.+.m V B l l v v O.+.n v v v ",
"v n v v v v O.v v n n V v v v O.v v O.v O...O.V n v v v V V v ..$.v v n n O.v O.O.O.O.O.v v v v O.O.v v V n Z n n v v v V v v V v V n +.n O.n O.z z z z V v v n v V V n v +.v n v v V V v v n +.v O.v v ",
"v v v v v v n v v v v O.v v v v v v v v v v v v v O.v v n v v v v v v v v v v v v v v v v n v v v v v v v v v v v v v v v v v v v v v v v v v v v v O.v v n v v v n O.v v v v v v n v v v v V v v v v v "
};
