/* XPM */
static char *_1674929736[] = {
/* columns rows colors chars-per-pixel */
"100 50 239 2 ",
"   c #010001",
".  c #0A0103",
"X  c #030A02",
"o  c #0B0A02",
"O  c #03020A",
"+  c #0B030B",
"@  c #030A0C",
"#  c #0A0A0D",
"$  c #130103",
"%  c #1B0305",
"&  c #13030B",
"*  c #1C040C",
"=  c #130A0C",
"-  c #1B080B",
";  c #051108",
":  c #020414",
">  c #0C0512",
",  c #030A14",
"<  c #0C0A13",
"1  c #010619",
"2  c #020B1C",
"3  c #0C0A1A",
"4  c #0B031A",
"5  c #130413",
"6  c #1C0411",
"7  c #140B14",
"8  c #1A0A14",
"9  c #140319",
"0  c #1D051C",
"q  c #140C1C",
"w  c #1C0D1A",
"e  c #0A1314",
"r  c #0C131C",
"t  c #061317",
"y  c #141116",
"u  c #14131E",
"i  c #1B131B",
"p  c #18181B",
"a  c #22030C",
"s  c #2B050D",
"d  c #21080C",
"f  c #290408",
"g  c #240312",
"h  c #2B0412",
"j  c #230B1C",
"k  c #2B0C1C",
"l  c #220A16",
"z  c #35091C",
"x  c #330716",
"c  c #23131D",
"v  c #29121C",
"b  c #26161B",
"n  c #020E21",
"m  c #0C0E20",
"M  c #1C0423",
"N  c #1C0C2C",
"B  c #160B27",
"V  c #031223",
"C  c #0B1425",
"Z  c #0D152A",
"A  c #0D192B",
"S  c #051828",
"D  c #141423",
"F  c #1A1522",
"G  c #1C1B26",
"H  c #15132A",
"J  c #1C142B",
"K  c #131A2B",
"L  c #1C1B2A",
"P  c #131C24",
"I  c #1B0E31",
"U  c #071F32",
"Y  c #111D33",
"T  c #1C1B34",
"R  c #1A1C3B",
"E  c #181636",
"W  c #240622",
"Q  c #250B24",
"!  c #290D22",
"~  c #220B2B",
"^  c #200629",
"/  c #3C0C22",
"(  c #241422",
")  c #2A1522",
"_  c #231B22",
"`  c #2B1824",
"'  c #231B2B",
"]  c #2C1B2B",
"[  c #28152B",
"{  c #331523",
"}  c #331A26",
"|  c #321C2B",
" . c #3A1D2A",
".. c #391528",
"X. c #230D32",
"o. c #241334",
"O. c #251D32",
"+. c #23153B",
"@. c #281B34",
"#. c #301D31",
"$. c #19242B",
"%. c #0E2235",
"&. c #112131",
"*. c #1C2533",
"=. c #112239",
"-. c #1A293B",
";. c #22242E",
":. c #2B222D",
">. c #26292C",
",. c #3A222C",
"<. c #24233B",
"1. c #232A3B",
"2. c #292736",
"3. c #3B2B34",
"4. c #372635",
"5. c #3A333A",
"6. c #25343A",
"7. c #41182B",
"8. c #4B1733",
"9. c #571E38",
"0. c #450D29",
"q. c #611B3F",
"w. c #442533",
"e. c #4A2534",
"r. c #482A39",
"t. c #56273A",
"y. c #45323D",
"u. c #5D333D",
"i. c #41212C",
"p. c #62263A",
"a. c #68343C",
"s. c #181D42",
"d. c #231B44",
"f. c #221B48",
"g. c #331E43",
"h. c #092A47",
"j. c #1D2344",
"k. c #172943",
"l. c #1A354C",
"z. c #1B3D56",
"x. c #252645",
"c. c #332D45",
"v. c #392C44",
"b. c #342E49",
"n. c #392B48",
"m. c #24394A",
"M. c #293648",
"N. c #35354A",
"B. c #262551",
"V. c #342B58",
"C. c #263854",
"Z. c #383853",
"A. c #651F43",
"S. c #443342",
"D. c #4D3344",
"F. c #493747",
"G. c #543645",
"H. c #593A49",
"J. c #463A56",
"K. c #543449",
"L. c #622143",
"P. c #69354C",
"I. c #473E63",
"U. c #174255",
"Y. c #2B414F",
"T. c #254458",
"R. c #394656",
"E. c #324148",
"W. c #374865",
"Q. c #355574",
"!. c #354B6B",
"~. c #56444F",
"^. c #47435A",
"/. c #584356",
"(. c #43525C",
"). c #5D5057",
"_. c #67414F",
"`. c #694555",
"'. c #694858",
"]. c #74485B",
"[. c #63525B",
"{. c #444B63",
"}. c #494C66",
"|. c #564766",
" X c #43536C",
".X c #475767",
"XX c #4B5778",
"oX c #545876",
"OX c #4B4970",
"+X c #644E68",
"@X c #734E63",
"#X c #6A5468",
"$X c #75556B",
"%X c #795769",
"&X c #775B75",
"*X c #6B5875",
"=X c #4B6378",
"-X c #596A76",
";X c #74636F",
":X c #7C657C",
">X c #73637A",
",X c #686F7D",
"<X c #86566B",
"1X c #905D77",
"2X c #855F76",
"3X c #836475",
"4X c #87687B",
"5X c #555B83",
"6X c #5A668B",
"7X c #5F7497",
"8X c #4F6C8D",
"9X c #617583",
"0X c #726E89",
"qX c #856C81",
"wX c #8D6B80",
"eX c #966C87",
"rX c #8D7283",
"tX c #857589",
"yX c #97718A",
"uX c #9C6E92",
"iX c #8D7D96",
"pX c #9E7597",
"aX c #A3759B",
"sX c #A06E93",
"dX c #A77DA1",
"fX c #72838D",
"gX c #7B8C98",
"hX c #6F8796",
"jX c #7A9EBB",
"kX c #93839C",
"lX c #84929D",
"zX c #889AA5",
"xX c #AA9EB4",
"cX c #94A8B6",
"vX c #9DB7C9",
"bX c #96BBD4",
"nX c #92B0C8",
"mX c #A0B7C6",
"MX c #C9BFD7",
/* pixels */
"                                  .     .   .           X     X . . . . . . O . O           X   O O O                           X   X X                   .   .                                         ",
"                                  .   . .                           O .         .       O X   O   O O   O O O O   O     O O . O                                                                         ",
"                                                            X       O O O O > + O O O O   O   O O O O O O O . O + O .   . . .     O O   X   O O O                                                       ",
"                                                        X     O       O       O   O . O > 5 5 9 9 8 9 5 5 5 > 5 O . O . . O + +               X   X   O     O                                           ",
"                                  O   O O               O       X X X ; e e $.b 5.5.y.y.D.D.D.K.G.D.F.F.D.S.5.5.5.5.>.:.P y ; X O O .             O       O O                                           ",
"                                      O     O     O   O @ @ # , e t P $.$.>.2.6.' @.' @.@.o.o.X.O.@.O.O.O.O.L G ;.;.;.;.>.1.6.2._ i y y 5 # O O O   O     O   X                                         ",
"                                  O O   O O . O O O O # = 7 y w L ' X.N B I H H s.s.B.C.W.W.!.XXQ.Q.Q.Q.Q.!.W.W.j.j.+.T E I B B ( ( ( i i 7 7 # X + @ O O                                               ",
"                                  O   O     O O # + + + + + + 5 5 5 9 9 M X.#.V.Z.OXOXOX5X5X6X7X7X7X7X7X6X6XXXoXoXOXI.V.g.o.M 9 + $ + % 5 & 5 5 < + + @ O O O                                           ",
"                                  O O O . O . O + . . . & 5 8 l 0.9.a.].<X<X1X1X1XsXsXsXuXuXaXaXaXdXpXuXpXaXpXuXuXyX1X4X3X%X$X].H.G. .j * % . . O . .   O O O O                                         ",
"                                  .   O O O + + . + 5 c | 3.F.H.a.a.a.p.p.p.p.p.p.p.p.p.A.A.L.L.L.q.A.L.L.q.p.9.9.t.t.t.p.a.a.G.G.G.G.G.D.3.| v 5 & + . # +                                             ",
"                                O O . O . + . + w w 8 j 8 8 8 * f f f f f f s x x z z 0./ ....7.8.L.q.8.0.0./ / z x x x x s s s g 6 g * g 6 6 8 8 = + + . # .                                           ",
"                                      . . O + . .   . . + & & $ $ $ % % % % d d $ % * a g g k ! 8.P.t.h z z a h x s f a d d % - $ % * - * & $ + & $ . . O . .                                           ",
"                                        .   .   + . + . .   .   o X X o X X .   $ $ $ $ % % a h ! 8...g a g % % . . .   . o o . % = & . . . . . . .       X .                                           ",
"                                                          . . X X X X X X X X .   . . . . 5 8 i @.9 ' 2.< O 7   # X . . . X o X o + .       . o   .               .                                     ",
"                                                  X   .           O O O O : : 1 : : 1 2 n A K %.U.U.T.z.U S S 2 : : : : : O O O       X X X       X                 X                                   ",
"                                    X   X       O O X   O O   O 3 B J +.<.b.b.Z.^.^.{.}.OXoXoX=XhXbXjX=X8X=X!.XX{.{.^.J.n.n.<.O.$.e @ O       X               X                                         ",
"                                            O O O : : t %.-.l.M.V.J.J.I.|.+X*X&X:X:X:X4X4XrXrXtX0XMXxXtXtXtXrX4XqXqXqX:X&X+X|.^.R.R.C.M.M.6.$.C @ @ O   O   X                                           ",
"                                ; X     X @ , , $.*.1.x.j.k.m.Z.}.+X*X0X0X&X&X$X$X@X].'.'._.~.G.J.4X+XS./.P.H.`.`.'.'.@X#X>X3X0X*XoX(.Z.N.1.-.*.1.*.$.t O O O @                                         ",
"                                  O X @ t p p p F D F 4.J.+X#X#X/.J.S.4.#.[ ] ] { ] ] ] | 4.5.y.n.b.v.v.F.S.| 4. . .} } ] | | 4.r.K./.@X#X#X~.F.:.L u G *.$.,                                           ",
"                                X @ t e e < e u c 3.~.~.y.i.{ k c c w j ) ! ` ( ( Q ( ( ] :.4.c.b.R x.Z.2.J [ w ` ( ( b c ( c k ! z h a k ..w.y.F.S.:.y O + u :.# @ .                                   ",
"                                , < < O   + y b 3.b d % d s s % - = = = y y 8 = u F L L L K K &.T.5X!.l.s.V 1.F G i i y y y = = - % d d d d d * k | ,.,.[ 6 & . = @ O .                                 ",
"                            O   .   . . + 7 8 b . $ - % $ $ $ $ $ . . . . # < y < r C C S &.-.l.z.jX8Xh.h.h.&.C C e e # # < # . . $ . $ . $ $ . % . . * ! ) 6 . . X         .                           ",
"                              . + + O + & = . . $ . . . . . .       X O X O O O O : : , t V %.l.h.8XQ.h.k.k.V 1 , O X X O @ O   O . . . . .   . + + # # . + > e                                         ",
"                                . . . . . . . $ .   . . . . .     O   O r 6.(.-XfXgXcXcXmXvXvXvXbXbXbXbXbXmXnXmXcXzXgX,X.XE.$.t       O     O     O         O       X                                   ",
"                                        O       <   O . O + + . 6.R.9XlXzXzXgXgX9X-X=XW.R.Y.m.m.l.l.l.l.l.Y.Y.R.(..X-XfXgXzXzXzXfX-X6.t @ @ O X X X @ X   X X                                           ",
"                                    X X X         O < : + L ^.,X,X-X{.m.&.V 2 n 1 , , : , t 2 2 S V V n 2 n 2 n 2 2 2 1 V S %.=.T..X9XfXQ.6.t X O O         . .         X                               ",
"                                        O   O   @ O O Z R.(.N.=.n n 1 1 2 2 2 2 S V C C A A K Y A K A K A A K A S V n 2 1 1 2 V V 1 : S m.W.(.N.r O . . $ . . $ .                                       ",
"                                                O C $.-.&.2 : : 1 1 : 1 n V V n 2 V 2 1 1 , : : : : : : 3 2 2 2 V C C V S V 2 2 1 1 V n O O r $.>.i $ . . . $ .               .                         ",
"                                . .   .   . O O O r , , O : , , 1 1 : 1 1 2 2 2 : : : : : 4 1 : : : 3 , < 1 1 : 1 : 1 1 : 1 2 n B 4 O : : > > > i u #       .       X       X                           ",
"                                . . . . .     . O @ O @ O O r O O O > < : O O O O O : : : 1 : 1 1 4 1 : : : : : O : O O O O O O + & + 5 9 + + O . # #     @ X                                           ",
"                                            . O = . . + . & :.& & . .   . O > 3 > , : : : : : : 1 1 1 1 1 1 1 , : : < < < + O + + 5 . . c 8   <     O @ X     O                                         ",
"                                    X         . . . . - . - G.} - - $ $ = + + + # + < 3 4 q q D F F D u q 3 3 > < < > + O + + + . 7 o p y.4..   @     O X O   X                                         ",
"                                      .     O .   . . + . . :.).D.,.c - i b 8 % - 8 l l c c v ` } r.,.v { v l b 8 8 6 = 5 8 i c c 8 3.[.~.<   , .       X O O                                           ",
"                                          . . O .   + O .   + F ).[._.y.{ d k } } } .. . .i.w.e.e.`._.e.e.r.i. .,. .} ` ` ` ] } D.;X;X3.. O + + O       O O .                                           ",
"                                          X O .   . + .   O . . % ,.'.3X4X@X`.H.t.t.t.r.e.r.r.D.`.<X<Xt.e.t.e.e.7.w.e.G.[.%X3X4X#XS.6 + = 5 .   O   O   O X                                             ",
"                                        . O . O       . O 5 7 + . $ $ j e.].3X4XeXwX4X3X<X$X%X$X4X4X4X%X$X$X$X2XrXrXrXrX;X'.y.} % + + & .     <   O     O . O                                           ",
"                                        .     . +   O   . + + + 7 7 6 & $ & l Q r.F.J.#X>XtXkXkXkXkXkXkXkXtX0X3X+X/.3.] j 8 5 & + * & + + + +   O       O O O                                           ",
"                                              O + .   + O .   + . . 5 7 7 7 9 q 5 B ~ O.2.2.c.b.Z.Z.Z.V.b.M.<.B D B D u w q 5 > & + + 5 +   O < O                                                       ",
"                                                O   O + # . + + < O O O : 7 q q F J J O.T T T R -.s.s.R s.j.x.-.O.T J q 3 > > > . O . + . + +       O O                                                 ",
"                                                .   O . O + + O + > > 5 5 9 q B J J E E E R R s.B.s.s.j.s.E Y E H J J ' B 9 5 5 w 5 + & + O . O   O                                                     ",
"                                                      O .   5 _ w j 0 l j W ^ ~ Q N X.I X.o.+.+.B.B.B.f.d.d.E I N N ~ ~ ) Q W j 8 8 i F y .                                                             ",
"                                              O   .   O   O y :.! ! ! Q ! Q W Q W M ^ X.o.+.+.d.V.V.V.B.d.d.+.I X.N M M W j W j w i ( :.;.7 O O O       O   .                                           ",
"                                                O     O     # i ] ] ] ! Q 9 5 > M M N X.o.+.+.d.s.B.f.f.d.+.+.o.I N M M 9 M 0 0 ] _ c i #         O . O       O                                         ",
"                                          X O   X O O + + O   O O + 9 F @.4.S.J.b.n.n.c.x.x.+.R s.s.s.s.x.d.x.<.b.b.c.c.v.n.4.4.7 # + O .   O < O O O O       O                                         ",
"                                          X         O + < # + + < @ , < , 3 r D <.x.M.Z.R.}. X X X!. X XW.{.W.W.Z.N.M.<.L m : O + + + < < < + @ O O O       .                                           ",
"                                      X       O     O   . O @ < e , , , t r r C 3 C C Z S Y Z Y Y Y =.R Y Y K Z C V 3 V C C D D 3 7 7 < #                                                               ",
"                                                O               O O O O : : > 4 3 3 3 m C C C C C C Z Z A C C C C r 4 : : : : : O .   O     O @ O           .                                           ",
"                                            O         O   O O       O O O O O O O : : O : O 1 : 1 : : : : O : : O O O : : > : O O . O   O       O     O                                                 ",
"                                                                    O   O     O O O O O O O O O O O O O O O O O O O O O O O O                                                                           ",
"                                                                            O         O   O   O O   O   O             O                                                                                 "
};
