/* XPM */
static char *_1674927852[] = {
/* columns rows colors chars-per-pixel */
"100 50 254 2 ",
"   c #4E1B1A",
".  c #571919",
"X  c #4F1B0E",
"o  c #63161C",
"O  c #4B270A",
"+  c #56260C",
"@  c #57360B",
"#  c #4B2719",
"$  c #572718",
"%  c #593617",
"&  c #4D3514",
"*  c #622917",
"=  c #633716",
"-  c #61350D",
";  c #590E2A",
":  c #4C1627",
">  c #5B1323",
",  c #541A22",
"<  c #54142C",
"1  c #5B132C",
"2  c #571823",
"3  c #5C0D3B",
"4  c #590D36",
"5  c #4B1338",
"6  c #5C1233",
"7  c #5B123B",
"8  c #541438",
"9  c #4C0E3D",
"0  c #630D29",
"q  c #621426",
"w  c #640D38",
"e  c #621134",
"r  c #582424",
"t  c #5A3A22",
"y  c #643324",
"u  c #5A460A",
"i  c #5A4817",
"p  c #5A5611",
"a  c #644717",
"s  c #655717",
"d  c #67500F",
"f  c #5E640F",
"g  c #68671A",
"h  c #697619",
"j  c #6F7017",
"k  c #584B23",
"l  c #6D5426",
"z  c #696624",
"x  c #6A7724",
"c  c #747927",
"v  c #756C2E",
"b  c #5C0E45",
"n  c #5C0D4C",
"m  c #550D48",
"M  c #541345",
"N  c #5A1144",
"B  c #54124C",
"V  c #5A114B",
"C  c #57194C",
"Z  c #5C0D53",
"A  c #5C0D5C",
"S  c #570D58",
"D  c #541353",
"F  c #54135C",
"G  c #5A125C",
"H  c #591454",
"J  c #4D124B",
"K  c #620C43",
"L  c #630C4C",
"P  c #640C56",
"I  c #62114E",
"U  c #5C0E63",
"Y  c #590E69",
"T  c #541363",
"R  c #5B1264",
"E  c #55146C",
"W  c #5A136B",
"Q  c #571969",
"!  c #580E73",
"~  c #551573",
"^  c #5B1474",
"/  c #551A74",
"(  c #5A1A74",
")  c #55157B",
"_  c #5B157C",
"`  c #551B7C",
"'  c #5A1A7C",
"]  c #4D166F",
"[  c #620C66",
"{  c #62167B",
"}  c #630E70",
"|  c #4C237B",
" . c #847832",
".. c #6D881C",
"X. c #798829",
"o. c #79972A",
"O. c #7A8938",
"+. c #7B9733",
"@. c #6C8D29",
"#. c #75A62A",
"$. c #7AAC34",
"%. c #73A81C",
"&. c #7CC233",
"*. c #80931D",
"=. c #869836",
"-. c #868A32",
";. c #89A739",
":. c #88B539",
">. c #90AE36",
",. c #8BCB39",
"<. c #859843",
"1. c #888343",
"2. c #8BBA45",
"3. c #96B748",
"4. c #92AD4E",
"5. c #9DB15C",
"6. c #89C746",
"7. c #96C647",
"8. c #97D949",
"9. c #9BD954",
"0. c #90D04F",
"q. c #A4D958",
"w. c #A7D054",
"e. c #9BE856",
"r. c #9AF759",
"t. c #96ED4B",
"y. c #A5E75A",
"u. c #A3F35A",
"i. c #A2EC4E",
"p. c #9BD672",
"a. c #ABCF72",
"s. c #9BEC69",
"d. c #98F567",
"f. c #9BE979",
"g. c #9AF276",
"h. c #8CF866",
"j. c #A8EA67",
"k. c #A3F269",
"l. c #A7E879",
"z. c #B2E677",
"x. c #A6F376",
"c. c #4E1C84",
"v. c #5B1683",
"b. c #551B84",
"n. c #5A1984",
"m. c #5C168B",
"M. c #551B8B",
"N. c #5A198A",
"B. c #551684",
"V. c #5C1693",
"C. c #561A92",
"Z. c #621483",
"A. c #621689",
"S. c #621495",
"D. c #650D99",
"F. c #512185",
"G. c #753EBC",
"H. c #737499",
"J. c #6B58A9",
"K. c #7258A9",
"L. c #6B4AB8",
"P. c #7647B9",
"I. c #6A54B6",
"U. c #7557B8",
"Y. c #6B48A9",
"T. c #7668A8",
"R. c #6C75A8",
"E. c #7876A9",
"W. c #7768B9",
"Q. c #7C75B7",
"!. c #6B67AD",
"~. c #655C98",
"^. c #7C3DCA",
"/. c #7C3DD3",
"(. c #7D3CDB",
"). c #753ED8",
"_. c #7C3DE4",
"`. c #6C49C7",
"'. c #7443CC",
"]. c #7C44CD",
"[. c #7748C7",
"{. c #7557C7",
"}. c #6E46D4",
"|. c #7544D3",
" X c #7C44D4",
".X c #7C43DB",
"XX c #7849D6",
"oX c #7353CB",
"OX c #7664C7",
"+X c #7E73CA",
"@X c #7B45E3",
"#X c #7A44F0",
"$X c #823DBE",
"%X c #8047BB",
"&X c #8374B0",
"*X c #853DC9",
"=X c #843DD4",
"-X c #833DDB",
";X c #8A3CDB",
":X c #8A3BD7",
">X c #853CE4",
",X c #913AE1",
"<X c #8242CD",
"1X c #8644C9",
"2X c #8342D3",
"3X c #8442DB",
"4X c #8A43D8",
"5X c #894FCF",
"6X c #8870CE",
"7X c #8542E5",
"8X c #8044F2",
"9X c #876FE1",
"0X c #798A98",
"qX c #7B83A7",
"wX c #7A83B6",
"eX c #7CA798",
"rX c #7B87C1",
"tX c #849498",
"yX c #91AE96",
"uX c #8A9BA5",
"iX c #8888B7",
"pX c #8E93B1",
"aX c #8BA5A7",
"sX c #95A7AC",
"dX c #98B6AA",
"fX c #98A8B4",
"gX c #98B6B6",
"hX c #8EAFB0",
"jX c #A5B5B1",
"kX c #A0ABA0",
"lX c #9BD795",
"zX c #99CC94",
"xX c #A5D888",
"cX c #A7D698",
"vX c #B7DB97",
"bX c #ADD18E",
"nX c #9CE487",
"mX c #99E592",
"MX c #A8E886",
"NX c #B5E688",
"BX c #A8E595",
"VX c #ACEB8B",
"CX c #99C7A6",
"ZX c #9CD2A8",
"AX c #A7C7A9",
"SX c #A8D5A4",
"DX c #A4C5B7",
"FX c #B3D2AC",
"GX c #A6E1A6",
"HX c #C2DE96",
"JX c #8F91C8",
"KX c #94A9C5",
"LX c #AAA3D8",
"PX c #ABC8C4",
/* pixels */
"' n.V.S.D.D.A.{ { Q ' b.b.` ` ` ` N.n.N.b.M.N.N.N.N.V.N.C.V.V.C.N.F.b.b.' ' ' ' ' ) ' n.N.N.C.C.C.C.M.b.F.| ' F.N.M.C.C.C.F.F.F.n.n.Z.n.n.n.b.b.b.b.b.n.B.N.m.m.C.C.M.c.| | c.b.v.m.S.S.S.v.n._ N.N.N.B.",
"/ ` V.V.D.S.A.{ { Q ~ b.b.` / ` n.n.n.n.b.' b.n.N.N.N.N.N.N.N.N.N.b.M.N.N.n.v.' n._ ' n.b.N.M.M.M.m.N.n.' ' F.n.M.C.C.C.M.M.b.M.m.m.m.n.n.n.n.n.' n.b.n.N.N.m.N.M.C.N.' ` / / ` n.v.v.v.B.v.b.n.M.N.v.N.",
"| | M.C.C.m.) ~ ( / ` B.v._ ' { ~ ' ( ' ' ' ' ' ` ` ` ' b.n.n.v.N.S.S.V.V.C.C.M.M.c.c.B.b.N.b.B.n.n.' ' ' n.n.N.C.C.S.C.V.N.n.n.M.C.C.M.N.Z.Z.Z.Z.{ ' ' b.` B.) _ } ^ ( Q Q Q Q E ~ ^ ~ ~ ' ' ' N.N.N.n.",
"| | c.c.B.' Q Q Q T ] ! ! ! R R A T U R R E T W Q ( ( ( ( / ` _ A.S.A.m.V.C.C.C.C.C.M.C.B.b._ v.Z.n.n.v.n.Z.n.A.S.V.V.S.A.Z.Z.n.N.M.N.v.n._ _ { ^ ^ } ^ / E E W U A Z Z H V H D F T W W ^ ~ E ~ ) _ ' ~ ",
"] ] ! E Y T H H D D S S S Z I I V Z Z Z Z G A R R W Y ^ ! ^ ^ _ { { { ' ' ` b.F.C.C.C.V.A.A.{ Z.m.m.m.m.n.n.Z.n.A.A.S.A.Z.{ { ( ( ( ( / / ] ] ~ E T A A Z P L L L I n B N b V D F G R Y Y ! ^ ! E E E E ",
"T T U P n M 5 : : : 5 5 < : 2 . > > < < 8 3 M J m Z S F A U U W W R R Q Q ( ` b.C.V.V.V.A.Z.{ Z.V.C.C.M.n.n.n.n.v.n._ _ ' { ( ( R W W W E T T F D D M m 4 4 4 1 ; < < 5 < : : < < < 5 9 m m n G F F F F ",
"[ P P K ; .   $ & & t k i a u @ @ @ @ O $ #   : < 8 8 M m b V V V V H D G T Q ) v.B.v.A.A.Z.{ v.C.C.M.b.n.' ' ( ( ( ~ ~ ~ ~ W W W U T U S S m V M 8 < : . $   + # O # & t t k i % i i % $ + .   8 M C C ",
"L L w 0 . % a g O.+.4.4.4.5.>.>.=.=.X.c g s i i & $ # r   : < < < < 8 M D R Y W ^ ! ! _ { { ' ` N.M.N.b.' ( ` ( Q E T W E E W T S Z b b b 8 1 >     O & & u i p x x O.<.<.4.4.4.4.4.>.=. .g u %   5 5 8 ",
"K 4 > r a j -.3.q.j.k.k.j.j.j.j.i.i.e.q.9.2.4.=.O.v z k i & O O X : < 9 m A [ A S G D D ] ] | ] ] E E Y ( ^ W W R T T F F T F D 8 < > . . $ + @ @ p g h X.+.2.3.0.y.y.j.j.j.j.u.y.u.u.y.w.3.-.z y y   , ",
"4 < $ % z -.:.q.e.r.r.r.d.x.x.MXMXMXMXMXMXNXNXNXa.a.5.4.<.c g s i t   : 5 8 b b 4 m M C D F ] ] F H G A G [ U U A G S B J 9 9 5 : O O + @ d j c =.;.5.a.a.NXBXNXl.z.NXNXMXVXx.x.u.u.r.i.u.i.2.<.v y . X ",
": , $ s c ;.9.u.r.d.h.d.g.nXcXCXfXKXKXfXfXjXjXAXFXSXvXNXl.p.6.2.O.z s k u O X X 2 > 6 8 J m J V N L L Z P U A A n m 3 <     X + & i g c o.>.3.w.z.z.bXvXFXDXgXgXsXsXsXsXhXdXZXmXg.r.r.t.u.i.8.3. .l * X ",
"    % s c 3.9.e.r.r.r.g.f.zXtXqXU.`.`.I.U.!.!.H.0XeXyXyXcXxXBXNXzXa.5.<.h u u @ +   , < 4 < ; 6 8 w b L Z L I V 4 <   X O @ u s z O.4.5.a.NXHXHXa.kXyXtX0XE.!.J.K.U.U.U.W.qXaXzXnXh.r.t.i.i.8.3. . .% + ",
"> q = a c ;.9.y.i.r.s.l.zXyX&XJ.oXXX}.}.}.oX`.L.L.I.K.T.&X&XfXjXPXFXvXa.5.>.X.g p & # r r r o . > e e 6 w 7 8 < r + @ @ u g  .=.p.a.cXSXAXjXpXiX&XOXU.L.I.`.I.oX'./.2X].`.U.qXaXlXg.r.u.u.i.,.>. .= - X ",
"; . $ a z +.3.9.u.r.u.f.zXsXE.Y.XXXXXX@XXX@X@XXX X'.[.G.[.P.1X%XT.tXyXAXHXHXa.4.<.c l k % = + + $ 2 2 , $ @ $ @ u u f c =.5.a.HXbXAXdXtXR.J.L.`.).)._.)..X3XXX.X3X3X7X3X].I.Q.aXzXf.s.u.i.i.:.=. .o + + ",
"0 . . @ p h $.6.t.t.r.j.cXhX+X{.P.%XG.*X<X2X2X X/. X2X2X2X].'.P.L.I.Y.T.iXdXAXvXp.5.$.@.x z g k i a u - u d d j j X.;.5.a.cXAXjX&X&XK.Y.P.P.].XX X.X.X3X2X=X*X^. X|.).|.`.W.wXhXlXg.d.u.i.7.;...d - + X ",
"w q . * p f @.$.t.t.t.g.BXDXhX+X%X1X1X*X1X2X<X2X2X|./.).|.2X].].2X X].oXI.J.qXaXFXvXl.w.3.3.+.@.z g g f j ..*.>.>.w.bXFXFXyX0X~.%X%XG.2X4X3X X3X.X X(.|./.1X<X4X2X].'.[.{.+XpXCXlXnXd.d.9.2.@.g - * X o ",
"e > > * = s x #.6.t.h.h.g.BXcXaX+X`.^.(.7X(.|.XX`.}.XX3X3X2X1X1X<X]. X XXX}.`.J.&XpXFXHXz.y.0.,.+.@.@.%.%.&.,.y.z.vXFXfX&XK.P.[.1X*X=X=X-X3X.X@X.XXX|.|.|.].|.|.|.XXoXP.W.JXDXcXl.k.y.i.6.$.x s = o > > ",
"4 ; > 2 $ = g @.:.t.r.h.d.MXp.yXiXOX^.*X3X(.).oXoXXX.X3X:X=X[.1X<X2X=X.X.X3X X].%X&XpXkXcXl.s.e.9.0.6.6.8.e.k.x.cXdXpXK.%X*X3X-X2X2X2X3X-X>X7X3X).|.|.|.|./. X3X7X3XXXW.iXgXSXnXs.u.u.i.2.+.g a y q q > ",
"4 4 ; > . % d j o.6.e.s.g.g.l.lXaXT.Y.G.4X;X2X X|.].2X:X:X:X<X2X2X2X<X].2X]. X|.G.P.U.E.uXAXcXVXj.i.t.e.x.NXcXAXsX&XJ.Y.'..X.X). X].2X3X3X-X-X-X-X2X3X3X:X>X,X>X>X_.oXW.uXCXnXd.r.r.i.,.=.c d = q q e 1 ",
"M 3 7 6 o o = s ..;.0.e.s.g.f.xXdXpX&XG.=X;X-X/.*X*X=X=X;X:X=X/..X=X].1X].]. X.X@X.X`.L.!.iXdXSXNXl.z.BXSXFXfXpXK.L.[.].XXXX|.^.|. X X X2X4X=X=X=X=X:X:X:X,X:X;X7X|.{.wXdXlXg.h.r.t.8.>. .s - o q q 6 e ",
"D B b 3 0 o * - g *.>.9.j.j.j.nXZXpXE.U./.-X>X;X4X:X:X:X7X@X@X}.=X2X<X].].].2X.X@X@X@X|.`.W.Q.iXaXdXgXhXKXJX+XU.P.[.].2X].].].XX XXX2X2X2X<X2X1X<X1X*X*X4X4X4X4X'.L.Q.aXzXf.d.r.r.t.:.X.l = * o e 8 7 7 ",
"F F B m 3 0 o o - s -.4.9.j.x.l.GXCXuXT.U.P.].*X*X^.1X^.|.@X@X@X X<X<X].]. X.X(.3X_.>X.X.XoXoXoXW.!.W.OXOXoX`.}.XX].]./.2X].].]..X X X X].].<X].^.[.[.P.P.P.P.I.J.H.uXCXBXl.e.e.8.,.@.z y * q 0 6 N N V ",
"T T S Z K w q . X @ p c +.3.9.q.k.l.xXyXtXH.T.J.K.I.U.P.`.`.}.`.].1X2X X3X.X.X3X4X-X/.*X2X(.(.|.XX|.}.XX}.}.}.XX].].<X2X2X3X3X(.(.].].].'.].|.|.[.oXI.`.U.!.W.R.tXyXzXNXz.j.q.7.+.c k t r > ; 4 b V H H ",
"] T S S Z K e 0 . + @ u f h %.#.&.8.j.NXvXSXCXdXfXpXiX6X6X6X5X5X<X<X2X(..X(. X=X/.*X*X4X2X=X(.7X7X(._.@X@XXXXXXX|.2X2X2X-X-X>X>X-X2X X2XXXXX9X5X9X6XJXJXKXKXgXDXmXxXl.9.6.:.X.h z a % 2 ; 4 3 b b D G G ",
"E E E T S B b 4 > X X @ u u f ..%.#.&.0.s.s.nXVXGXGXPXLXLX9X5X1X=X=X2X.X X2X X<X=X=X=X:X:X4X=X3X,X4X2X X XXX|.XX4X<X*X=X2X-X(.-X;X3X3X3XXXXX9X6XLXLXPXFXFXBXMXk.s.0.&.#.%...f u = * o 1 6 3 J B D F T R ",
"~ E W T F D m 3 4 > . $ @ u f j ..#.&.0.e.x.nXnXGXCXpXQ.W.%X4X4X=X3X=X X X(.2X=X4X-X=X=X=X*X].=X*X*X=X2X2X2X4X4X2X2X-X2X2X2X X2X=X4X2X X].oXoX{.{.&XLXjXvXMXs.k.t.t.&.#...h p u - * o q 7 N J D F T T R ",
"( W E T F F D b w ; . . - u g c o.,.0.h.s.BXSXdXiX+XOXoX'.|.-X;X2X=X X.X.X-X.X-X-X3X-X=X2X XXX X.XXX[.].].].1X*X=X;X;X=X2X<X[.[.<X2X<X X|.|.|.|.].P.U.&XuXyXzXMXs.e.9.2.#...f u - * o q 7 N V F F R W ~ ",
"^ ^ Q T F D B b N ; > $ = d  .=.,.i.d.d.f.zXuXT.I.}.}.@X@X@X(.(.2X2X2X X.X@X_.>X(.-X2X].[.{.OX6X9X9XOX5X6X6X5X%X<X4X;X-X X|.[.[.<X1X2X X X.X.X@X7X.XP.Y.K.H.aXCXp.j.x.j.0.$.x f - + . 0 w K H Z R E ~ Q ",
"{ ^ Q Q F D B N w 4 q * a v =.3.e.r.d.f.lXyXT.P.4X>X>X(..XXX.X X2X<X X2X.X-X>X@X_.3XXX[.I.W.JXJXJXwXqXwXpXJXiX%XP. X7X_._.@X.X|.2X*X].].]. X@X>X>X>X,X2XU.K.Q.aXzXj.x.j.p.7.o.j a % . > e b V G T W E ~ ",
"{ { W T F B V b w 0 o * a c ;.0.e.r.d.f.lXaX&XP.4X,X;X=X X'. X X X X X<X]. X3X_.@X@X|.L.!.iXfXjXgXhXeXeXCXCXjXiXI.`..X7X8X7X(./.=X2X X].'.|.3X3X>X,X7X3X[.{.&XpXxXf.s.r.e.9.;.X.d = o ; 3 K V H T W E ( ",
"^ ^ W T D B N w w 0 o * d h $.8.i.i.r.g.lXhXwXU.].=X*X].]. X-X>X>X_. X[.%XP.].2X@X#X@XoXiXjXcXMXMXnXs.f.nXVXZXDXwXW.`..X4X4X*X$X4X3X2XXX[.].<X<X-X:X=X X`.{.+XKXlXg.r.r.i.i.:.h s y 1 3 b n N B F E E ~ ",
"^ ^ W T F C b w 0 0 o - d h $.0.i.i.r.g.nXCXpXW.P. X X]. X/.(.(._._.].1X%X%X%X].XX}.{.&XfXSXz.q.s.j.s.s.d.g.mXGXgXQ.I.P.4X*X1X1X<X2X].[.].].]. X7X-X2X XoXOXJXhXnXd.r.t.t.,.%.f i y 1 3 K n m J T E E ~ ",
"^ ~ / T F S n K w 0 o $ a g o.2.t.r.k.k.nXZXfX&XU. X(.>X_..X|.XX@X3X.X/.=X=X1XP.U.J.E.sXFXNX8.,.>.>.,.,.6.6.h.nXGXhXR.I.`.3X4X1X].[.1X].].].-X7X_.@XXX`.U.Q.KXgXl.r.r.r.y.6.+.z a $ > w b m B F E E ~ Q ",
") ~ ~ E T A Z L w 0 0 * = s X.2.8.t.r.s.nXcXdXpXU.'.>X7X7X).'.'.[. X4X7X;X(./.P.J.R.aXcXvX7.>.%.*.*.*.-.#.#.$.6.MXlXaXT.I.[.2X=X X|.].<X2X4X-X-X#X_.}.`.!.pXgXSXs.r.r.e.9.2.X.s = $ . e 3 m D T T E ~ ( ",
"_ ( ~ E T T S I K w 1 . - a z +.,.i.r.r.g.MXlXgX&XU.[.4X7X:X*X=X4X=X-X;X>X#XXXoXR.eXlXVX9.o...j z z g g j j ..+.0.xXvXyXH.Y.'.8X_._./.^.1X1X1X4X3X].`.!.qXsXzXMXd.r.u.e.0.+.x i % o > e K m Z R E ~ ~ / ",
"{ _ / ~ T T S Z L w 0 . $ @ s X.:.,.r.u.d.g.mXZXsX&XY.^.;X4X;X:X2X].=X4X7X}.oX!.gXZXmX6.@.h s l k k a d d d j j o.3.z.NXyXH.L.XX#X#X7X4X%X$X*X*X2X].{.Q.uXAXxXj.r.u.u.8.:.@.s u $ . ; 6 K P Z A E ~ ~ ~ ",
"v._ ' ~ ] T T S L K w > $ $ i j o.,.8.i.r.h.g.mXCXaX!.I.[.=X7X-X<X'.*X^.L.J.tXdXvXl.4.@.k s a = t & % * - * y s j h >.q.NXjXpXJ.P. X2X=X1X5X*X2X/.[.6XJXjXcXl.s.u.r.8.7.=.g u % . 2 1 3 I I P P ~ ~ ) ' ",
"A.n.' / ~ E T A Z L 3 ; 2 . $ a j =.,.i.t.r.h.g.mXZXhXQ.J.I.P.G.L.Y.Y.~.&XsXAXHXa.<.x k k $ . .   # X . o o q * - u j =.5.HXFXfX&X%XY.Y.P.P.1X`.U.&XpXjXBXMXs.r.u.e.7.=.j a + $ 2 < 3 b P P U [ ^ ) _ ' ",
"A.n.n.) ] ] E T S S b 3 1 , . % a j =.,.8.r.d.d.g.mXZXdXuXE.H.T.R.R.&XkXbXHXa.4.c s @ @ $ . ; 6 ; . > ; 0 e 6 > $ - a d v 4.a.vXbXkXtXH.T.!.R.R.aXyXnXf.g.h.h.h.s.7.=.x s - $ o < 3 m D H U [ W ' ` N.n.",
"m.m.v.` ) ~ ] Y Y A n b 7 ; < r = a v =.7.i.r.r.d.s.nXmXvXzXAXzXjXDXHXHXa.4. . .u - - X . 6 w K 4 e 4 3 7 3 6 ; 0 > . % k s -.4.a.z.vXSXgXDXDXSXcXg.s.r.r.r.h.s.6.<.x a % . > ; 3 m S F U R } ^ ' n.n.n.",
"m.m.N.n.` ` / / Y T A Z n 7 6 1 > r t z -.>.w.y.y.j.j.z.j.z.z.z.MXl.a.4.1.l a % + . , < 7 7 K L L n n D m M 8 < > ; 6 < , & i f O.;.w.z.NXNXMXx.k.k.r.y.u.t.0.2.c z t # . 1 w K V S T E ~ ~ ' { n.N.M.n.",
"V.A.N.n.b.` ` ` ~ ! Y A G n b N 7 1 . # u g *.=.w.w.w.y.y.w.w.,.:.+.c k k $ * > 2 < 8 M B B I Z Z A U F D C M 8 7 3 b m 4 : # @ p s v O.4.7.9.l.y.q.q.p.3.4.X.x k t # : ; w L P A Y ~ ] ` ` ` n.n.N.n.n.",
"V.m.N.N.n.` ) ' ) ^ ^ Y U A Z Z b 3 5 ,   & % a v v  .-.-. .j j p u &   : 5 8 M B B D D F F R T Y Y W W T F D C B B S D n L e 1 . . r t k z v O.O.-. . . .l y $ : : 5 5 b I P [ Y ! ) ) ` b.b.n.N.b.N.N.",
"C.N.N.N.N.n.b.v.B._ ) _ W U U P S n V N 7 < < ,   # r # - - + O O X : < 8 D F T F T T T E E / / ) ) ~ ~ ~ W E T T T T U U P P L K 7 6 < , # # # # r $ , 1 4 0 4 8 M V H G U [ ^ ! ) B.c.M.M.F.N.b.N.N.M.",
"N.C.V.N.N.A.n.n.v.N.v.) _ ^ } W R R R S D B B m M J J m 9 m M m b n n B D F T ] ~ ! ! _ _ ) F.c.` / / ) ` ) B.B.n.) E R U [ [ A P A Z V M M 5 5 J 5 5 J 3 M K I G G R R R W ~ ~ _ v.n.n.n.N.b.F.b.M.M.N.",
"C.M.N.N.n.n.n.n.m.N.B.v.v._ ^ ^ ( ~ W E W R U Y R W W Y Y W W } } } Y Y F ] E ~ _ v.Z.Z.v.v.b.b.n.' ` ' b.c.M.C.m.v.~ } ^ } ^ ^ ! ! Y R F F Q Q F ] T T R R G G Y } ^ ~ ~ ` ` b.v.v.A.n.N.b.b.b.N.N.n.N.",
"C.M.N.N.A.n.A.n.N.C.N.M.N.n.n.' ) B.' ' { ' ~ ~ T ] E E E W W Y ! ) ) _ ' ' ' _ v.m.A.m.m.n.n.' A.A.N.b.F.c.c.M.m.Z.Z.{ ' ' ` n.v._ ~ W Q Q R R W Y E / ) ~ ] ~ { Z.{ ) c.F.F.F.n.Z.Z.Z.Z.n.n.n.N.M.n.M.",
"C.M.N.m.n.A.n.m.m.N.N.N.N.N.n.N.N.M.B.b.' ' n.' ` ` ` ` ~ ' { ) v.B.B.) ` n._ n.A.m.V.m.m.n.{ Z.A.A.N.b.F.F.M.N.m.A.A.Z.n.` | c.N.v.n.' { { ( } { _ ) ) v.M.M.N.A.A.m.B.c.c.F.` n.n.Z.Z.A.n.n.n.N.n.M.N.",
"N.N.N.N.N.N.n.m.N.N.N.N.M.N.N.n.N.N.N.b.b.n.N.n.b.' b.n.n.n.n.n.n.n.N.N.n.N.m.n.n.N.N.m.n.N.n.N.m.m.n.N.b.M.F.N.N.m.n.m.n.n.b.b.N.N.N.n.n.' n.n.n.n.n.n.N.N.n.N.m.n.m.N.F.b.N.b.n.N.m.n.N.n.n.N.b.M.b.b.",
"N.N.N.M.N.N.N.N.N.N.N.N.N.N.N.N.N.N.N.N.v.N.N.M.N.N.N.N.N.N.N.N.N.N.N.N.N.N.N.N.N.N.N.N.N.N.N.N.N.N.N.N.N.N.N.N.N.N.N.N.N.N.N.N.N.N.N.N.n.m.N.N.n.N.N.m.N.N.N.N.N.N.N.N.N.N.N.N.N.n.N.N.N.M.N.N.N.b.b.N."
};
