/* XPM */
static char *_1674929443[] = {
/* columns rows colors chars-per-pixel */
"100 50 256 2 ",
"   c #020515",
".  c #020A15",
"X  c #02051C",
"o  c #020B1C",
"O  c #09081D",
"+  c #02121D",
"@  c #001B1B",
"#  c #041719",
"$  c #010A0E",
"%  c #05211D",
"&  c #010522",
"*  c #020B24",
"=  c #090B24",
"-  c #02052B",
";  c #020B2B",
":  c #0B0B2A",
">  c #090626",
",  c #021224",
"<  c #0A1323",
"1  c #021A25",
"2  c #0C1D24",
"3  c #03132B",
"4  c #0A142C",
"5  c #031B2B",
"6  c #091B2B",
"7  c #121E24",
"8  c #121E2B",
"9  c #010432",
"0  c #030B32",
"q  c #00053B",
"w  c #040B3A",
"e  c #080D3C",
"r  c #090C32",
"t  c #021334",
"y  c #0A1434",
"u  c #021D33",
"i  c #0A1B33",
"p  c #02143C",
"a  c #0A133D",
"s  c #021B3C",
"d  c #0A1B3D",
"f  c #121B3A",
"g  c #0B2225",
"h  c #04212B",
"j  c #0C242B",
"k  c #0C2D2B",
"l  c #072727",
"z  c #132326",
"x  c #14242B",
"c  c #122B2B",
"v  c #182A2B",
"b  c #0D322D",
"n  c #15332E",
"m  c #022334",
"M  c #0B2334",
"N  c #02233B",
"B  c #0C233A",
"V  c #002B3D",
"C  c #0C2A3E",
"Z  c #0A2A34",
"A  c #1B2C39",
"S  c #152735",
"D  c #0C3A3B",
"F  c #093639",
"G  c #1D3335",
"H  c #143B35",
"J  c #14333C",
"K  c #19323E",
"L  c #173938",
"P  c #212E3B",
"I  c #233639",
"U  c #17453B",
"Y  c #16513F",
"T  c #24413F",
"R  c #050C44",
"E  c #080E44",
"W  c #090E4C",
"Q  c #070D4B",
"!  c #031442",
"~  c #0C1442",
"^  c #031C43",
"/  c #0A1B43",
"(  c #0A1248",
")  c #031C4C",
"_  c #0C1D49",
"`  c #00174A",
"'  c #10154B",
"]  c #111B4B",
"[  c #111942",
"{  c #080E5A",
"}  c #080E54",
"|  c #031D54",
" . c #0B1655",
".. c #121B51",
"X. c #012343",
"o. c #092244",
"O. c #002A45",
"+. c #02234B",
"@. c #0B234B",
"#. c #012B4B",
"$. c #0C2B48",
"%. c #142C43",
"&. c #14294A",
"*. c #013345",
"=. c #00334B",
"-. c #00394D",
";. c #0C3548",
":. c #143242",
">. c #193344",
",. c #193849",
"<. c #022453",
"1. c #0A2554",
"2. c #022B53",
"3. c #0C2B54",
"4. c #03255A",
"5. c #032A5C",
"6. c #0B2D5C",
"7. c #0A245B",
"8. c #132353",
"9. c #122A56",
"0. c #152D59",
"q. c #013353",
"w. c #023B55",
"e. c #00335B",
"r. c #013D5C",
"t. c #093B5A",
"y. c #0D3357",
"u. c #14335D",
"i. c #1B335E",
"p. c #173855",
"a. c #233C4A",
"s. c #293C4C",
"d. c #253746",
"f. c #243A58",
"g. c #0C1264",
"h. c #0D126C",
"j. c #041D6D",
"k. c #0A1572",
"l. c #0A0F6B",
"z. c #032C62",
"x. c #0A2C64",
"c. c #0A236C",
"v. c #052565",
"b. c #142F62",
"n. c #023263",
"m. c #0C3263",
"M. c #003D62",
"N. c #07366A",
"B. c #133464",
"V. c #1C3463",
"C. c #173A69",
"Z. c #0B2874",
"A. c #053777",
"S. c #1C3D72",
"D. c #113A7C",
"F. c #132F7C",
"G. c #233B68",
"H. c #273E72",
"J. c #1A4748",
"K. c #01425D",
"L. c #0A425C",
"P. c #174756",
"I. c #1A574C",
"U. c #274745",
"Y. c #314649",
"T. c #255448",
"R. c #2B4459",
"E. c #354858",
"W. c #275756",
"Q. c #3F515F",
"!. c #2B6758",
"~. c #366459",
"^. c #024364",
"/. c #03446B",
"(. c #08466F",
"). c #034B6C",
"_. c #09496F",
"`. c #084864",
"'. c #1C426D",
"]. c #154868",
"[. c #034674",
"{. c #044B73",
"}. c #0A4B74",
"|. c #084B79",
" X c #1A4677",
".X c #055372",
"XX c #02547D",
"oX c #0B5376",
"OX c #1B5374",
"+X c #165979",
"@X c #10516B",
"#X c #294668",
"$X c #344B68",
"%X c #275568",
"&X c #395568",
"*X c #24467C",
"=X c #24497D",
"-X c #294876",
";X c #354C77",
":X c #225B7C",
">X c #245577",
",X c #3A547B",
"<X c #1C667B",
"1X c #376865",
"2X c #2C6677",
"3X c #32667A",
"4X c #35736B",
"5X c #445772",
"6X c #456A69",
"7X c #44776C",
"8X c #456975",
"9X c #4D7877",
"0X c #587A75",
"qX c #43545C",
"wX c #4D8477",
"eX c #59847B",
"rX c #173985",
"tX c #133E89",
"yX c #213E8C",
"uX c #094983",
"iX c #194586",
"pX c #02548B",
"aX c #0C558B",
"sX c #055786",
"dX c #1D5682",
"fX c #075B95",
"gX c #1A5396",
"hX c #254987",
"jX c #245989",
"kX c #294894",
"lX c #255B98",
"zX c #32559D",
"xX c #34508E",
"cX c #036697",
"vX c #08618B",
"bX c #26678A",
"nX c #376981",
"mX c #286C93",
"MX c #357497",
"NX c #30748E",
"BX c #075EA3",
"VX c #0C64A9",
"CX c #2D64AA",
"ZX c #255EA5",
"AX c #4C778A",
"SX c #388490",
"DX c #548891",
"FX c #658A88",
"GX c #65948A",
"HX c #709F95",
"JX c #78A69A",
"KX c #6EA097",
"LX c #70ABA8",
"PX c #5B9DA3",
"IX c #88B3A9",
"UX c #91C0B6",
/* pixels */
"cXcXcXcXcXpXvXpXsXsXsXaXaXuXuXoXoX.X.X.X.X.X.X.X.X.X.X)..X).).)._._._._._.}._._.(.(._._.{._.{._._._._._.(.(.(.(.(.}.|.|.(.}.|.|.|.uX|.|.uXuXuXuXsXuXaXaXpXaXaXfXaXaXaXaXfXfXfXfXfXfXfXBXBXBXVXVXcXcXcXcX",
"XXXXXXXXXXXXXXsXXXXX{.[.{.}.|.oX).^.`.).K.K.^.K.K.K.^.K.^.^.K.^.`.^.^.M.M.r.r.r.^.^.^.M.^.^.M.^.^.^.M.M.^.^./.M.M.N.M.M.N.(././.M.^././._.}.}.|.(.[.[.[.|.|.[.|.XX{.|.XXsXXXuXsXpXpXpXpXpXpXpXpXfXfXvXvX",
"_._.@X}._.`.M.r.^.^.^.K.K.w.K.w.w.t.w.w.w.t.t.t.t.t.q.q.=.#.#.O.O.+.O.O.#.q.#.2.X.X.X.O.O.O.#.#.O.O.O.O.O.O.O.+.q.q.q.2.2.2.#.O.-.*.*.*.*.-.*.=.w.w.w.w.w.w.K.r.M./.^.^.^.^.^.).).).{..XXX.X.XXXXXXXXXXX",
"t.w.w.w.w.w.t.L.-.-.w.K.w.w.w.=.=.q.2.=.O.+.X.N s N X.O.#.2.q.e.M.`.`.C.].].].@XOXOXOXOX>XOX>X>X:X:X:XjX:X+XjX:XOXOXOXOXOXOX}.].L.L.L.K.w.q.q.-.#.=.2.q.q.q.e.r.2.q.e.r.M.r.^.^.K.w.K.r.w.^.^.^.).).).).",
"-.-.=.=.*.*.*.*.*.*.m l N m m N #.2.e.M./.{.oX+XbXbXbXmXmXMXMXMXmXmXmXmXmXbXmXbXbXbXjXbXbXdXdXjXjXOXdXdXdXdXdXdXjXdXjXjXjXlXjXbXlXlXlXlXlXlXlXlXmXgXgXaXuXtXA.A.n.n.z.5.5.4.<.2.e.e.e.e.r.M.M.^.M./.^.^.",
"O.V O.O.O.V N m m V V K.P.@X>X2XNXNXmXMXmXmXmXmX<XaX+XoX.X[.)./.).^.^.^.r.M.r.e.r.e.e.q.2.q.q.2.e.z.n.z.5.5.n.n.n.z.e.n.n.n.n.N.A.A.A.A.tXA.uXuXtXgXiXgXZXZXCXCXzXzXzXkXhXiXiX Xx.z.z.5.4.4.<.4.5.e.q.e.",
"X.X.s s O.M.OXOXbXNXNXNXNXbX<X<X`.`.`.K.K.K.w.w.w.w.w.w.w.-.-.-.=.*.*.=.#.O.O.O.O.X.O.O.O.O.O.O.+.O.+.O.O.O.+.O.+.O.O.+.+.+.+.+.+.<.<.<.<.<.4.4.5.5.z.z.v.z.5.v.F.rXrXyXyXkXkXkXzXxXkXkXiXD.F.N.<.#.#.O.",
"`. XbXMXAXMXMXbX+X+X@X`.K.K.w.w.J.-.*.*.*.V O.V N V m V N N N m m m m m m m m N m u u m u u u u u m m u u N u s m s s N N s N X.N ^ X.^ X.X.^ ^ ^ ` ) o.| +.1.7.j.j.j.c.j.c.c.Z.F.F.F.kXkXkXzXxXjXhX X].",
"SXNXbX<X.X).^.w.w.q.q.q.#.#.#.O.C C m Z m M m m u 5 t 5 5 t 5 5 5 h 1 5 1 1 1 1 1 , 1 1 1 6 , 1 5 1 5 5 5 1 5 5 5 5 5 5 5 5 5 5 t t t t t p d s d d a p ~ / _ _ ^ ` | | 1.| | | 4.7.j.7.c.c.x.Z.tXyXkXkX",
").K.K.w.-.q.-.=.#.#.O.X.X.X.^ s 3 1 , 3 3 3 5 3 5 4 5 y 5 4 5 6 1 1 1 1 , 1 1 1 1 1 , , + + , + + , + , , , , , , , , 3 3 3 3 3 , , 5 i i 6 3 3 y t i u d y t t u u s s s ^ _ ) ) | ..| 7. .7.c.k.j.c.Z.",
"L.*.-.O.V V N m 5 5 m 5 u m m u C C %.%.%.:.:.:.>.%.>.>.>.>.%.>.:.J J :.%.>.K %.B B Z Z i M i 6 5 4 4 , , , + * * * , * ; , * , , , o o o + , , * , 3 3 3 3 5 3 1 1 , 5 5 u t s s s ^ ^ _ ) ) | j.| <.) ",
"h h 5 h m m Z m ,.>.,.a.a.a.a.a.K ,.>.>.>.>.>.>.>.>.>.>.>.%.>.>.J >.J J K K K K a.a.d.a.s.s.s.s.d.P P P A S S v , + * , , o , o o + + + , , , + , , o , * , , , , + + , , 3 3 3 t p t p p ! ! ! ` ^ N s ",
"F F J ,.,.U.,.a.A A A A A S 8 S j j g g g g g g g g 2 g 2 2 g 2 7 7 7 7 7 7 7 z 7 7 7 7 z x z v v v G G I G I I Y.Y.I G x # # # # < O X   . * < < * = = = > = = * + , , , 3 3 3 t t t p p w ! p p t t 5 ",
",.K J J A Z M j Z S S x 8 8 7 7 2 2 g g g 1 2 g 2 2 2 2 2 2 2 2 2 7 7 7 7 7 2 z 7 7 8 z 7 7 x z % 7 % 7 z z z z z v v I I U.Y.Y.I I x 7 o O o .     X O + o > X * * * * * * * ; ; ; ; 0 t r r t 0 t 3 5 ",
"B B M M M M i h 6 5 5 5 5 5 5 5 1 5 1 6 6 6 1 6 , 4 4 1 1 6 6 5 , 4 1 5 6 6 5 6 6 h 6 6 8 6 5 h k g z g x g j j z k j M j j S x G I U.Y.Y.G x # + + . . . . . o o * * * * * * = = * = = = * : : 9 0 ; 3 ",
"i i i 6 i h i u 5 5 5 5 1 5 5 5 3 5 4 , 4 3 4 4 4 3 5 3 4 3 3 3 5 5 5 5 5 5 5 6 5 h h h h h h h 1 1 h g h h h h j j j M S Z S c c c % c n L U.U.T G k @ + . . o o o o * * o o o o X X o O O o * ; 0 ; 3 ",
"i 6 6 4 5 5 5 4 3 3 , , 3 , , , 4 , 3 , < < : * 3 , 3 3 3 3 3 3 , 3 4 4 , , + + + . . # @ @ @ l h 1 l l j h @ @ # # # # @ # % % z z c k k k n b U H Y.Y.S 2 <   o X o o     # . o . . o O O O O * * + o ",
"5 4 5 4 4 4 , 3 4 , , 4 4 , , , o , < , & o * < o & * 3 3 3 , * o o , 5 h >.U.E.6X6X6X9X0XeXeXeXFXFXFXFXFXFXFXGXFXeX0X6X~.T.H U k l % @ % % n n n % n T Y.qXE.v 8     . o .   . . . o . . . O O . o . + ",
"3 3 4 3 3 , , : , , , * * * * = o o * , * * * 5 i 3 & X X 3 u %.R.&X1X8XAX0X9X9X6X4X4X1X1X1X1X1X!.1X~.1X1X4X7X1X7X9XeXGXGXHXHXJXHXeX7X~.T.b # $ % n n v g n a.U.d.d.6 . . . .   .   . X . O O $ o o + o ",
", , * , * * * , * * * * * * * * * X X * 3 ; & - & & t %.R.$X5X8X1X&X%XW.R.,.,.J.D :.F D F F F F F D D F D U L J.U.J.T.T.T.T.~.~.wXeXeXIXIXIXeXeXT z % % L L b L d.Q.E.S , .   * X .   . . O O O o . . + ",
"3 * , * , , * * * o * * * * * & * & & * ; & - 0 9.f.$X$X$XE.s.%.:.:.C m u m m m m m Z h Z Z Z Z h Z l l l Z k k k k b b U U T Y Y T.T.T.~.wXGXJXIXIXwXY % b k c A >.Y.E.s.3   * o o X X         . o . . ",
"* , * * * * * * * o X * * X X o & * & & & 0 @.u.G.G.i.&.&.B d i u t u Z B Z 6 5 i 6 5 5 3 , , + 1 1 6 2 h h j g 1 g j j v v v v n U U T.Y T.!.!.wXwXJXUXeXY l L n J >.E.&Xs.4 X & o o X O $   $ . . o + ",
"* * * * * * * * * & o & X & X & X & & - 0 ] V.V.0.3.@._ d i i i S 6 3 * * , 3 < < * , , < < 4 < o + < # + < < 2 2 2 7 7 7 8 z z v c b U U U Y I.Y ~.wXwXJXUXeX@ D L ,.J s.&Xf.* & & X X     $   . o . o ",
"* * * * & & * X & * & * & & & & O & & - / i.b.) ` ` ^ s p 3 3 * * * 3 < 4 < * o * * = + * o * o = + = O < + + O < < 2 O + # 2 z z % % k % U U U Y T.!.7XwXJXIXwXl Z :.,.s.$X$Xf & X X     O $   . o . o ",
"* * * * * & * & * & X * & * & & & & & r ] 9.| ` ` ` p p t t 3 , , , , + , + * o o , o , o + , o o + * + + o + + + , , + , < 1 1 2 1 g g k c L L U.J.I.!.4XDXLXLXF ;.;.,.,.R.5Xf.& & X X     $ $   o . o ",
"* ; * * * * & * & & & X & & & X X X & 0 [ @._ ` ` ` ! p t 0 ; * , , * + o + o + , o + o , o o o * * o * , * , , , , , < 1 1 6 6 < 6 j c v S G L H ;.W.1X4XSXPXLX-.*.m R.f.R.5Xf.& & X X           o . o ",
"* 3 ; * * & * * * & & & & * & & & X & - t / _ ` ! ! w w 0 0 3 : * * * , * * * o o X o X o o X o o o o & * * * * * * , , , , < 1 8 8 6 6 j S J ,.J.W.W.I.4XPXPX4XF ;.;.p.s.$X5Xf & X X           X X o o ",
"; * ; * * ; * * & & * & & * & X & X & ; 0 p a ^ p w p w 0 0 0 ; ; * * * * * * * * * O = O * O O * > O = = = : < * = * , : 4 4 4 y f S %.%.>.;.F ,.P.%XNXPXPX3XO.O.p.p.p.$X5Xf.X X X X X X         . X o ",
", ; * ; * * ; * * * * * * & & * & o & & * ; r p p ~ ! p w 0 9 - r r : : : > > > : = = = > = > = : : : : : : : : 4 r 4 4 y 4 f f f f o.B $.;.P.P.@X2XDXDXnX#Xp.#.p.#.$.$X5Xf.S O X   X     X   X X o o o ",
"; 3 3 ; ; 3 * * ; * * * * ; * * * * * X & & - ; 0 0 r a a p p w w r w 0 0 0 - - - ; : - = = = ; = : : : = 3 4 : 4 5 4 y i i 8 f %.&.&.y.p.@X2XnXnXAXnX`.O.+.y.9.C.'.;X,XG.y X X X     O O X > X X o o o ",
"3 3 3 3 3 3 ; 3 * 3 * ; ; * * * * o * * & * & & - - - w e p ~ _ p ! p ! ! p p p t t t y 3 t 3 3 3 3 4 5 y t u u i d M B C $.:.;.y.].>X3X3X3X>X%X].O.s #.y.$.3.].'.,XxXp.t X   X       O X X & X X o o o ",
"3 t 3 3 3 ; 3 ; ; ; ; * 3 ; 3 ; , * , * * * ; = = ; - ; 0 0 0 w ! ! ^ / ^ ^ o.o.^ X.N s X.N X.N N i m B B C %.$.;.,.p.p.P.#X#X%X>XOXOX'.t.q.+.+.o.$.u.u.y.C.#X-X,XV.p & & *   X         O X X & X X X o ",
"^ s s p p p p t t t t 3 ; 3 ; ; 3 ; 3 * ; ; ; ; ; 3 : ; : ; * ; ; 3 ; t t u s s X.o.$.$.$.3.9.;.&.>.&.f.p.f.f.f.f.f.f.i.p.0.&.3.#.2.+.+.2.2.9.u.3.u.V.G.$X;X$X#X& & o o X o     O o X X X > X & & * > * ",
"o._ ^ ^ ^ s p t t w t p p p d y t 3 t t 3 3 3 3 t 3 3 3 3 5 4 3 3 , , 3 3 3 3 3 0 3 t p p ^ ^ s / X./ a d ^ p ^ ^ _ ^ X./ o.^ X.+.<.<.2.6.6.0.i.G.-X;X,X-X0.w & o   X   X X X X X X O X O X O & & & * o ",
"^ X.^ o.o.@.@.@._ @._ / / / ~ ! p t p t t p t t t t t 3 t t t 3 4 4 6 i 4 i i y i d y d d d / ^ s ^ s X.X.X.+.+.+.X.+.+.<.2.3.6.3.9.0.V.G.H.;XxX,XG...w - - - ; & X     X o X X O X * & & & > O O o o o ",
"B.B.6.3.2.<.) ^ ) ) ) | ) ` | ) ^ ! ^ ! ^ ^ ` ! ^ / ! / / _ _ d t y y t i d d / ^ / / d ^ _ ^ ^ <.<.2.<.2.<.<.<.5.5.5.6.6.6.m.u.G.G.;X,X;XG.0.[ q 0 9 - ; ; & X X o X X X O O X X > & & & = & & o o o O ",
"iXtXD.D.D.D.A.F.n.c.x.z.4.<.<.<.4.5.v.4.<.4.| 4.| | | | | ) | ) 1.@.@.) 1.@.| @.1.) 1.1.7.7.1.4.4.5.z.z.z.N.x.N.x.N.N. X*X*XhX;XR.U.A 5 o X X o o           . O o X X X * & O & * & = = > = & > * * o * ",
"v.v.z.A.D. XiX X X X X'.D.C.C.N.x.x.x.z.z.v.4.4.z.x.x.5.6.6.4.z.4.4.4.4.4.4.4.4.4.z.x.x.b.x.B.m.C.C.C.'.S.*X*X-XxX-X-XG.B.3.) s X . o + + . $   . . . . . $ $ $ o * & * * = > * > > - & - - - - - & & * ",
"s u p s s ^ ^ ^ 1.1.0.b.V.H.H.*X*X*X*X=X*X=X*X*XS.S.S.S.S.S.S.S.S.S. X X X*X*X*X*X=X*X*X*X*X*X-X#XR.R.p.,.%.%.%.* * * * * * X X o & o X o & * * X o X X     O O * & & & & = * & ; - - : ; - - : 0 9 0 0 ",
"m d u u s u u t t p p w p p p p ^ ) ) +.1.1.3.9.0.i.i.i.i.i.i.B.C.B.B.B.b.x.u.6.1.1.1.1.| ) ` p ; * * o X X     o o o o o . o * ; * - - & * & ; & & ; > = > > = = = = - ; ; - - : 9 - ; 0 9 r 9 w w w w ",
"0.9.@.X.s s o.s s u u t 5 3 3 3 3 t 3 3 0 3 0 3 ; ; ; ; ; 0 ; 0 ; ; ; 0 ; ; ; ; ; ; - ; ; ; ; ; ; ; ; ; ; ; ; ; - = > > * > > > ; - - 9 ; 0 0 ; - - - - - : - > - - ; ; 9 : 0 r r r 0 9 r 9 0 9 w q e w ",
"-X-X-X'.V.y.$.+.X.^ N X.N N N s t t t 5 3 t 3 t t 3 t 3 0 3 t ; 3 t 3 ; ; : ; * ; = * = * : ; : ; ; 0 ; : - : ; : ; : ; > > > = 9 0 0 0 0 - 0 ; 0 0 r 0 9 9 9 r 0 r r 0 0 r 0 0 9 0 r e e e ~ ~ [ ~ ~ [ ",
"q.w.].].=X>X>XjX_.].N.n.5.4.<.` s s u s s s s s t p p t p p p t 3 ; ; 3 3 3 ; 3 : 3 ; : 3 : : ; ; 0 ; 3 ; 3 3 : ; 3 : ; : ; = ; 0 t t 0 0 ; ; 0 ; 0 0 ; ; 0 r 9 0 - - 0 0 0 w w ~ ~ ~ ~ E ~ E ~ e t y p ",
"* ; ; 0 s O.+.2.'.'. X X XhXdX=XC.y.y.3.+.+.) ^ +.+.) ) ^ ^ ^ p s u p t t p y t 3 0 3 ; ; ; ; ; ; t t 3 0 0 0 0 ; 0 ; 3 ; ; ; ; 0 0 0 0 0 0 0 0 r r r y e e e e a a a ~ ( [ [ [ ~ ~ ( e e R w 9 - - - ; ",
"t t ; ; & & ; ; & ; 3 t s o.&.&.'.'.'.'.'.'.'.'.B.m.x.6.6.5.<.| ) @.^ ^ ^ ! ! p ^ ` ` ! ! ! ! ! ! p ! ! ! ! ! ! ! ! ! R ! ! ! R W ( ( ' ( ~ ~ ( ( ~ _ ' ' ' ' ' ~ ~ ~ ~ e e e R 9 w q q q q q q w 0 w w ",
"& * X X * X X X X X X X X     X & 0 0 w ^ ^ +.1.0.i.i.V.V.V.V.G.i.i.V.V.V.i.i.V.9.9.9.8.9.9.9.8.@.8.8.......] 8..._ ...._ ..........' ' ' ' ' ( ( ~ E E E R Q R 9 q 9 9 9 9 9 9 q q q q q q R R R R ( W ",
"    O O O O X X   X X X X X X X & * X X X X X X X X X X & - > - 0 w w w p ~ ~ ( _ _ ' _ ] _ ] ' [ [ f f [ f [ [ [ a ~ a ~ ~ ~ a q 0 0 9 - - - - - - - - - 9 9 9 9 q 9 w q w R w R R E E ( W W ' } { }  .",
"            X O X O X > X X & X X   O   X   X X O > X O O X X X & & & & & & & & & & & - - & - & & X & X & & & & & & - & & & - & - & - & - & & & - - - 9 9 9 e q R R R R R Q Q Q Q W W } }  ...{ g.g.g.g.",
": * & = & * > * & & & * & & > & X & X X & O & O X X & X > X X X & & & & & & & & & & & & & & & & X & & & & & & - > - - - - - 9 9 9 9 0 9 9 e q e w R R R Q W W W } } } } { { { { { g.g.g.g.g.g.h.l.l.h.g.",
"; - ; & & = * & & & & & & & & & & & & * & & X & * & & & & X & & X & * & & X & & X & & & & & & & & X & & & & - - - - - > 9 r r r r 0 e e e e R R Q W W W } } { } { { g.{ g.g.g.g.g.h.h.h.h.h.h.k.k.k.k.h."
};
