/* XPM */
static char *_1674929676[] = {
/* columns rows colors chars-per-pixel */
"100 50 255 2 ",
"   c #040301",
".  c #0D0200",
"X  c #050A02",
"o  c #0C0902",
"O  c #140101",
"+  c #1C0101",
"@  c #1C0801",
"#  c #160209",
"$  c #1B0109",
"%  c #170909",
"&  c #1A1105",
"*  c #230102",
"=  c #2B0102",
"-  c #2C0A04",
";  c #25020B",
":  c #2B020A",
">  c #2D0B0A",
",  c #240A05",
"<  c #330202",
"1  c #3B0203",
"2  c #330A03",
"3  c #3C0B03",
"4  c #34030A",
"5  c #3B030A",
"6  c #34090A",
"7  c #3D090B",
"8  c #3B1606",
"9  c #2B0012",
"0  c #340112",
"q  c #3A0213",
"w  c #3C0A13",
"e  c #390A17",
"r  c #430303",
"t  c #4B0103",
"y  c #440B02",
"u  c #4A0C03",
"i  c #43030B",
"p  c #4C020B",
"a  c #44090B",
"s  c #4B0B0B",
"d  c #540203",
"f  c #5B0202",
"g  c #540B03",
"h  c #5A0C03",
"j  c #53030B",
"k  c #5B030C",
"l  c #530B0C",
"z  c #5B0A0B",
"x  c #441200",
"c  c #4B1103",
"v  c #4A1508",
"b  c #541300",
"n  c #5B1303",
"m  c #531900",
"M  c #591708",
"N  c #440212",
"B  c #4B0211",
"V  c #4C0A12",
"C  c #44021A",
"Z  c #4B0E1D",
"A  c #450A18",
"S  c #530213",
"D  c #5B0213",
"F  c #540B13",
"G  c #5C0A13",
"H  c #54011A",
"J  c #5D041A",
"K  c #5B0C1A",
"L  c #540C1A",
"P  c #481219",
"I  c #571713",
"U  c #630203",
"Y  c #620B05",
"T  c #63030B",
"R  c #6C040B",
"E  c #640A0B",
"W  c #6B0B0D",
"Q  c #6A0603",
"!  c #72030E",
"~  c #730B0C",
"^  c #7B0509",
"/  c #621401",
"(  c #641A00",
")  c #6D1C01",
"_  c #68130B",
"`  c #731D00",
"'  c #76160A",
"]  c #640213",
"[  c #6B0215",
"{  c #630A14",
"}  c #65041A",
"|  c #6B041C",
" . c #640C1B",
".. c #6A0B1C",
"X. c #6C0D12",
"o. c #730215",
"O. c #750D13",
"+. c #7C0E13",
"@. c #74021B",
"#. c #7B021C",
"$. c #780718",
"%. c #6A1112",
"&. c #661617",
"*. c #731213",
"=. c #7B1214",
"-. c #7C131A",
";. c #751919",
":. c #7B1B1B",
">. c #751916",
",. c #592205",
"<. c #54291C",
"1. c #692605",
"2. c #722201",
"3. c #7C2300",
"4. c #72260A",
"5. c #67271D",
"6. c #7B2419",
"7. c #763917",
"8. c #703812",
"9. c #4B0723",
"0. c #580A26",
"q. c #5A1523",
"w. c #4D1221",
"e. c #630C22",
"r. c #6C0B23",
"t. c #6A0624",
"y. c #720C25",
"u. c #7B0D2C",
"i. c #780824",
"p. c #6B162C",
"a. c #691524",
"s. c #731324",
"d. c #791224",
"f. c #7A172A",
"g. c #7B1432",
"h. c #781A35",
"j. c #700F32",
"k. c #573423",
"l. c #6B2427",
"z. c #74222B",
"x. c #7B2735",
"c. c #753131",
"v. c #7D483A",
"b. c #74421D",
"n. c #831E00",
"m. c #820D13",
"M. c #82011C",
"N. c #8B0D1C",
"B. c #840B1B",
"V. c #84141B",
"C. c #861417",
"Z. c #96161B",
"A. c #8F0D14",
"S. c #832400",
"D. c #8A2A04",
"F. c #932D01",
"G. c #8A350B",
"H. c #963508",
"J. c #8B3B16",
"K. c #943B13",
"L. c #80211F",
"P. c #A33C08",
"I. c #870A25",
"U. c #910E27",
"Y. c #8B1421",
"T. c #831B2C",
"R. c #881728",
"E. c #91132C",
"W. c #961928",
"Q. c #831C33",
"!. c #821C3A",
"~. c #8A1936",
"^. c #941C34",
"/. c #971A38",
"(. c #8B0F32",
"). c #A81424",
"_. c #A61637",
"`. c #8D2B2E",
"'. c #852826",
"]. c #95222A",
"[. c #98252B",
"{. c #89352A",
"}. c #8E2C31",
"|. c #8B2B3E",
" X c #88263A",
".X c #942D33",
"XX c #92243D",
"oX c #9C243D",
"OX c #9C2538",
"+X c #8C363F",
"@X c #873839",
"#X c #9C3C3C",
"$X c #953539",
"%X c #923C2F",
"&X c #AA292D",
"*X c #A72B39",
"=X c #B52937",
"-X c #A73739",
";X c #B6373C",
":X c #A6302E",
">X c #954718",
",X c #AA4609",
"<X c #AC511A",
"1X c #984727",
"2X c #975127",
"3X c #974539",
"4X c #995532",
"5X c #884A31",
"6X c #A75A38",
"7X c #A8502F",
"8X c #AC633D",
"9X c #AA6738",
"0X c #B66738",
"qX c #BB662E",
"wX c #9B6034",
"eX c #C67437",
"rX c #C96A31",
"tX c #C15926",
"yX c #971B42",
"uX c #A31F48",
"iX c #8D2844",
"pX c #9D2B43",
"aX c #972846",
"sX c #8B3243",
"dX c #873641",
"fX c #973548",
"gX c #9F2D50",
"hX c #9C3755",
"jX c #8D3452",
"kX c #A52A47",
"lX c #B22947",
"zX c #A73449",
"xX c #B7354A",
"cX c #A92953",
"vX c #B32D57",
"bX c #A73756",
"nX c #B53658",
"mX c #B93A62",
"MX c #C43E44",
"NX c #CC3E70",
"BX c #9A4A47",
"VX c #9B5B51",
"CX c #A84C50",
"ZX c #B56743",
"AX c #B7456A",
"SX c #B74D71",
"DX c #C55146",
"FX c #C16445",
"GX c #C87D43",
"HX c #C4557C",
"JX c #C9587B",
"KX c #CD4972",
"LX c #D56588",
"PX c #E86893",
"IX c #D75984",
/* pixels */
"=.=.O.W X.%.%.%.%.I _ I G I I G E X.X.] E E E z z l z l l l l g g f f f f f f h d d f d f f f f U U U f f f U f f d f d d g g g l l g M v I I v I I &.&.*.=.=.m.+.B.C.V.Y.Y.V.V.V.W.].].].].[.].[.[.&X[.",
"k Y z E z E z z h d l l l l l z d d f d f f d f d f d d d d d d f U U T W W X.X.>.>.>.>.;.;.;.>.:.:.-.:.V.:.:.:.:.:.>.*.*.*.*.W W Y Y E f d f f h f f Y T R R R *.O.O.*.=.-.V.V.V.=.' O.=.C.L.Y.Z.W.Z.W.",
"s v s V s u r t p t p t t t t t t t t t d z T T -.-.N.Y.W.W._.[..X`.}.}..X[..X.X}.`.}.[.`.[.}..X}.}..X}..X.X.X.XOX*X*X*X*X*X*X*X;X*X=X=X=X=X=X=X).).Z.C.-.~ W Y f d d d f f h Y Y W ' 6.:.>.' ~ =.C.C.C.",
"1 1 1 1 1 r p p 1 t t d f k ] T s.5.5.z.z.'. X`.R.R.R.Y.N.N.N.B.+.*.O.X.W W E W E T T E T T T k E z E E W W [ R ~ ~ o.+.B.m.N.N.A.N.Z.Z.).).).).=X=X=X-X-X-X#X3X%X%X`.'.6.>._ Y f f f f f Q _ ' ~ ~ ' :.",
"p i r r t t j f -.d.d.R.E.E.^.^.-.;.&.{ X.E k j z z z d d t t t d d d t t d d t g d s g l d t g s d g d z j z z j d j h k h z k Y Y Y W ~ ~ ^ ^ ^ ! ^ -.V.6.'.'.'.]..X:X-X7XxX;X:X:X[.A.m.m.^ Q W / h Y ",
"t t k  .s.f.h.'.d.d.d.$.o.[ ! T T k k j t t t t t r 1 y y a a v 1 r r y r a r a r 1 1 1 1 3 3 1 r r r r r r y r s s t a s a a u v x c l g l h h E Y E Y E Y E W =.m.m.m.C.C.Z.Z.&X&X;XMXMX;X=X&X=.' W Q ",
"T.T.f.f.s. .{ k j j t t r t t r r 1 1 1 1 r a 3 < 1 < < = < = = < 3 < 1 < < < < < = < - < = = 2 2 < 2 < 3 < 3 1 < 1 1 1 3 r r a 3 2 2 2 3 3 8 3 3 y u s l z z z Q Q Q Q ~ ~ =.=.m.m.A.Z.A.).&X&XDXMXMXMX",
"] T k f d t t t r 1 1 1 2 2 2 2 3 1 1 1 1 < < < < < < < < < < < = < < < < = < = < = = < = < < = - - , - = - = - < < 6 1 4 2 1 < 2 2 2 2 2 - 2 2 2 3 7 3 r p p d d d f z T Y Y U W R W ~ O.n.C.C.A.).).).",
"t r r r t 1 1 < 1 < = = = = * = = = < 1 3 r t t p d j j k T T D G F F j p p i r i 1 1 1 1 1 1 = * $ + * * * * = * * * - > = - * * , = - - - : > 4 2 6 5 1 5 5 a a y r a s u s p l z z { %.E &.W ' +.=.C.",
"1 1 < < < < 1 < < 1 y b I 5.5.l.@X@X@Xc.dXdXdX@X+X+X+X+X+X+X+XsXiXsXsXsXsXsXsX|.|.|. X Xx.z.z.z.q.I Z a a < = * = = = * = * = = > : * * * , - > * = : 4 4 4 4 < 2 4 7 3 1 7 a a s s s l l F I G E E _ %.",
"< < y u M 5.c.@X$XBX#X#X-X$X$X.XT.z.f.f.s.s.a.s... . .{ { G G G { } } } } ....r.r.r.a.s.f.h.h.Q.XXXXXXXXXX|.sX|.f.a.G p 1 < < < = * * * * * * $ , * , * : > 6 q < 4 4 4 5 5 5 5 i i p B F S S l z z z z ",
"c.%XBXCXCXBX$X{.'.'.d.:.O.~ ! R [ ..[ { { ] z D S z D l l S l S D D D ] J ] D ] k D D D ] D ] ] o.o.#.#.#.i.I.d.f. XiXfXfX|.f.a.S i 1 < * * ; * ; ; ; ; ; * * * = : : < 4 4 5 5 5 5 i a i p p p p t l g ",
"CX-X`.C.*.W %.X.z h l g t l s l t j p p p p p p p i i i i a a a p B B B p B B p S S S S S p S S k k S D D D D D | } ] [ ..d.~.aXpXpXyXh.r.B 1 * + $ + + * * * * * ; * ; : : : < 4 4 4 5 7 7 7 i p p s j ",
"^ ~ ~ _ W E Y h l l s a a 7 6 3 a i a a 7 a a 7 1 1 1 1 1 1 1 5 5 5 5 1 5 7 5 5 1 1 i i a B B N a N N p V S S S j D J } } { ] ] o.i.(.XXpXiXsXx.K a < = + + $ + + O @ + $ , , , - * = : : : 6 4 1 3 a a ",
"&._ h h t d t u r r a a 7 5 5 4 < 4 < < < < < < 1 4 2 4 4 < < < 4 6 : 4 4 4 4 1 A w a 7 5 5 5 1 a w 7 7 5 5 5 i V N B i p B B S K G k ] [ i.E.^.pX Xs.K a = + O O O O O @ + + @ * * , * = > = > 6 4 4 2 ",
"u y y r y r 3 1 1 1 4 < < < 6 4 = < = = < : = < = = = < = < < < = 6 = < < < < < < < 1 1 1 r r p 5 1 5 1 1 5 i i 1 i i i p B B p N V F G } [ o.o.#.Y. XfXdXl.P < * * * + O o @ O $ * * , , * - = = - > 6 ",
"3 1 3 < < 2 < < = = = = - = = = * : = ; * * * * * = = = < < < 4 < = < < < i S  .s.f.Q./.oXkXkXcXbXbXbXbXhXhXhXhXgXiXiXh.j.t.0.H C A N C H J J } ] | i.| y.|.fXiXs.t = = . X X o $ ; ; ; + + * < - , : > ",
"4 > 2 = = = = = = * * = * * * * : * * * * * * * * = < < < < 1 1 S &.p.x.sXBXhXbXbXbXbXnXnXnXnXvXvXvXvXmXmXAXmXAXSXSXSXIXIXHXIXSXhXjXh.e.H B p p J S D | t.| i.u.oXzX..< $ &     $ $ $ $ % + * = = * * - ",
"= = = * = * * * * * * + + * + * ; + + O + O + + * = = 1 t .. XaXpXpXkXoX^.~.u.d.f.d.y.y...r.r.} t.i.y.y.u.u.g.g.yXg.iXiXgXhXhXbXSXIXLXLXLXSXaXh.J H S D S J e.t.d.h.hXdXi + $ @ $ $ O . O + * * * * * * ",
"* = * * * * * * * * + + + + + + + O O + O + + + * 7 q.x.iXXX~.I.I.#.o.o.[ T [ [ D D S S V B V F J J J 0.J J J J 0.e.t.t.j.g.g.!.yXyXaXcXAXHXLXLXSXbXh.J S J J S D } s.iXfXa.< + # # % . # # @ O + * + , ",
"* * * * + * + * + + * + + + + O . o O O + * 1 a z.z.a...} ] ] ] D k k j d t r r i r 5 1 4 4 4 5 1 1 1 i i i i p B B S D J e.t.t.u.(.!.~.yXaXgXbXHXLXPXHXiXS S e.e.e.] @.kXzXa.- O O O . O O O . O * + , ",
"+ + + + + + + + $ + + + + O O O o o O + = 1 L  . .} D j p t p r 1 < 1 1 1 4 4 4 4 < : = = = : = = = = = < < 4 1 5 i i i B S S D J } t.t.t.g.~.aXgXbXmXIXPXIXyXD H H y.i.#.^.zXl.* . . O O O o o O + + + ",
"* + + + + + + + + O O O O O O O . O O * 5 s K { f d d t r 1 < = > , + * * , * * * * * * * * = = * * * * * * = = < 4 4 5 i i p B p S K e.t.y.u.u.~.uXuXvXKXPXIXyXS 0.S ] I.Y.E.CXa * O O + O X X @ O @ + ",
"+ + + + O + O O O # O O O O O . O O * 4 P L k d d t r 1 < : , @ o o O @ @ @ + + * * * = = * = * + + @ + $ + * * * = = 4 4 5 5 5 N i B B H t.t.i.u.(.uXcXvXNXIXPXj.H S } o.^ W.fXl.4 O + $ O X X . + O + ",
"+ + + + O + O O O O O O O . O O @ + * 1 A a r r r 1 < = * * * + * , * * * * * * * * * * * = * * + O + + + + + + + + * : : : : 4 5 a N B D } t.i.i.(.yXuXuXmXKXPXjXS L l [ N.m.zX@X* + $ + O   o O O O @ ",
"+ + + O + + + O O O O O O . O O + + * 4 7 3 < 1 < < = = * * + + * * * * * * * * + * + + + + + + $ + + + + + $ $ $ * ; ; ; : : 4 < 1 1 p S J t.i.(.I.(.yXvXnXKXLXhXi V G U $.N.*X+X= O O . + . + O + + O ",
"+ + + + + + + O O O O O O O . O O O O * 6 < < 4 < < = = = * * + * * * * * * + * + * + + + + + O * + + * $ * $ * + $ ; * ; : : 0 6 < 7 i p D } | i.(./.yXuXvXKXJXq.a F p R V.W.kXx.* .     $ + * + O O O ",
"+ + + + + + + O + + O O O O O O o . . O * > 2 1 < < = = * * * + * + * * * + * + + + + + + + @ + + * * * $ * * * * * * : : : : 4 = < a s F { ..d.i.(./._.NXKXmX~.p i t z -.$.W.CXV #       % * * + O O + ",
"* + + + + + + + O + O O O O O O o     O + * < 4 1 4 < < = = * + @ @ @ + @ @ + + + + + + + + + * * * * * * = * = = < : 4 4 4 5 5 r a s l l ] ..B.E./.kXnXKXkXI.k z s h E T `.BXl.* O o X   O + + + O + O ",
"* * * * * * + + + + + + + O O O % . . O + + * = 4 < 4 4 6 = : : + * + + + * + + * + * + * * * * * * * = * = = = < < 4 5 1 5 i p S G G { X.d.E.^.pXkXzXpXd.] k k d z R ~ '.BXc.* + O .     . + + + O + $ ",
"- - , * , * * + + + + @ + + + + + + + + + + O + * + * = 4 4 4 4 < < < < = = = = = = = = = * = * = * = = = 2 < 4 < 1 r r i p S D T ! #.I.E.*XkXkXoXOXd.k p F L s _ Q m.:XBX5.$ + + $ # . o . O @ O O + $ ",
"2 - = - = , , * * + * + + + + + + * * + + O O O O O + * = 4 4 4 5 5 5 1 1 1 < 1 < < < < < < < = < < < < 1 1 1 1 r p j l D { ..-.W.W.^.*X/.^.Y.$.T f d k z g V &.&.6.CX#Xs = O   . # . O % o . O + + $ $ ",
"P v 3 3 3 3 2 = = = * * * , * + , $ + O + O O O O + + + $ $ * * 4 4 1 4 5 7 a a a i a i a N i i a a p s l F G K &.;.;.s.f.T.T.T.d.-.*.T d t d d d f E / Q *.:.'.CXdX&.1 * + O O . O . O O O + O $ + $ , ",
"x u u c c x 3 1 3 3 2 - = = * * * + + + + + * + + + $ * * * ; * * * * = = < < : 4 1 1 i a p s V L l V L F F G G S G { ] T k f d d t d d g f h E E h f Y :.{.-X3XI w = + + O O . . . O O + + ; * $ * * $ ",
"4.1.( b b c b c y r 1 y y 7 3 7 2 2 < 2 < 6 < < = < = < < = = < = = = = = = = < = < < < < 1 1 1 1 1 1 1 1 r r 1 s r r r r r s l a u g h Y Y W Q %.&.{.BXVXv.v + .     . O o O O O + + + $ * * , = * = = ",
"3.3.2.` 2.) ) ( ( n n M b c t u u y y r r 1 1 1 1 1 r 1 1 1 1 < < - - 2 2 2 = < 3 < 4 < 4 < < 1 y y y u y u u c u u u u c c c u ( M n n _ >.'.{.BXBXBX5.= + @ @ o X o o o O O + + + * * * * : : : < : 6 ",
",XP.P.F.D.3.3.S.3.2.` ) ) ( / / / h h n h g g m c c c x 3 x 8 8 y x 3 y 3 y y y x u u u c c v b u u g u g u g g _ z z / _ _ &.6.~ :.'.%X3X3X5Xv.<.8 + O + * + . o . . O + + * * * * = = = = = = < 4 1 5 ",
"rXrXtX<X,X,XH.H.F.D.S.S.S.S.` 3.` ` ) ` ) ) ( ( n m m m m m m m m m m m m m n m g b b b b b h n / / ( Q ( ` ) >.) 1.' 4.6.{.{.1X6X3X3X1X5.v , O O . O O O @ + + + + O + + * * * = = = = = < 4 4 1 1 r a ",
">X<XqXGXGXGXqXqXqX<X<X,X,XH.F.F.H.D.D.S.D.S.S.S.3.3.3.3.2.2.2.2.2.2.2.2.) 2.2.2.4.` ` 4.` 4.2.` ` n.S.D.D.D.G.G.1X2X6X9X4X2X5X8.,.x = + @ O O + @ O O + * * + * * = = = = * * * = = < 4 1 1 r i p j j k ",
"= < 1 t ,.8.>X2XqX0XqXeXeXeXeXeXqXqX7X<X1X<X>X>X>XK.K.K.K.K.H.H.G.G.G.G.G.G.J.J.J.J.J.K.1X1X3X7X7X7X6X8X6X6X4X4X7.7.,.x 1 = * * O O O @ @ @ + + + + + + + + * ; : = : : : * = * = < < i r j j k T k T ] ",
"= = : = = = = = < < 1 x ,.1.8.b.5X2X4XwX9X9XZXZXZXZXZXFXFXFXFX0X8X8X8X8X8X8X8X9X8X6X6X4X1X1X5Xb.k.k.<.8 8 * + O + + + + + O + O . . O O + + * * * * * * $ @ % + * = ; = : : - = 4 a i j k ] [ ! o.o.^ $.",
"9 9 9 ; ; ; : * * * + + @ # O + O + * * - 2 3 2 y u g g g h g b b m b m c c u u 1 1 < < < = = * O   . . . . O O O # O O # # # # # O % + $ * * * = : : * , * $ , 4 1 0 7 5 5 i B V S { [ @.$.M.M.M.I.U.U.",
"e w 4 4 4 : : : ; * ; * $ ; ; ; , , * + + + O + + * * * * * * * + * + * + + + + + * * + * + * * * = = * * * * * + + + + @ O + + ; ; ; ; : ; : 9 : : 4 4 4 5 5 5 r i p p k D [ [ @.@.#.@.i.I.I.U.W._._.lX",
"6 6 6 6 6 6 6 9 : 4 9 9 9 4 9 : * ; * * $ * + $ O @ O # O O O O + + + + * + + + + O + + O + + + = = = = = = = = * = * * * * * = 0 0 0 4 4 0 0 4 4 4 1 i i j k D } [ | [ @.#.#.i.M.I.I.E.^.oXkXzXnXxXlXlX",
"O O @ , ; > e e A C C 9.C C C C q 0 0 0 q 0 0 9 : ; ; ; ; ; ; ; $ * ; ; ; ; ; ; ; ; ; ; ; ; : ; * * * * * = = < < < < 4 4 1 5 5 q 0 q 4 q 5 i i S D ] ] [ o.#.#.o.o.M.I.U.E._._.lXvXnXbXbXzXsX|.a.G S t ",
". . . O + $ ; : 0 q q 9.9.0.0.0.9.9.9.9.C C q q w q q 0 9 4 9 4 0 0 0 0 0 4 : 9 0 0 0 0 0 q 0 q 7 q 7 4 5 4 1 5 1 i r i t p p p S p S S D J } t.| o.@.#.I.U.U.E.oX*XkXzXlXcXzXkX~.T.d.| k s t 1 < = < = ",
"# O # O O O O O O O O + $ * ; * 0 e e P P w.w.w.0.0.0.K K J D J H H H 0.H H B H B S S S H D H D j p B S J J J } ] } | @.@.#.i.i.M.M.N.I.U.E.E.E.oXpXoXpXfXpXpXfX Xx.f.&.K s t r p 1 1 1 1 1 i N i 5 N i ",
"$ $ # # # # # O O . . . . . . . O O + + + = = 4 i i p B D K  .e.e.q.p.q.p.p.p.p.p.p.p.p.p.p.p.p.h.j.h.h.h.h.g.!.!.!.!.!.iXiXiX/.OXOX_.^.OX^.].~.d.s.s. .D p p r 1 < < < < < = < = < 4 5 5 i i 1 i i i p ",
"# + # + # O + # O O O # O . # O O O O O O O O O O + + + + + * * * * * ; : : : 4 w w w e A P P A P P P 9.Z Z Z Z Z Z A A A A N N 1 1 < < < < = = = = = = = < = = < 4 1 4 1 5 1 5 5 5 5 i i N N B p N B B ",
"+ O + O O O O O O O + O O O O O O O O . . O . . . . . . O . . . O O O . O O O O O O + O + + + + + + + + + + * + * * * + + + + + $ * * + $ * * * , * ; * : : : < < < 4 4 4 4 5 5 q 5 N N B N N N B B B B "
};
