/* XPM */
static char *_1674929590[] = {
/* columns rows colors chars-per-pixel */
"100 50 241 2 ",
"   c #010305",
".  c #01060D",
"X  c #010A0E",
"o  c #0C0C0C",
"O  c #010611",
"+  c #020B13",
"@  c #0A0E15",
"#  c #00051D",
"$  c #030D1A",
"%  c #0A0E1A",
"&  c #051116",
"*  c #04131C",
"=  c #09131C",
"-  c #03191E",
";  c #0A191E",
":  c #0C1116",
">  c #121A1E",
",  c gray6",
"<  c #010E22",
"1  c #000D2A",
"2  c #000622",
"3  c #031423",
"4  c #0A1523",
"5  c #031A25",
"6  c #0A1924",
"7  c #03152A",
"8  c #09152A",
"9  c #041B2B",
"0  c #0A1B2B",
"q  c #121C23",
"w  c #111B2B",
"e  c #101728",
"r  c #021631",
"t  c #041D33",
"y  c #0A1E33",
"u  c #011D3B",
"i  c #0B1E3B",
"p  c #081438",
"a  c #121C32",
"s  c #161E3C",
"d  c #000C31",
"f  c #042026",
"g  c #082124",
"h  c #03222D",
"j  c #0A222D",
"k  c #09282D",
"l  c #13232D",
"z  c #1D262E",
"x  c #042234",
"c  c #0A2233",
"v  c #022A34",
"b  c #0B2936",
"n  c #04233B",
"m  c #0A233B",
"M  c #022A3D",
"N  c #0A2A3D",
"B  c #132333",
"V  c #12243B",
"C  c #132B3D",
"Z  c #1C2C3D",
"A  c #1B2733",
"S  c #08303D",
"D  c #13313E",
"F  c #27343D",
"G  c #232D30",
"H  c #001E41",
"J  c #0C1E41",
"K  c #091640",
"L  c #032443",
"P  c #0A2542",
"I  c #052A44",
"U  c #0B2A44",
"Y  c #02274C",
"T  c #092648",
"R  c #042C4C",
"E  c #0B2C4B",
"W  c #1A2544",
"Q  c #142B44",
"!  c #1A2C44",
"~  c #122C4A",
"^  c #1A2D4A",
"/  c #142546",
"(  c #0B3344",
")  c #0C334C",
"_  c #073448",
"`  c #11324C",
"'  c #1A334B",
"]  c #123A4C",
"[  c #173446",
"{  c #012A53",
"}  c #0C2D51",
"|  c #052E58",
" . c #182D55",
".. c #043352",
"X. c #0D3352",
"o. c #02335B",
"O. c #0C345C",
"+. c #0D3C5C",
"@. c #073D55",
"#. c #123453",
"$. c #1B3553",
"%. c #133A55",
"&. c #1B3B54",
"*. c #14365B",
"=. c #143A5B",
"-. c #1C3B5B",
";. c #19375A",
":. c #23374A",
">. c #343D43",
",. c #213C5D",
"<. c #263B54",
"1. c #033A61",
"2. c #093A63",
"3. c #1B3D62",
"4. c #143965",
"5. c #263C61",
"6. c #0D425C",
"7. c #07425A",
"8. c #144259",
"9. c #19435C",
"0. c #194658",
"q. c #24425E",
"w. c #2B445D",
"e. c #254055",
"r. c #354758",
"t. c #324652",
"y. c #0C4464",
"u. c #0A4866",
"i. c #1B4263",
"p. c #1B4B61",
"a. c #1C436B",
"s. c #174866",
"d. c #094B74",
"f. c #164B79",
"g. c #1A4A7B",
"h. c #154671",
"j. c #0A5579",
"k. c #135373",
"l. c #1B5877",
"z. c #11506F",
"x. c #244464",
"c. c #24456C",
"v. c #2C4669",
"b. c #244A6D",
"n. c #2C4C6C",
"m. c #2A4662",
"M. c #334E64",
"N. c #324F6D",
"B. c #27536C",
"V. c #32526C",
"C. c #264B73",
"Z. c #2B4D73",
"A. c #264975",
"S. c #235473",
"D. c #2F5473",
"F. c #29547D",
"G. c #27567A",
"H. c #335474",
"J. c #375978",
"K. c #3D4973",
"L. c #38687F",
"P. c #525D68",
"I. c #46557A",
"U. c #4D6575",
"Y. c #434B4E",
"T. c #0B5D85",
"R. c #2D5986",
"E. c #285987",
"W. c #325B87",
"Q. c #3A5E8A",
"!. c #355C88",
"~. c #385C92",
"^. c #0D628C",
"/. c #1C6586",
"(. c #0E6693",
"). c #156A97",
"_. c #18719E",
"`. c #2B6683",
"'. c #346685",
"]. c #346984",
"[. c #336B8A",
"{. c #3B6787",
"}. c #3D718D",
"|. c #277497",
" X c #3F6C93",
".X c #1475A4",
"XX c #1C7BAB",
"oX c #1A77A4",
"OX c #157CB6",
"+X c #187EB9",
"@X c #0B72A8",
"#X c #277CAC",
"$X c #387DA3",
"%X c #405C81",
"&X c #436B8B",
"*X c #4B6683",
"=X c #5A768E",
"-X c #457296",
";X c #587993",
":X c #4E6F8E",
">X c #607590",
",X c #5779AD",
"<X c #4878A0",
"1X c #627EA5",
"2X c #1B82BA",
"3X c #1C83B8",
"4X c #2085BA",
"5X c #3885AE",
"6X c #648497",
"7X c #4F80A5",
"8X c #5389AB",
"9X c #5988B3",
"0X c #5692B2",
"qX c #6886A4",
"wX c #778DAA",
"eX c #7697AB",
"rX c #6889B9",
"tX c #7695B9",
"yX c #1F8DCE",
"uX c #218CCD",
"iX c #228BC4",
"pX c #2591CE",
"aX c #2995CC",
"sX c #2798D5",
"dX c #309EDB",
"fX c #32A1D9",
"gX c #7698C5",
"hX c #7FA1C4",
"jX c #808FAC",
"kX c #88A9B8",
"lX c #819CC4",
"zX c #87A6C9",
"xX c #91B2CC",
"cX c #8CACD4",
"vX c #95B5D5",
"bX c #96AEDC",
"nX c #97B6E6",
"mX c #A1BFF2",
"MX c #A0B8E8",
"NX c #ABC5F7",
"BX c #A9C5F6",
/* pixels */
"y y i y y i x y i c c i c y m y y 0 y x 0 x 0 y b c c k c b c b b b b b c c m N x x x n n b n m x c m m m m m m m i m m P P P P m m m x n m m m b c c c c c c b c m y m m m i i P i J J J J J J P N m m ",
"y i i y y i y i y i y c y c y c y y y y y c y b y x b C b x 5 5 9 x x n n c x y m m N m n n n n m n m n n n i x U P P m m n i y P m I P N N m x x m b N N c j h c i n y m i i m i i i J P J i n i n m y ",
"c i c y y y y x y y y i y c y y c x y t y t x t N x 9 9 9 t m N n u n P T P P I P T I I I T I I I N N N N N N N x t n n m N m I u u u n P P M n x n y t x x b b x x x c x m m c i x m y i i y i i x y x ",
"y y x i i c y y c y c y y y i c y x x y y t i x m m m m m n y u n L u u u u H n H u u u n L L L n n n n n n u u L n n u n n u u E P T n i n u n U m n x x t t y b y x x c c c x y y y y y y y i y x t i ",
"y y y y c y y y y y x y y x y x t x y n m n m x u t u u u u u u K H H Y } } 4.3.C.C.C.C.C.G.F.E.E.E.R.R.R.W.R.R.E.E.A.a.4.4.4.O.H H u u u u u n r u n P P N n m x x h x x c h h c x j c y j j c y y x y ",
"c x x y y y c y y y y y y y y i u x n n t r u u L u u L T #.5.c.Z.Z.!.Q.Q.{.Q.Q.F.E.E.F.G.F.S.g.f.f.f.f.g.g.g.g.E.E.E.W.~.~.~.~.{.J.H.Z.x.-.X.U I P L u n u M n x h y h h c c h j c j h j j j c y x y y ",
"y x j c x c 0 y x 0 y y h y y t x n n n n P P I #.$.x.n.H.H.H.H.c.c.3.4.2.O.| { { | | o.o.o.o.o.o.1.1.o.1.1.o.o.K { { | | | O.O.3.i.a.n.Z.H.H.D.n.x.-.( L u u r x x t h x h h 0 j h h j j j j 0 y c y c ",
"c 0 0 c j y x c y x h y y y y x t r t n E ;.m.v.n.n.c.5.;.*.} } { | Y | *.a.C.F. X X<X,X8X8X8X0X0X0X0X0X0X8X8X8X,X<X-X{.F.b.4.4.} } T R E X.#.#.;.x.b.n.n.x.-.$.n y x t y x x x x 0 h f j 9 j j 0 c y 0 ",
"0 j j 0 9 c 0 y 9 0 0 9 t 9 9 r P [ <.w.m.,.$.E ~ E E T } T } } } =.n.J.&X&X-X-X{.{.[.'.].[.[.].].[.[.`.L.].].G.[.{.'.{.&X&X&X&XH.b.i.#.E E R T E E T E #.&.,.q.w.,.' N y u 9 r y h 0 x 0 h 0 f j c 0 c ",
"j f 9 h 9 f 9 j c h 9 9 0 b Q [ :.' ` ~ Q Q ~ E P P T T T T T T  .` #.#.) ) E X.9.i.s.b.b.B.S.S.l.l.G.l.k.S.S.S.p.i.8.=.%.] X._ #.X.E E E E T L P T P P I U E ~ U ^ ' $.' ~ m y 9 r 9 9 9 9 9 0 0 0 0 0 ",
"9 5 6 5 0 5 0 f 3 9 y V C Z ! ! Q N V m n m m i J J i P J P P u n n m m P T ) ] ) X.%.8.9.8.8.=.6.+.+.6.6.+.+.+.i.=.%.X.) E R I n n n M m m P n P m n P m m n i m m / ^ ^ ! ! Q y y 0 7 9 6 9 0 8 0 0 5 ",
"0 6 6 5 9 6 6 9 5 0 B Z Z C V 0 7 t y c c i y t u i t t u u i y 9 x n m N C P N N N N N U I M M _ I R R R I I I ) T I I U U ~ U m n t t t n t x y n y u y i i y m i p t y m V ! V V c 0 8 8 7 8 8 6 8 8 ",
"6 5 6 5 4 6 9 8 B B a a y 0 0 0 y 0 y 7 r t 0 y 9 t 9 y y 9 t t t 0 y y y 9 7 7 9 9 9 r t x x n x x v x v x h h h 5 5 3 5 5 5 h x x 9 9 9 9 9 t 7 7 9 r y y 0 t 0 p y 0 y y 0 y B B B j 0 6 5 4 6 6 8 6 ",
"6 ; ; 6 4 3 4 8 a w e 1 8 8 a y w 0 8 8 8 8 8 0 9 8 8 9 8 8 9 9 7 7 3 3 9 9 0 8 7 7 7 7 7 t y c x c x h 9 9 5 5 5 3 5 3 * - - - 5 5 5 5 5 9 9 5 7 9 9 9 9 8 9 9 8 9 0 0 0 8 8 8 6 8 0 8 0 6 4 4 6 6 6 6 ",
"= 4 = - 4 4 4 4 3 4 8 8 8 e 8 8 1 3 8 8 0 0 6 8 4 8 4 6 4 7 4 9 6 5 3 3 < 3 < 1 3 3 1 < < 1 < 1 y V V t 7 r 7 3 < 3 3 3 3 3 5 5 3 3 3 5 9 6 5 5 9 6 8 8 4 9 4 8 0 9 5 3 3 3 5 6 3 3 6 6 4 4 4 = 4 4 5 4 ",
"= = = = = 3 % 4 4 4 4 4 < < 4 < 4 4 4 = 3 = 3 3 4 5 5 3 8 5 5 4 9 4 7 8 0 0 5 < 3 1 3 1 7 7 7 7 p ~ ~ p 1 r r 1 1 7 7 7 7 7 7 3 0 6 5 5 3 3 ; 5 4 5 ; 6 3 4 4 = * 3 = 3 4 = $ $ = = = = = = = = = 3 = 3 ",
"= 4 = % = = $ = $ % $ % % $ % = = = * = * = = 3 4 3 4 < < 4 4 < $ * 3 3 3 3 7 7 8 r t y i P T ~ ) ) E U ) T n m n x t 9 7 3 1 * * * * * - = = = = & = > = : % @ + = * * * * = + & & @ @ % : : = $ = & - ",
"= % = $ % % % % @ $ = = : = % = X + & = ; = 4 4 $ < 1 7 0 y i i ' ' :.:.w.w.M.V.N.N.H.H.H.H.H.D.D. X[.J.L.J.D.B.V.V.V.V.M.M.M.M.e.:.[ Z B 8 7 3 8 4 $ $ % 4 q 4 6 - & + + & + = % : @ @ : : @ : @ & & * ",
"% = = @ & & = $ = = $ + + + $ & , @ o o . + $ * C ! ' &.5.v.Z.N.m.m.q.q.-.-.&.%.;.;.%.%.*.*.%.+.O.R.R.2.2.4.*.O.*.*.*.*.*.*.*.;.c.v.v.v.n.v.v.v.$. .~ / i d 1 $ O + $ * - = + + @ + @ + @ @ @ @ @ = + + ",
"$ @ + = % $ @ $ O @ $ = @ + . .   X : q z F :.r.:.:.$.'  .E T T E E E E E T T R ) R E _ ) ) X.X.| W.R.o.{ | | 4.O.X.} X.#.#.~ E T Y Y { } #.#. .-.5.,.,.,.;.*.^ 0 6 * + O + + + + + + . @ @ @ + + + & @ ",
"& X & & + + + & + + + O O @ 4 e C ^ ' ' ' Q N c t y a V V A Z W i H n P T I U E n M I ( ` ( ( _ R a.4.T X.#.E #.U I P J m N c m U I I M n n n n n t r t x P I Q :.Z B 0 4 * + + O + + X X + X + + + + + ",
"& & X X + + + + @ + O O $ e z ! m P n t r r r 9 y y 0 8 8 5 3 3 i m n i y y t t n b b n N Q [ e.` E J  .,.,./ J m m y a c j B j h 9 h h v h x x N x y y x 9 t 8 6 0 l Z Z B 4 = + + + + X X X X + X + + ",
"X X X X X X + + . O 6 w B l 6 4 0 7 < < 7 0 c c 9 9 9 9 c c b c 4 6 8 0 0 l l l l 0 8 9 6 l :.<.5. . .5.,.W / K i a a a a a 0 e w j 0 0 9 8 7 6 3 < 8 0 0 0 7 3 1 < * 3 4 w B A 6 = $ + X X X X X X + . ",
"X X X X X X X + ; 4 4 4 3 = 3 < $ $ 3 4 w 0 8 < 9 9 7 9 7 3 7 3 4 4 > q 6 e 6 e 0 a Z A a a s W I.I.I.I. .s W W s s s a a w a w 8 4 4 4 4 4 4 4 6 8 4 4 4 8 e e 4 4 3 $ < * * + l q = & + X X X O X X O ",
"& X & X X X X & 6 ; 4 = $ $ < $ $ % 4 e 4 4 $ O 3 < < * * < 3 $ $ @ & = = 3 4 < 4 8 8 p s s W W W jXwX<.i Z B 0 8 8 4 $ = = = $ & = 4 $ % $ $ @ . % e = % @ % 4 4 4 % # # $ $ < $ & 4 4 = @ X . + . O X ",
"X X X X X X + * * & $ $ $ $ # + O % e O O $ 6 4 O O + $ * 3 * $ + $ + + . O O # 2 2 2 d d K K W ^ *XI.T V ~ r 9 < < < $ # O O . + + O O $ $ $ + e .   + % @ O = 4 3 < $ + + + $ $ $ & = : & + + . + X O ",
"X X X X X + $ = + $ + + O O # O 5 1 $ 3 4 3 #   = = @ +       X O $ 9 D e.I.=X1XtXlXcXbXMXmXNXNXnXNXmXnXmXmXnXbXbXcXlXrX1X:XQ.N.b g * O . X X + O ; 4 X . = * . $ $ % $ $ O O O O + + % = $ + + X O O + ",
"X X & X + + + = + + + O + + + + $ $ $ $ + + $ 6   . + . X ; >.Y.6XeXzXxXvXxXzXlXtXgXtXrX1X,X,X,X,X,X,X,XrX,X,XrXrXtXgXgXzXcXcXxXxXkXeX6XU.e.9 O O O + $ + . . = O $ $ $ O O O O O O + $ @ + + + O . + . ",
"X X + O + + + + + + O + O + O +   o o     @ + . O < C M.=XeXtXeX6X;X&XJ.V.J.J.D.b.b.c.c.c.c.A.C.C.c.c.C.c.3.i.b.3.i.x.c.A.N.H.H.'.*X;XqXwXtXwXqX*X^ 2 # 1 2 2 # + + o + O . O + O O + @ + O + O . + . O ",
"X X + + + O + + + O + O O + + X ,     o : . . - e.U.>X=XL.q.=.9.X.) ( ) ( U I n E U E R R E E ) #.` E U E ` U E ` ` U P P ~ I T X.| | } =.x.N.J.*X>X=XM.8 $ 2 3 O   . . . . O @ O @ O + O # O O O . O O ",
"X + + O O O O O O + O O O O + O . . . +   O F U.U.M.[ N Q ( P n n t t t x m N N x x k c c c k c y B c 9 V V B y y y y 0 y y y y x x n n n y c j F Z >.P.P.>.$ . .   . . . . O @ O O O O O O O O O . O O ",
"& X + + O + + O + O + O + O + + O = @ . 4 r.r.! 0 y c y 9 9 9 r 9 r 9 t 0 9 6 3 * - 5 - - - * * * 0 8 3 4 5 < 3 3 3 4 0 w e 8 5 9 9 5 5 3 3 5 0 4 w q = G Y.>.>   + O o o . .   @ O O O O % O @ O + O o ",
"X . . o . X o O . O O O O O + X X X   & F F e 5 9 3 3 3 3 5 3 3 3 3 * $ $ $ * * * * ; ; 6 g g g q q w l j q w 0 6 6 3 = - * $ * * * 5 5 ; ; = = = = ; q > q G F o X   X . + + + . + . . O . O . . X . . ",
"o o X . o . . X O o O O O O O X   o   + G z 4 3 3 3 < 3 3 * 3 * * + $ + + * + + + + & & & & & * = * * * * * * * & & * & + * & + & * * * - * = = $ = = = - ; l z & + X X X O . . O . . O O . . O X X X . ",
"+ X o + + . X . O O . O + . X X   X   X q q * = = $ $ * 3 * * * * * 3 * * 3 5 3 3 5 5 5 5 5 6 6 f f 5 5 5 5 5 5 - - * - - - - - - * * - * 3 = 3 3 * = = * * - 6 & & X X X .   X X X X X X . X . + + + + ",
"+ + + + + X X X O X + . + O X X   X X X = & + $ 3 3 3 * * 3 * 5 3 5 3 5 9 5 9 5 9 5 5 5 6 5 9 9 5 5 5 5 5 5 5 9 f 5 9 f 5 9 9 5 5 5 9 5 9 5 8 6 5 * 3 * 5 * 3 - + X X X X + X + X X X X X + X X + + @ + ",
": & @ @ + + + + X X X X X X X X X X X X = * + * = * * * * - ; - * * - * = * * * 5 * * * * 3 3 3 3 7 7 7 7 3 7 3 7 7 5 9 9 3 9 7 9 5 9 9 9 5 9 9 9 3 3 5 5 5 5 * & X X X X X X X X X X X X X X + + @ + $ ",
"= = = = = & & @ + X X + X X X X & X X X + = = + $ $ + $ * * * & & & * * * * * * * 3 3 3 3 5 5 7 9 9 r 9 r 9 9 9 7 3 3 7 3 9 3 9 9 5 5 5 5 3 5 5 3 3 - 5 5 - 3 - - & & & & & & X & + & & & & + @ = & * = ",
"= = = = = = = = & & + & & & o + & & & - & * * & * + $ * & * * * - * * * * 5 5 5 3 3 3 7 9 9 7 9 t 9 9 h 9 h 5 f 9 5 9 5 5 5 9 5 5 5 9 5 5 5 5 5 5 * 5 5 5 - * - - & & & & & & + & & = & & : $ : = * * = ",
"= 3 = * = = = = & & & & & & & & - & ; - $ + * $ = * * * * * - * 3 5 3 3 9 9 9 t x n n n L I L M I M I M I M M M n n x x v x x h 9 9 9 9 5 9 5 f 5 5 5 5 - * - - & - = & - - - & = & * & & = = & * = $ * ",
"4 5 6 - = 3 4 - 4 = = * ; ; ; ; * - - = - = 4 = = 3 5 5 5 ; 5 5 9 9 t x x x n n M I I R ..o.7.y.d.f.k.k.d.2.1.@.{ { Y Y Y { Y L M j 9 f j f 5 5 g g g - - g 5 * - - ; ; = ; 5 ; = = 6 ; = = - = = 3 4 4 ",
"8 0 8 6 4 4 4 4 - 4 4 ; ; ; 6 3 5 ; 5 5 4 4 6 6 l 6 * 6 k k k v M M M M ( ( _ ..R ......@.@.y.y.E./.E.k.h.u.1...2.+.+.+.o.X...R N N D D b k k k f j g g - ; ; 6 g 5 6 5 5 3 = 5 3 - = 6 6 6 6 6 4 4 4 8 ",
"6 8 0 0 8 4 3 3 4 4 6 8 5 6 - = * 3 - 3 3 3 3 - $ * f 5 3 3 5 h f 5 5 f h b v S ( ( ] ] ] %.0.0.6.0.p.p.8.0.0.0.] ] S S S S b b v h h 9 9 5 f h 5 g g - - - - - 3 5 5 - 3 3 - 3 8 4 6 5 3 6 4 4 8 6 8 6 ",
"8 4 6 8 8 8 5 4 5 7 5 4 3 4 5 3 3 3 3 * = 3 - 3 3 j c 3 9 x h 3 - - - - - g f f 5 f 9 5 h h h v h v v h h h h f f f f - - f - - h h 9 9 9 h f 5 5 5 5 5 ; * * = 3 3 3 3 3 3 3 7 6 5 4 7 8 9 8 4 6 0 6 8 ",
"0 0 0 0 0 0 c c 7 3 3 1 7 7 8 0 5 5 6 5 5 5 0 0 5 c C b 9 9 h h f - - g g g f f k k k v k h v v M S ( S v v v v b b k k l k l k t x x x x h 5 - S k 9 5 6 6 6 7 6 9 9 7 9 9 8 9 3 7 8 0 y 0 0 y 8 6 6 8 ",
"9 8 9 8 0 0 0 a a y y 0 8 8 r 7 9 9 9 8 8 8 6 0 3 5 N 0.] n x M f f f h f v h h h v v S S S ( _ 7.7.7.7.7.7._ ] M N x x v x x t M M M t t x ( 0.0.N h 9 9 8 0 0 9 9 9 9 9 9 9 0 y y y a B y y 8 9 9 8 8 ",
"7 9 9 7 8 8 0 t V V V V m y y t 9 9 9 9 9 8 9 9 C 5 9 ] D.J.p...7.7.7.7.7.7.u.7.7.u.z.z.k.l.l./.l.5X|././.j.j.z.k.z.z.u.s.u.6.6.6.6.] 6.6.0.B.B.) M t 9 r 9 8 y t t y y y y y c V V V y y t 8 7 0 0 8 0 ",
"0 0 0 t y 0 t 8 7 t s Z ^ ^ ! ^ i c c x c c x b 9 n n h M p.L.}.`.j.j.j.j.T.^.^.^.^.(.)._._.oXoX3X_.3X3X.X_._.).(.^.T.T.T.j.j.j.k.k.l.].}.].p.R x t n m P i t t t p x m Q Q ! ! c y y 8 7 8 y y y 0 a 0 ",
"y y y y y r y t 9 9 7 1 p V W ' $.-.;.} } R L L M m N M n n I +.[.|.|.5X3X.X@X@X3X3X3X3X3X3X3X3X3X2X2X2X@X2X2X2X2X2XiX2X@X3X3X_.5X5X$X[.s.L n n n M L H P T T L *.;.-.$.' Q y 7 0 y 0 y t 8 9 y y y 0 y ",
"y y y y y y 0 t y y y 0 8 9 8 t P } 4.5.a.a.i.*.E T U U P P T R L o.j.(.XXyXsXfXsXsXpXpXpXiXyXyX3XiXyXiXyXyXyXyXyXyXdXfXsXsX4X3X(.j.1.{ I L U E T ~  .*.3.c.C.b.*.#.E H u r r 8 y 0 y y y t t p y 8 y y "
};
